<?xml version="1.0" encoding="utf-8"?>
<!-- Generator: Adobe Illustrator 24.0.1, SVG Export Plug-In . SVG Version: 6.00 Build 0)  -->
<svg version="1.1" id="Layer_1" xmlns="http://www.w3.org/2000/svg" xmlns:xlink="http://www.w3.org/1999/xlink" x="0px" y="0px"
	 viewBox="0 0 595.28 841.89" style="enable-background:new 0 0 595.28 841.89;" xml:space="preserve">
<style type="text/css">
	.st0{fill:#003964;}
	.st1{fill:#ED1A3B;}
	.st2{fill:#575756;}
</style>
<g>
	<g>
		<g>
			<g>
				<g>
					<g>
						<g>
							<path class="st0" d="M205.8,418.69c-8.61-5.86-19.65-3.47-25.44,5.34c-4.84,7.36-12.14,8.27-14.97,8.27
								c-9.21,0-15.52-6.48-17.39-13.19h0c-0.02-0.07-0.03-0.12-0.05-0.19c-0.02-0.08-0.04-0.15-0.06-0.23
								c-0.73-2.8-0.92-4.14-0.92-7.11c0-16.04,16.46-33.9,40.16-33.9c24.27,0,38.16,18.48,41.74,28.75
								c-0.06-0.18-0.12-0.36-0.18-0.55c-6.89-20.08-25.94-34.53-48.36-34.53c-28.22,0-51.11,22.88-51.11,51.11
								c0,25.23,18.2,46.83,43.44,46.83c20.13,0,33.66-11.29,39.87-26.85C215.95,433.94,213.54,423.94,205.8,418.69z"/>
						</g>
						<g>
							<path class="st1" d="M229.2,407.42c-2.98-10.02-16.98-29.74-42.06-29.74c-23.71,0-40.16,17.86-40.16,33.9
								c0,2.97,0.18,4.31,0.92,7.11c-0.31-1.22-0.47-2.45-0.47-3.65c0-16.7,16.73-28.28,33.92-28.28
								c23.28,0,42.14,18.87,42.14,42.14c0,18.25-10.5,34.03-25.76,41.62l0.01,0.01c19.66-7.12,33.71-25.95,33.71-48.07
								C231.45,417.23,230.74,412.61,229.2,407.42z"/>
						</g>
					</g>
				</g>
			</g>
		</g>
	</g>
	<g>
		<path class="st2" d="M280.08,407.58v4.35h-22.48v-4.35h8.61v-4.81h5.45v4.81H280.08z M279.35,424.02c0,1.31-0.28,2.56-0.82,3.75
			c-0.55,1.19-1.3,2.23-2.24,3.11c-0.95,0.86-2.04,1.54-3.28,2.06c-1.24,0.52-2.56,0.78-3.96,0.78c-1.41,0-2.73-0.26-3.96-0.78
			c-1.24-0.52-2.31-1.2-3.23-2.06c-0.95-0.88-1.7-1.92-2.24-3.11c-0.55-1.19-0.82-2.44-0.82-3.75c0-1.31,0.27-2.56,0.82-3.75
			c0.55-1.19,1.3-2.21,2.24-3.07c0.92-0.88,1.99-1.59,3.23-2.11c1.24-0.52,2.56-0.78,3.96-0.78c1.4,0,2.72,0.26,3.96,0.78
			c1.24,0.52,2.33,1.22,3.28,2.11c0.94,0.86,1.69,1.88,2.24,3.07C279.07,421.45,279.35,422.71,279.35,424.02z M274.49,424.02
			c0-1.5-0.52-2.78-1.56-3.85c-1.04-1.07-2.32-1.6-3.85-1.6c-1.5,0-2.77,0.54-3.83,1.6c-1.05,1.07-1.58,2.35-1.58,3.85
			c0,1.5,0.53,2.77,1.58,3.82c1.05,1.05,2.33,1.58,3.83,1.58c1.53,0,2.81-0.53,3.85-1.58C273.97,426.79,274.49,425.52,274.49,424.02
			z M292.12,402.13h4.95v40.85h-4.95v-18.82h-4.76v18.59h-4.67v-40.57h4.67v17.35h4.76V402.13z"/>
		<path class="st2" d="M323.27,412.52c0,1.37-0.29,2.67-0.87,3.89c-0.58,1.22-1.36,2.29-2.34,3.21c-0.95,0.92-2.06,1.64-3.34,2.17
			c-1.28,0.53-2.66,0.8-4.12,0.8c-1.5,0-2.89-0.27-4.19-0.8c-1.3-0.53-2.42-1.26-3.37-2.17c-0.97-0.92-1.75-1.98-2.33-3.21
			c-0.58-1.22-0.87-2.52-0.87-3.89c0-1.37,0.29-2.68,0.87-3.92c0.58-1.24,1.36-2.3,2.33-3.18c0.95-0.92,2.07-1.65,3.37-2.2
			c1.29-0.55,2.69-0.82,4.19-0.82c1.46,0,2.84,0.27,4.12,0.82c1.28,0.55,2.39,1.28,3.34,2.2c0.98,0.89,1.76,1.95,2.34,3.18
			C322.98,409.85,323.27,411.15,323.27,412.52z M318.37,412.52c0-1.59-0.56-2.94-1.69-4.08c-1.13-1.13-2.49-1.69-4.08-1.69
			c-1.62,0-2.98,0.57-4.1,1.69c-1.12,1.13-1.67,2.49-1.67,4.08c0,1.62,0.56,2.98,1.67,4.1c1.11,1.11,2.48,1.67,4.1,1.67
			c1.59,0,2.95-0.56,4.08-1.67C317.8,415.51,318.37,414.14,318.37,412.52z M333.57,434.27c0,1.37-0.28,2.66-0.85,3.87
			c-0.57,1.21-1.32,2.27-2.27,3.18c-0.95,0.92-2.07,1.64-3.37,2.18c-1.3,0.53-2.67,0.8-4.1,0.8c-1.43,0-2.79-0.27-4.08-0.8
			c-1.28-0.53-2.39-1.26-3.34-2.18c-0.98-0.91-1.74-1.98-2.29-3.18c-0.55-1.21-0.82-2.5-0.82-3.87c0-1.37,0.27-2.66,0.82-3.87
			c0.55-1.21,1.31-2.27,2.29-3.18c0.95-0.92,2.06-1.64,3.34-2.17c1.28-0.53,2.64-0.8,4.08-0.8c1.43,0,2.8,0.27,4.1,0.8
			c1.3,0.53,2.42,1.26,3.37,2.17c0.95,0.92,1.7,1.98,2.27,3.18C333.29,431.61,333.57,432.9,333.57,434.27z M328.63,434.23
			c0-1.53-0.55-2.84-1.65-3.94c-1.1-1.1-2.41-1.65-3.94-1.65c-1.52,0-2.85,0.55-3.96,1.65c-1.12,1.1-1.67,2.41-1.67,3.94
			c0,1.56,0.56,2.88,1.67,3.96c1.11,1.08,2.44,1.63,3.96,1.63c1.53,0,2.84-0.54,3.94-1.63
			C328.08,437.11,328.63,435.79,328.63,434.23z M335.4,423.47h-5.04v-21.34h5.04v3.85h5.86v4.4h-5.86v4.35h5.86v4.44h-5.86V423.47z"
			/>
		<path class="st2" d="M381.21,427.59v4.49h-16.26v10.9h-5.08v-10.9h-16.21v-4.49H381.21z M362.43,402.13l16.85,18.18l-3.66,3.16
			l-13.19-14.15l-13.14,14.15l-3.71-3.16L362.43,402.13z"/>
		<path class="st2" d="M397.78,401.9l12.59,20.1l-4.03,2.56l-8.56-14.01l-8.43,14.38l-4.12-2.61L397.78,401.9z M392.88,428.51v9.16
			h27.48v4.49H387.8v-13.65H392.88z M419.3,428.28h-5.04v-26.15h5.04v9.39h5.86v4.99h-5.86V428.28z"/>
		<path class="st2" d="M428.5,427.93h37.55v4.49h-16.26v10.53h-5.08v-10.53H428.5V427.93z M436.51,407.96h21.48v-5.17h5.04v19.64
			h-31.51v-19.64h4.99V407.96z M457.99,412.36h-21.48v5.63h21.48V412.36z"/>
	</g>
</g>
</svg>
