<?xml version="1.0" encoding="utf-8"?>
<!-- Generator: Adobe Illustrator 16.0.0, SVG Export Plug-In . SVG Version: 6.00 Build 0)  -->
<!DOCTYPE svg PUBLIC "-//W3C//DTD SVG 1.1//EN" "http://www.w3.org/Graphics/SVG/1.1/DTD/svg11.dtd">
<svg version="1.1" id="Layer_1" xmlns="http://www.w3.org/2000/svg" xmlns:xlink="http://www.w3.org/1999/xlink" x="0px" y="0px"
	 width="110.55px" height="39.689px" viewBox="0 0 110.55 39.689" enable-background="new 0 0 110.55 39.689" xml:space="preserve">
<title>logo-consonant-n</title>
<g>
	<path fill="#21AEE5" d="M75.458,8.436C72.064,3.498,66.46,0.55,60.468,0.55H40.375c-1.602,0-3.112,0.778-4.041,2.082
		c-0.929,1.304-1.172,2.985-0.65,4.499l1.243,3.601c-0.99-0.337-2.038-0.516-3.104-0.516h-4.375l-0.423,1.021
		c-2.369,5.711-2.369,11.504,0,17.217l0.423,1.02h4.375c1.066,0,2.114-0.178,3.104-0.516l-1.243,3.603
		c-0.521,1.513-0.279,3.194,0.65,4.498c0.93,1.303,2.439,2.081,4.041,2.081h20.093c5.992,0,11.596-2.948,14.99-7.885l7.844-11.41
		L75.458,8.436z M57.833,29.218h1.938c1.319,0,2.518-0.52,3.408-1.361c0.986,2.317,2.402,4.447,4.195,6.276
		c-1.748,0.915-3.68,1.482-5.686,1.648C60.068,33.788,58.773,31.573,57.833,29.218L57.833,29.218z M57.566,22.602h3.859v1.653
		c0,0.912-0.743,1.654-1.654,1.654h-6.884C53.569,23.985,55.409,22.602,57.566,22.602L57.566,22.602z M61.549,19.293h-3.983
		c-0.523,0-1.035,0.052-1.533,0.146c0.092-5.672,2.087-11.142,5.656-15.53c2.006,0.165,3.936,0.732,5.686,1.647
		C63.771,9.228,61.687,14.11,61.549,19.293L61.549,19.293z M39.028,35.139c-0.315-0.441-0.394-0.988-0.216-1.5l2.7-7.826
		c0.273-0.791-0.053-1.672-0.773-2.096c-0.277-0.163-0.585-0.241-0.891-0.241c-0.49,0-0.974,0.202-1.317,0.585
		c-1.198,1.339-2.915,2.105-4.707,2.105h-2.138c-1.522-4.243-1.522-8.399,0-12.643h2.138c1.793,0,3.509,0.767,4.707,2.104
		c0.559,0.624,1.487,0.769,2.208,0.345c0.721-0.424,1.046-1.305,0.773-2.096l-2.7-7.826c-0.177-0.512-0.099-1.059,0.216-1.5
		c0.314-0.441,0.805-0.694,1.347-0.694h17.237c-3.172,4.698-4.891,10.262-4.891,15.988c0,0.336,0.008,0.672,0.02,1.007
		c-2.085,1.504-3.446,3.951-3.446,6.711v1.654h5.008c0.809,2.332,1.92,4.557,3.31,6.616H40.375
		C39.833,35.833,39.342,35.58,39.028,35.139L39.028,35.139z M72.734,29.38c-0.738,1.074-1.604,2.029-2.568,2.858
		c-3.393-3.226-5.316-7.679-5.316-12.395c0-4.716,1.924-9.167,5.314-12.393c0.965,0.829,1.832,1.786,2.57,2.859l6.555,9.535
		L72.734,29.38z M72.734,29.38"/>
	<rect x="68.371" y="14.883" fill="#21AEE5" width="3.309" height="3.309"/>
</g>
</svg>
