<?xml version="1.0" encoding="utf-8"?>
<!-- Generator: Adobe Illustrator 24.0.1, SVG Export Plug-In . SVG Version: 6.00 Build 0)  -->
<svg version="1.1" id="Layer_1" xmlns="http://www.w3.org/2000/svg" xmlns:xlink="http://www.w3.org/1999/xlink" x="0px" y="0px"
	 viewBox="0 0 303.1 361.5" style="enable-background:new 0 0 303.1 361.5;" xml:space="preserve">
<style type="text/css">
	.st0{fill:none;}
	.st1{fill:#21AEE5;}
	.st2{fill:#0081CC;}
</style>
<title>logo-consonant-n</title>
<path class="st0" d="M77.6,219.6c0,40.8,33.1,73.9,73.9,73.9s73.9-33.1,73.9-73.9c0-37.3-27.7-68.2-63.6-73.2h-20.6
	C105.3,151.4,77.6,182.3,77.6,219.6z"/>
<path class="st1" d="M193.6,84V0h-84.1v84c13.3-3.6,27.4-5.5,42.1-5.5S180.3,80.4,193.6,84z"/>
<path class="st1" d="M303.1,84.1H194c33.4,10.4,61.5,32.9,79.3,62.3h29.9V84.1z"/>
<path class="st1" d="M151.6,145.7c-3.5,0-6.9,0.3-10.3,0.7h20.6C158.5,146,155.1,145.7,151.6,145.7z"/>
<path class="st1" d="M109.2,84.1H0v62.3h29.9C47.6,117,75.7,94.6,109.2,84.1z"/>
<path class="st1" d="M225.5,219.6c0,40.8-33.1,73.9-73.9,73.9s-73.9-33.1-73.9-73.9c0-37.3,27.7-68.2,63.6-73.2H29.9
	C17,167.8,9.6,192.9,9.6,219.6c0,78.4,63.6,142,142,142s142-63.6,142-142c0-26.8-7.4-51.8-20.3-73.2H161.9
	C197.8,151.4,225.5,182.3,225.5,219.6z"/>
<path class="st1" d="M194,84.1c-0.1,0-0.2-0.1-0.3-0.1v0.1H194z"/>
<path class="st1" d="M109.5,84c-0.1,0-0.2,0.1-0.3,0.1h0.3V84z"/>
<path class="st2" d="M194,84.1h-0.3V84c-13.3-4.1-27.4-6.3-42.1-6.3s-28.8,2.2-42.1,6.3v0.1h-0.3C75.7,94.6,47.6,117,29.9,146.4
	h111.3c3.4-0.5,6.8-0.7,10.3-0.7s6.9,0.3,10.3,0.7h111.3C255.5,117,227.4,94.6,194,84.1z"/>
</svg>
