<?xml version="1.0" encoding="utf-8"?>
<!-- Generator: Adobe Illustrator 16.0.0, SVG Export Plug-In . SVG Version: 6.00 Build 0)  -->
<!DOCTYPE svg PUBLIC "-//W3C//DTD SVG 1.1//EN" "http://www.w3.org/Graphics/SVG/1.1/DTD/svg11.dtd">
<svg version="1.1" id="레이어_1" xmlns="http://www.w3.org/2000/svg" xmlns:xlink="http://www.w3.org/1999/xlink" x="0px"
	 y="0px" width="52.375px" height="24.375px" viewBox="0 0 52.375 24.375" enable-background="new 0 0 52.375 24.375"
	 xml:space="preserve">
<g>
	<path fill="#21AEE5" d="M4.312,10.303c2.672,0,5.223-0.887,7.293-2.492c2.071,1.605,4.625,2.492,7.289,2.492
		c2.668,0,5.223-0.887,7.293-2.492c2.071,1.605,4.622,2.492,7.29,2.492s5.223-0.887,7.293-2.492c2.07,1.605,4.621,2.492,7.293,2.492
		c1.324,0,2.398-1.074,2.398-2.399c0-1.328-1.074-2.402-2.398-2.402c-2.109,0-4.094-0.926-5.453-2.547
		C42.152,2.412,41.48,2.1,40.77,2.1s-1.383,0.312-1.836,0.855c-1.363,1.621-3.352,2.547-5.457,2.547s-4.09-0.926-5.449-2.547
		C27.57,2.412,26.898,2.1,26.191,2.1h-0.004c-0.707,0-1.378,0.312-1.835,0.855c-1.364,1.621-3.348,2.547-5.458,2.547
		c-2.101,0-4.089-0.926-5.453-2.547C12.984,2.412,12.312,2.1,11.605,2.1c-0.738-0.012-1.386,0.316-1.839,0.859
		c-1.36,1.617-3.344,2.543-5.454,2.543c-1.324,0-2.398,1.074-2.398,2.402C1.914,9.229,2.988,10.303,4.312,10.303L4.312,10.303z
		 M4.312,10.303"/>
	<path fill="#0081CC" d="M48.063,17.475c-2.109,0-4.098-0.926-5.453-2.547c-0.457-0.543-1.129-0.855-1.84-0.855
		s-1.383,0.313-1.836,0.855c-1.363,1.621-3.352,2.547-5.457,2.547s-4.094-0.926-5.449-2.547c-0.458-0.543-1.129-0.855-1.84-0.855
		c-0.707,0-1.378,0.313-1.835,0.855c-1.364,1.621-3.352,2.547-5.458,2.547c-2.105,0-4.093-0.926-5.457-2.547
		c-0.453-0.543-1.125-0.855-1.835-0.855c-0.711,0-1.383,0.316-1.84,0.859c-1.356,1.617-3.34,2.543-5.45,2.543
		c-1.324,0-2.398,1.074-2.398,2.402c0,1.324,1.074,2.398,2.398,2.398c2.672,0,5.223-0.887,7.293-2.492
		c2.071,1.605,4.625,2.492,7.289,2.492c2.668,0,5.223-0.887,7.293-2.492c2.071,1.605,4.622,2.492,7.29,2.492
		s5.223-0.887,7.293-2.492c2.07,1.605,4.621,2.492,7.293,2.492c1.324,0,2.398-1.074,2.398-2.398S49.387,17.475,48.063,17.475
		L48.063,17.475z M48.063,17.475"/>
</g>
</svg>
