<?xml version="1.0" encoding="utf-8"?>
<!-- Generator: Adobe Illustrator 16.0.0, SVG Export Plug-In . SVG Version: 6.00 Build 0)  -->
<!DOCTYPE svg PUBLIC "-//W3C//DTD SVG 1.1//EN" "http://www.w3.org/Graphics/SVG/1.1/DTD/svg11.dtd">
<svg version="1.1" id="레이어_1" xmlns="http://www.w3.org/2000/svg" xmlns:xlink="http://www.w3.org/1999/xlink" x="0px"
	 y="0px" width="387.667px" height="391.333px" viewBox="0 0 387.667 391.333" enable-background="new 0 0 387.667 391.333"
	 xml:space="preserve">
<g>
	<path fill="#0081CC" d="M1.833,100.987c0,44.684,15.57,86.965,44.129,120.675v16.191c0,61.43,49.977,111.406,111.402,111.406
		c6.215,0,11.25-5.039,11.25-11.25v-51.063c6.688,0.719,13.453,1.094,20.273,1.094h36.798c-2.903,10.164-3.7,20.949-2.207,31.461
		c2.304,16.266,9.675,31.023,21.324,42.668l22.198,22.203c2.109,2.109,4.974,3.293,7.953,3.293c2.984,0,5.849-1.184,7.957-3.293
		l22.199-22.203c9.871-9.871,16.664-21.957,19.907-35.32c13.362-3.242,25.448-10.035,35.319-19.906l22.199-22.199
		c2.113-2.109,3.297-4.969,3.297-7.953s-1.184-5.848-3.297-7.957l-22.199-22.199c-11.645-11.648-26.401-19.02-42.668-21.324
		c-10.512-1.492-21.297-0.695-31.461,2.211v-36.8c0-6.817-0.375-13.575-1.09-20.258h51.07c6.211,0,11.25-5.035,11.25-11.25
		c0-61.43-49.977-111.402-111.406-111.402h-16.187C186.13,19.245,143.841,3.667,99.154,3.667h-86.07
		c-6.215,0-11.25,5.035-11.25,11.25V100.987z M99.154,26.167c20.477,0,40.383,3.719,58.949,10.832
		c0.039,1.188,0.063,2.375,0.063,3.539c0,65.871-53.59,119.461-119.461,119.461c-1.164,0-2.352-0.023-3.539-0.062
		c-7.113-18.567-10.832-38.473-10.832-58.95v-74.82H99.154z M281.314,147.964c-6.609-28.399-19.805-54.82-38.816-77.422
		c42.274,3.055,76.453,35.793,81.731,77.422H281.314z M245.755,316.346c-1.355-9.574-0.02-19.465,3.75-28.305h25.453
		c6.211,0,11.25-5.039,11.25-11.25v-25.453c8.84-3.77,18.73-5.105,28.306-3.75c11.397,1.613,21.745,6.785,29.914,14.957
		l14.245,14.246l-14.245,14.246c-8.31,8.309-18.856,13.504-30.5,15.023c-5.06,0.66-9.039,4.641-9.699,9.699
		c-1.521,11.645-6.715,22.191-15.024,30.5l-14.246,14.246l-14.246-14.246C252.544,338.092,247.369,327.744,245.755,316.346
		L245.755,316.346z M188.888,265.541c-43.957,0-85.277-17.117-116.359-48.199c-10.586-10.586-19.547-22.359-26.766-35.019
		c72.672-3.574,131.152-62.054,134.727-134.726c12.66,7.218,24.434,16.179,35.02,26.765c31.082,31.082,48.199,72.407,48.199,116.36
		v74.819H188.888z M146.119,326.053c-41.633-5.281-74.371-39.457-77.422-81.734c22.602,19.016,49.02,32.215,77.422,38.824V326.053
		L146.119,326.053z M146.119,326.053"/>
	<path fill="#0081CC" d="M76.287,94.331c6.309,0,10.977-5.156,11.25-11.25c0.273-6.078-5.367-11.25-11.25-11.25
		c-6.305,0-10.977,5.152-11.25,11.25C64.763,89.155,70.404,94.331,76.287,94.331L76.287,94.331z M76.287,94.331"/>
</g>
</svg>
