<?xml version="1.0" encoding="utf-8"?>
<!-- Generator: Adobe Illustrator 16.0.0, SVG Export Plug-In . SVG Version: 6.00 Build 0)  -->
<!DOCTYPE svg PUBLIC "-//W3C//DTD SVG 1.1//EN" "http://www.w3.org/Graphics/SVG/1.1/DTD/svg11.dtd">
<svg version="1.1" id="레이어_1" xmlns="http://www.w3.org/2000/svg" xmlns:xlink="http://www.w3.org/1999/xlink" x="0px"
	 y="0px" width="85.819px" height="79.125px" viewBox="0 0 85.819 79.125" enable-background="new 0 0 85.819 79.125"
	 xml:space="preserve">
<g>
	<path fill="#0081CC" d="M71.309,72.505c-1.732,0-2.498-0.479-3.559-1.139c-1.295-0.81-2.906-1.817-5.908-1.817
		c-3.006,0-4.613,1.008-5.908,1.817c-1.061,0.659-1.826,1.139-3.559,1.139c-1.73,0-2.496-0.479-3.557-1.139
		c-1.297-0.81-2.906-1.817-5.908-1.817c-3.006,0-4.615,1.008-5.908,1.817c-1.063,0.659-1.826,1.139-3.561,1.139
		c-1.729,0-2.494-0.479-3.555-1.139c-1.295-0.81-2.906-1.817-5.908-1.817c-3.004,0-4.615,1.008-5.909,1.817
		c-1.062,0.659-1.829,1.139-3.56,1.139c-1.727,0-2.495-0.479-3.556-1.139c-1.294-0.81-2.906-1.817-5.908-1.817v4.437
		c1.727,0,2.495,0.479,3.556,1.139c1.294,0.815,2.906,1.817,5.908,1.817c3.002,0,4.613-1.002,5.908-1.817
		c1.061-0.659,1.83-1.139,3.561-1.139c1.729,0,2.494,0.479,3.555,1.139c1.295,0.815,2.906,1.817,5.908,1.817
		c3.004,0,4.615-1.002,5.908-1.817c1.063-0.659,1.83-1.139,3.561-1.139c1.729,0,2.494,0.479,3.557,1.139
		c1.293,0.815,2.904,1.817,5.908,1.817c3.002,0,4.617-1.002,5.91-1.817c1.061-0.659,1.826-1.139,3.557-1.139
		s2.498,0.479,3.559,1.139c1.291,0.815,2.906,1.817,5.908,1.817c3.004,0,4.611-1.002,5.906-1.817
		c1.061-0.659,1.83-1.139,3.559-1.139v-4.437c-3.002,0-4.613,1.008-5.908,1.817C73.805,72.025,73.037,72.505,71.309,72.505
		L71.309,72.505z M71.309,72.505"/>
	<path fill="#21AEE5" d="M74.865,60.682c-1.061,0.666-1.828,1.146-3.557,1.146c-1.338,0-2.096-0.286-2.861-0.716l2.971-10.709
		h-9.695l-17.207-34.98V2.184h-4.434V5.78l-1.189,1.058c-10.861,9.735-17.033,22.896-17.377,37.074l-0.055,2.271h18.621v4.219
		H12.954l4.25,10.796c-0.709,0.386-1.456,0.629-2.694,0.629c-1.727,0-2.495-0.479-3.556-1.146c-1.294-0.803-2.906-1.811-5.908-1.811
		v4.431c1.727,0,2.495,0.485,3.556,1.145c1.294,0.81,2.906,1.817,5.908,1.817c3.002,0,4.613-1.008,5.908-1.817
		c1.061-0.659,1.83-1.145,3.561-1.145c1.729,0,2.494,0.485,3.555,1.145c1.295,0.81,2.906,1.817,5.908,1.817
		c3.004,0,4.615-1.008,5.908-1.817c1.063-0.659,1.83-1.145,3.561-1.145c1.729,0,2.494,0.485,3.557,1.145
		c1.293,0.81,2.904,1.817,5.908,1.817c3.002,0,4.617-1.008,5.91-1.817c1.061-0.659,1.826-1.145,3.557-1.145s2.498,0.485,3.559,1.145
		c1.291,0.81,2.906,1.817,5.908,1.817c3.004,0,4.611-1.008,5.906-1.817c1.061-0.659,1.83-1.145,3.559-1.145v-4.431
		C77.771,58.871,76.16,59.879,74.865,60.682L74.865,60.682z M26.063,41.747c0.824-11.282,5.736-21.764,14.02-29.931v29.931H26.063z
		 M44.516,25.478l12.264,24.925H44.516V25.478z M55.934,60.682c-1.061,0.666-1.826,1.146-3.559,1.146
		c-1.73,0-2.496-0.479-3.557-1.146c-1.297-0.803-2.906-1.811-5.908-1.811c-3.006,0-4.615,1.008-5.908,1.811
		c-1.063,0.666-1.826,1.146-3.561,1.146c-1.729,0-2.494-0.479-3.555-1.146c-1.295-0.803-2.906-1.811-5.908-1.811
		c-1.1,0-2.008,0.131-2.785,0.342l-1.721-4.374h46.109l-1.199,4.313c-0.721-0.175-1.555-0.28-2.541-0.28
		C58.836,58.871,57.229,59.879,55.934,60.682L55.934,60.682z M55.934,60.682"/>
</g>
</svg>
