<?xml version="1.0" encoding="utf-8"?>
<!-- Generator: Adobe Illustrator 16.0.0, SVG Export Plug-In . SVG Version: 6.00 Build 0)  -->
<!DOCTYPE svg PUBLIC "-//W3C//DTD SVG 1.1//EN" "http://www.w3.org/Graphics/SVG/1.1/DTD/svg11.dtd">
<svg version="1.1" id="Capa_1" xmlns="http://www.w3.org/2000/svg" xmlns:xlink="http://www.w3.org/1999/xlink" x="0px" y="0px"
	 width="512px" height="512px" viewBox="0 0 512 512" enable-background="new 0 0 512 512" xml:space="preserve">
<g>
	<path fill="#FFCC33" d="M457,60h-36V45c0-24.813-20.187-45-45-45c-24.813,0-45,20.187-45,45v15H181V45c0-24.813-20.187-45-45-45
		c-24.813,0-45,20.187-45,45v15H55C24.673,60,0,84.673,0,115v342c0,30.327,24.673,55,55,55h402c30.327,0,55-24.673,55-55V115
		C512,84.673,487.327,60,457,60z M361,45c0-8.271,6.729-15,15-15c8.271,0,15,6.729,15,15v60c0,8.271-6.729,15-15,15
		c-8.271,0-15-6.729-15-15V45z M121,45c0-8.271,6.729-15,15-15c8.271,0,15,6.729,15,15v60c0,8.271-6.729,15-15,15
		c-8.271,0-15-6.729-15-15V45z M30,115c0-13.785,11.215-25,25-25h36v15c0,24.813,20.188,45,45,45c24.813,0,45-20.187,45-45V90h150
		v15c0,24.813,20.188,45,45,45c24.813,0,45-20.187,45-45V90h36c13.785,0,25,11.215,25,25v67H30V115z M482,457
		c0,13.785-11.215,25-25,25H55c-13.785,0-25-11.215-25-25V212h452V457z"/>
	<path fill="#FFCC33" d="M306.764,272h23.473v165c0,8.284,6.716,15,15,15s15-6.716,15-15V257c0-8.284-6.716-15-15-15h-38.473
		c-8.284,0-15,6.716-15,15S298.479,272,306.764,272z"/>
	<path fill="#FFCC33" d="M211.764,422c-14.887,0-27.658-11.09-29.71-25.796c-0.192-1.378-0.29-2.792-0.29-4.204
		c0-8.284-6.717-15-15-15c-8.284,0-15,6.716-15,15c0,2.793,0.193,5.603,0.576,8.35c4.109,29.445,29.655,51.65,59.424,51.65
		c33.084,0,60-26.916,60-60c0-17.908-7.896-33.997-20.377-45c12.48-11.003,20.377-27.092,20.377-45c0-33.084-26.916-60-60-60
		c-28.607,0-53.367,20.35-58.874,48.387c-1.598,8.129,3.698,16.014,11.828,17.61c8.119,1.596,16.012-3.699,17.608-11.828
		C185.078,282.165,197.458,272,211.764,272c16.542,0,30,13.458,30,30s-13.458,30-30,30c-8.284,0-15,6.716-15,15s6.716,15,15,15
		c16.542,0,30,13.458,30,30S228.306,422,211.764,422L211.764,422z"/>
</g>
</svg>
