<?xml version="1.0" encoding="utf-8"?>
<!-- Generator: Adobe Illustrator 16.0.0, SVG Export Plug-In . SVG Version: 6.00 Build 0)  -->
<!DOCTYPE svg PUBLIC "-//W3C//DTD SVG 1.1//EN" "http://www.w3.org/Graphics/SVG/1.1/DTD/svg11.dtd">
<svg version="1.1" id="Capa_1" xmlns="http://www.w3.org/2000/svg" xmlns:xlink="http://www.w3.org/1999/xlink" x="0px" y="0px"
	 width="39.689px" height="39.689px" viewBox="35.43 0 39.689 39.689" enable-background="new 35.43 0 39.689 39.689"
	 xml:space="preserve">
<g>
	<g>
		<path fill="#FFFFFF" d="M60.005,25.58h-1.164V15.115c0-0.642-0.52-1.163-1.162-1.163h-6.976c-0.642,0-1.163,0.521-1.163,1.163
			v4.65c0,0.643,0.521,1.163,1.163,1.163h1.163v4.65h-1.163c-0.642,0-1.163,0.521-1.163,1.163v4.65c0,0.643,0.521,1.163,1.163,1.163
			h9.302c0.642,0,1.162-0.521,1.162-1.163v-4.65C61.167,26.101,60.647,25.58,60.005,25.58z M58.841,30.231h-6.976v-2.325h1.163
			c0.642,0,1.163-0.521,1.163-1.163v-6.976c0-0.643-0.521-1.163-1.163-1.163h-1.163v-2.325h4.651v10.464
			c0,0.643,0.52,1.163,1.162,1.163h1.162V30.231z"/>
	</g>
</g>
<g>
	<g>
		<path fill="#FFFFFF" d="M55.354,4.652c-1.923,0-3.488,1.564-3.488,3.488c0,1.923,1.565,3.487,3.488,3.487
			c1.923,0,3.487-1.564,3.487-3.487C58.841,6.216,57.277,4.652,55.354,4.652z M55.354,9.302c-0.641,0-1.163-0.521-1.163-1.163
			c0-0.641,0.522-1.162,1.163-1.162c0.642,0,1.163,0.521,1.163,1.162C56.517,8.781,55.996,9.302,55.354,9.302z"/>
	</g>
</g>
<g>
	<g>
		<path fill="#FFFFFF" d="M55.354,0C44.51,0,35.433,8.761,35.433,19.767c0,3.825,1.098,7.628,3.102,10.778l-3.019,7.548
			c-0.381,0.953,0.572,1.887,1.511,1.512l7.547-3.02c3.151,2.005,6.953,3.103,10.779,3.103c11.017,0,19.766-9.089,19.766-19.921
			C75.12,8.842,66.279,0,55.354,0z M55.354,37.377c-3.577,0-7.125-1.096-9.99-3.057c-0.32-0.22-0.729-0.264-1.088-0.12l-5.593,2.237
			l2.237-5.593c0.144-0.36,0.099-0.769-0.12-1.089c-1.961-2.865-3.057-6.413-3.057-9.989c0-9.617,7.909-17.456,17.611-17.456
			c9.616,0,17.456,7.854,17.456,17.472C72.81,29.485,64.97,37.377,55.354,37.377z"/>
	</g>
</g>
</svg>
