<?xml version="1.0" encoding="utf-8"?>
<!-- Generator: Adobe Illustrator 16.0.0, SVG Export Plug-In . SVG Version: 6.00 Build 0)  -->
<!DOCTYPE svg PUBLIC "-//W3C//DTD SVG 1.1//EN" "http://www.w3.org/Graphics/SVG/1.1/DTD/svg11.dtd">
<svg version="1.1" id="Layer_1" xmlns="http://www.w3.org/2000/svg" xmlns:xlink="http://www.w3.org/1999/xlink" x="0px" y="0px"
	 width="100px" height="100px" viewBox="0 0 100 100" enable-background="new 0 0 100 100" xml:space="preserve">
<path fill="#FF9933" d="M96.387,62.164L87.4,53.18c-2.33-2.331-5.428-3.614-8.724-3.614s-6.394,1.284-8.724,3.614l-7.797,7.797
	L39.027,37.847l7.797-7.797c2.33-2.331,3.613-5.429,3.613-8.724s-1.283-6.394-3.613-8.724l-8.985-8.985
	c-4.811-4.811-12.638-4.811-17.448,0L7.45,16.558C2.646,21.362,0,27.749,0,34.542c0,6.794,2.646,13.181,7.45,17.985l40.025,40.025
	c4.958,4.959,11.472,7.438,17.986,7.438s13.025-2.479,17.984-7.438l12.941-12.94c2.33-2.331,3.613-5.429,3.613-8.724
	S98.717,64.495,96.387,62.164z M93.082,76.309l-12.941,12.94C76.22,93.17,71.006,95.33,65.46,95.33s-10.759-2.16-14.681-6.081
	L10.754,49.224c-3.921-3.921-6.081-9.135-6.081-14.681c0-5.545,2.16-10.759,6.081-14.681L23.695,6.921
	c1.494-1.494,3.457-2.241,5.419-2.241c1.962,0,3.926,0.747,5.42,2.241l8.985,8.985c1.447,1.448,2.245,3.373,2.245,5.42
	s-0.798,3.972-2.245,5.419l-9.449,9.449c-0.913,0.913-0.913,2.392,0,3.304l26.433,26.433c0.912,0.912,2.391,0.913,3.305,0
	l9.449-9.448c1.447-1.448,3.371-2.245,5.419-2.245s3.972,0.798,5.419,2.245l8.986,8.985l0,0c1.447,1.447,2.244,3.373,2.244,5.42
	S94.529,74.861,93.082,76.309z"/>
<path fill="#FF9933" d="M69.854,28.673c0.004,0.012,0.01,0.024,0.014,0.036c0.025,0.068,0.053,0.136,0.082,0.202
	c0.009,0.018,0.016,0.036,0.023,0.053c0.039,0.08,0.084,0.156,0.131,0.231c0.013,0.02,0.027,0.037,0.039,0.056
	c0.039,0.057,0.08,0.112,0.123,0.165c0.017,0.021,0.033,0.04,0.051,0.06c0.048,0.055,0.098,0.106,0.151,0.157
	c0.013,0.012,0.024,0.024,0.036,0.035c0.068,0.062,0.141,0.12,0.216,0.174c0.007,0.004,0.014,0.008,0.021,0.013
	c0.066,0.045,0.135,0.088,0.207,0.127c0.023,0.013,0.049,0.025,0.072,0.037c0.058,0.028,0.115,0.055,0.176,0.079
	c0.028,0.012,0.057,0.023,0.086,0.034c0.018,0.006,0.033,0.014,0.05,0.019l9.911,3.305c0.246,0.082,0.495,0.121,0.74,0.121
	c0.979,0,1.89-0.619,2.216-1.598c0.408-1.224-0.253-2.547-1.478-2.955l-6.326-2.109L86.938,16.37c0.912-0.912,0.912-2.392,0-3.304
	c-0.912-0.912-2.391-0.912-3.304,0L73.091,23.609l-2.109-6.326c-0.408-1.224-1.731-1.886-2.956-1.478
	c-1.223,0.408-1.885,1.731-1.477,2.956L69.854,28.673z"/>
<path fill="#FF9933" d="M18.445,22.001c-0.912-0.913-2.391-0.913-3.304,0c-3.339,3.339-5.178,7.778-5.178,12.5
	s1.839,9.162,5.178,12.501c0.456,0.456,1.054,0.684,1.652,0.684c0.598,0,1.196-0.228,1.652-0.684c0.912-0.913,0.912-2.392,0-3.304
	c-2.457-2.457-3.81-5.723-3.81-9.197c0-3.474,1.353-6.74,3.81-9.196C19.357,24.393,19.357,22.914,18.445,22.001z"/>
<path fill="#FF9933" d="M23.675,48.929c-0.915-0.91-2.395-0.906-3.304,0.009c-0.91,0.915-0.906,2.395,0.009,3.305l0.021,0.02
	c0.456,0.454,1.052,0.681,1.647,0.681c0.6,0,1.2-0.229,1.657-0.688c0.91-0.916,0.906-2.395-0.009-3.305L23.675,48.929z"/>
</svg>
