<?xml version="1.0" encoding="utf-8"?>
<!-- Generator: Adobe Illustrator 16.0.0, SVG Export Plug-In . SVG Version: 6.00 Build 0)  -->
<!DOCTYPE svg PUBLIC "-//W3C//DTD SVG 1.1//EN" "http://www.w3.org/Graphics/SVG/1.1/DTD/svg11.dtd">
<svg version="1.1" id="Capa_1" xmlns="http://www.w3.org/2000/svg" xmlns:xlink="http://www.w3.org/1999/xlink" x="0px" y="0px"
	 width="512px" height="512px" viewBox="0 0 512 512" enable-background="new 0 0 512 512" xml:space="preserve">
<g>
	<path fill="#FF9933" d="M497,105.766h-45V75.119c0-41.384-33.668-75.052-75.052-75.052s-75.052,33.668-75.052,75.052v30.802
		c-18.422,1.21-34.767,10.102-45.87,23.502c-1.287-1.553-2.645-3.06-4.088-4.506c-12.311-12.349-28.7-19.149-46.15-19.149H15
		c-8.284,0-15,6.716-15,15V420.77v60.21c0,8.283,6.716,15,15,15c0.857,0,1.697-0.072,2.515-0.211H205.79
		c17.104,0,30.71,4.236,40.44,12.591c5.542,4.779,14,4.756,19.542-0.001c9.729-8.354,23.336-12.591,40.438-12.591h188.274
		c0.817,0.139,1.657,0.21,2.516,0.21c8.284,0,15-6.716,15-15V420.77v-0.002v-300C512,112.482,505.284,105.766,497,105.766z
		 M331.897,170.997l30.052,25.021v40.963l-30.052-25.022V170.997z M391.948,196.018L422,170.997v40.963l-30.052,25.022V196.018z
		 M331.897,75.119c0-24.842,20.21-45.052,45.052-45.052S422,50.277,422,75.119v56.841l-30.052,25.022V98.28c0-8.284-6.716-15-15-15
		s-15,6.716-15,15v58.701l-30.052-25.022L331.897,75.119L331.897,75.119z M301.897,136.04v82.949c0,4.454,1.979,8.678,5.401,11.527
		l54.649,45.501v65.494h-45c-8.284,0-15,6.717-15,15c0,8.284,6.716,15,15,15H377c8.284,0,15-6.716,15-15
		c0-0.346-0.029-0.685-0.052-1.025v-79.469l54.648-45.501c3.423-2.85,5.402-7.073,5.402-11.527v-80.072c0-0.001,0-0.002,0-0.003
		v-3.148h30v270H313.21c-16.69,0-30.951,4.512-42.295,13.229V172.55c0.055-0.517,0.085-1.042,0.085-1.574
		C271,153.022,284.51,138.175,301.897,136.04L301.897,136.04z M205.79,135.766c9.418,0,18.263,3.668,24.904,10.33
		c6.619,6.64,10.249,15.46,10.221,24.88V418.01c-9.794-8.029-21.654-12.242-35.125-12.242H30V135.766H205.79z M205.79,465.767H30
		v-30h175.79c8.725,0,21.276,2.825,29.507,27.255c0.812,2.415,1.511,4.844,2.108,7.232
		C227.775,467.289,217.159,465.767,205.79,465.767z M482,465.766H306.21c-11.709,0-22.619,1.614-32.476,4.758
		c1.224-5.28,2.953-10.479,5.377-15.185c6.877-13.354,17.712-19.574,34.099-19.574H482V465.766z"/>
	<path fill="#FF9933" d="M172.026,345.766H75.085c-8.284,0-15,6.717-15,15c0,8.284,6.716,15,15,15h96.941c8.284,0,15-6.716,15-15
		C187.026,352.482,180.311,345.766,172.026,345.766z"/>
	<path fill="#FF9933" d="M172.026,285.766H75.085c-8.284,0-15,6.717-15,15c0,8.284,6.716,15,15,15h96.941c8.284,0,15-6.716,15-15
		C187.026,292.482,180.311,285.766,172.026,285.766z"/>
	<path fill="#FF9933" d="M60.085,240.766c0,8.284,6.716,15,15,15h96.941c8.284,0,15-6.716,15-15c0-8.284-6.716-15-15-15H75.085
		C66.801,225.766,60.085,232.482,60.085,240.766z"/>
	<path fill="#FF9933" d="M60.38,183.701c1.174,6.146,6.341,10.97,12.496,11.899c6.185,0.933,12.5-2.247,15.434-7.768
		c2.935-5.525,2.109-12.496-2.11-17.14c-4.213-4.638-11.062-6.171-16.85-3.78C62.849,169.596,58.945,176.785,60.38,183.701z"/>
</g>
</svg>
