<?xml version="1.0" encoding="utf-8"?>
<!-- Generator: Adobe Illustrator 16.0.0, SVG Export Plug-In . SVG Version: 6.00 Build 0)  -->
<!DOCTYPE svg PUBLIC "-//W3C//DTD SVG 1.1//EN" "http://www.w3.org/Graphics/SVG/1.1/DTD/svg11.dtd">
<svg version="1.1" id="Layer_1" xmlns="http://www.w3.org/2000/svg" xmlns:xlink="http://www.w3.org/1999/xlink" x="0px" y="0px"
	 width="512px" height="512px" viewBox="0 0 512 512" enable-background="new 0 0 512 512" xml:space="preserve">
<path fill="#FF9933" d="M474.941,464.83c-5.756-26.366-35.785-128.908-151.118-165.527c12.251-7.707,23.111-17.43,32.098-28.713
	h44.861c26.004,0,47.158-21.155,47.158-47.157v-64.287c0-10.897-3.726-20.934-9.955-28.928
	C377.848-43.255,134.652-43.558,74.291,130.22c-6.229,7.994-9.953,18.03-9.953,28.926v64.287c0,26.003,21.155,47.157,47.157,47.157
	h44.862c8.986,11.283,19.847,21.007,32.098,28.713C73.165,335.9,42.926,438.414,37.112,464.736
	C32.055,486.989,48.816,512,75.382,512c78.184,0,285.872,0,361.512-0.241C462.8,511.758,479.863,487.796,474.941,464.83
	L474.941,464.83z M417.911,159.146v64.287c0,9.444-7.684,17.127-17.128,17.127h-27.002c13.13-30.773,13.13-67.769,0-98.542h27.002
	C410.228,142.017,417.911,149.701,417.911,159.146z M138.498,240.56h-27.003c-9.444,0-17.127-7.684-17.127-17.127v-64.287
	c0-9.445,7.684-17.128,17.127-17.128h27.003C125.367,172.791,125.367,209.786,138.498,240.56z M115.505,111.987
	c60.264-109.688,221.037-109.612,281.269,0h-40.854c-49.07-63.844-150.518-63.82-199.564,0H115.505z M158.653,191.288
	c0-53.753,43.731-97.485,97.485-97.485c66.28-1.291,115.254,69.085,91.662,130.686h-59.518c-19.892,0.735-19.894,29.295,0,30.03
	h41.992C272.584,322.797,158.656,281.746,158.653,191.288z M443.763,478.468c-1.687,2.072-4.19,3.261-6.915,3.261
	c-75.642,0.241-283.293,0.241-361.465,0.241c-5.54,0.138-10.158-5.433-8.922-10.874c46.33-199.67,330.504-204.088,379.119,0.035
	C446.101,473.736,445.44,476.407,443.763,478.468L443.763,478.468z"/>
</svg>
