<?xml version="1.0" encoding="utf-8"?>
<!-- Generator: Adobe Illustrator 16.0.0, SVG Export Plug-In . SVG Version: 6.00 Build 0)  -->
<!DOCTYPE svg PUBLIC "-//W3C//DTD SVG 1.1//EN" "http://www.w3.org/Graphics/SVG/1.1/DTD/svg11.dtd">
<svg version="1.1" id="레이어_1" xmlns="http://www.w3.org/2000/svg" xmlns:xlink="http://www.w3.org/1999/xlink" x="0px"
	 y="0px" width="512px" height="512px" viewBox="0 0 512 512" enable-background="new 0 0 512 512" xml:space="preserve">
<g>
	<path fill="#FF9933" stroke="#FF9933" stroke-width="5" stroke-miterlimit="10" d="M476,40H100c-15.457,0.017-27.983,12.543-28,28
		v76H36c-15.457,0.017-27.983,12.543-28,28v216c0.017,15.457,12.543,27.982,28,28h20v56c-0.003,4.418,3.575,8.003,7.994,8.006
		c2.125,0.002,4.164-0.842,5.667-2.346L131.31,416H364c15.457-0.018,27.982-12.543,28-28v-16.689l50.34,50.35
		c3.123,3.126,8.188,3.129,11.313,0.006c1.504-1.502,2.349-3.541,2.347-5.666v-56h20c15.457-0.018,27.982-12.543,28-28V68
		C503.982,52.543,491.457,40.017,476,40z M376,388c-0.006,6.625-5.375,11.994-12,12H128c-2.122-0.001-4.158,0.841-5.66,2.34
		L72,452.69V408c0-4.418-3.582-8-8-8H36c-6.625-0.006-11.995-5.375-12-12V172c0.005-6.625,5.375-11.995,12-12h36v172
		c0.017,15.457,12.543,27.982,28,28h276V388z M488,332c-0.006,6.625-5.375,11.994-12,12h-28c-4.418,0-8,3.582-8,8v44.689
		l-50.34-50.35c-1.502-1.499-3.538-2.341-5.66-2.34H100c-6.625-0.006-11.995-5.375-12-12V68c0.005-6.625,5.375-11.995,12-12h376
		c6.625,0.005,11.994,5.375,12,12V332z"/>
	<path fill="#FF9933" stroke="#FF9933" stroke-width="5" stroke-miterlimit="10" d="M431.76,246.06l-24-96
		c-0.89-3.561-4.089-6.06-7.76-6.06h-16c-3.671,0-6.87,2.499-7.76,6.06l-24,96c-0.998,4.304,1.683,8.602,5.986,9.6
		c4.2,0.974,8.416-1.556,9.533-5.72l8.49-33.94h31.5l8.49,33.94c0.889,3.558,4.083,6.055,7.75,6.06
		c0.657-0.001,1.312-0.082,1.95-0.24c4.283-1.068,6.89-5.407,5.822-9.69C431.762,246.066,431.761,246.063,431.76,246.06z
		 M380.25,200l10-40h3.5l10,40H380.25z"/>
	<path fill="#FF9933" stroke="#FF9933" stroke-width="5" stroke-miterlimit="10" d="M342.4,243.2L321.8,215.73l12.86-19.29
		c2.452-3.678,1.458-8.648-2.22-11.1c-3.679-2.452-8.648-1.458-11.101,2.22l-8.66,12.99c-3.58-5.66-8.46-12.15-14.38-17.05
		c8.563-10.112,7.307-25.25-2.806-33.812c-10.111-8.563-25.25-7.307-33.812,2.805c-6.925,8.177-7.587,19.955-1.622,28.857
		c-19.146,11.004-25.746,35.445-14.742,54.59c7.135,12.414,20.363,20.065,34.682,20.06c14.66,0,26.35-14.36,33.09-25.21l16.51,22.01
		c2.648,3.537,7.662,4.258,11.199,1.61s4.258-7.662,1.609-11.199C342.405,243.208,342.402,243.204,342.4,243.2z M280,160
		c4.418,0,8,3.582,8,8s-3.582,8-8,8s-8-3.582-8-8C272.006,163.584,275.584,160.006,280,160z M280,240c-13.255,0-24-10.745-24-24
		s10.745-24,24-24c7.67,0,17.62,13.32,23.12,24C297.62,226.68,287.67,240,280,240z"/>
	<path fill="#FF9933" stroke="#FF9933" stroke-width="5" stroke-miterlimit="10" d="M236.78,250.46l-8.39-8.74
		c2.372-4.184,3.616-8.911,3.61-13.72v-56c-0.017-15.457-12.543-27.983-28-28h-24c-15.457,0.017-27.983,12.543-28,28v56
		c0.017,15.457,12.543,27.983,28,28h24c4.489,0.002,8.911-1.083,12.89-3.16l8.33,8.7c3.06,3.192,8.127,3.3,11.32,0.239
		C239.732,258.721,239.84,253.652,236.78,250.46L236.78,250.46z M216,228c0,0.25-0.02,0.5-0.04,0.75l-2.18-2.29
		c-3.06-3.192-8.127-3.3-11.32-0.24c-3.192,3.06-3.3,8.127-0.24,11.32l2.34,2.43c-0.19,0.01-0.37,0.03-0.56,0.03h-24
		c-6.625-0.005-11.995-5.375-12-12v-56c0.005-6.625,5.375-11.995,12-12h24c6.625,0.005,11.995,5.375,12,12V228z"/>
</g>
</svg>
