<?xml version="1.0" encoding="utf-8"?>
<!-- Generator: Adobe Illustrator 16.0.0, SVG Export Plug-In . SVG Version: 6.00 Build 0)  -->
<!DOCTYPE svg PUBLIC "-//W3C//DTD SVG 1.1//EN" "http://www.w3.org/Graphics/SVG/1.1/DTD/svg11.dtd">
<svg version="1.1" id="Capa_1" xmlns="http://www.w3.org/2000/svg" xmlns:xlink="http://www.w3.org/1999/xlink" x="0px" y="0px"
	 width="100px" height="100px" viewBox="0 0 100 100" enable-background="new 0 0 100 100" xml:space="preserve">
<g>
	<g>
		<g>
			<path fill="#F79026" d="M50.642,37.112c-5.634,0-10.201,4.567-10.201,10.201c0,5.633,4.567,10.201,10.201,10.201
				s10.2-4.566,10.2-10.201C60.842,41.679,56.275,37.112,50.642,37.112z M50.642,52.656c-2.951,0-5.343-2.393-5.343-5.344
				c0-2.951,2.392-5.343,5.343-5.343l0,0c2.95,0,5.343,2.393,5.343,5.343C55.984,50.264,53.592,52.656,50.642,52.656z"/>
			<path fill="#F79026" d="M91.322,13.796L25.019,6.268c-2.573-0.366-5.181,0.386-7.165,2.064c-1.984,1.539-3.255,3.819-3.521,6.315
				l-1.214,9.958H9.354c-5.343,0-9.351,4.736-9.351,10.079V84.35c-0.135,5.096,3.887,9.336,8.982,9.471
				c0.123,0.003,0.246,0.004,0.369,0.002h66.667c5.344,0,10.201-4.129,10.201-9.473v-1.942c1.656-0.319,3.228-0.981,4.613-1.942
				c1.969-1.657,3.229-4.003,3.521-6.558l5.587-49.303C100.514,19.249,96.67,14.431,91.322,13.796z M81.365,84.35
				c0,2.672-2.672,4.615-5.344,4.615H9.354c-2.414,0.07-4.427-1.828-4.498-4.242C4.852,84.6,4.854,84.475,4.861,84.35v-8.985
				l18.822-13.844c2.261-1.735,5.446-1.581,7.529,0.364l13.237,11.658c2.01,1.688,4.54,2.631,7.165,2.671
				c2.052,0.025,4.07-0.521,5.829-1.579l23.923-13.843V84.35L81.365,84.35z M81.365,55.084L54.892,70.507
				c-2.272,1.347-5.15,1.103-7.165-0.607L34.369,58.12c-3.828-3.29-9.424-3.491-13.479-0.485L4.861,69.292V34.684
				c0-2.672,1.821-5.222,4.493-5.222h66.667c2.854,0.118,5.159,2.371,5.344,5.222V55.084z M95.092,23.949
				c-0.002,0.016-0.004,0.032-0.006,0.048L89.379,73.3c0.01,1.278-0.572,2.489-1.578,3.278c-0.486,0.486-1.579,0.729-1.579,0.972
				V34.684c-0.191-5.532-4.667-9.954-10.2-10.079H17.976l1.093-9.472c0.237-1.227,0.878-2.338,1.821-3.158
				c1.065-0.736,2.353-1.08,3.643-0.971l66.182,7.65C93.386,18.908,95.346,21.278,95.092,23.949z"/>
		</g>
	</g>
</g>
</svg>
