<?xml version="1.0" encoding="utf-8"?>
<!-- Generator: Adobe Illustrator 16.0.0, SVG Export Plug-In . SVG Version: 6.00 Build 0)  -->
<!DOCTYPE svg PUBLIC "-//W3C//DTD SVG 1.1//EN" "http://www.w3.org/Graphics/SVG/1.1/DTD/svg11.dtd">
<svg version="1.1" id="레이어_1" xmlns="http://www.w3.org/2000/svg" xmlns:xlink="http://www.w3.org/1999/xlink" x="0px"
	 y="0px" width="192px" height="70px" viewBox="-40.725 -15.155 192 70" enable-background="new -40.725 -15.155 192 70"
	 xml:space="preserve">
<g>
	<g>
		<g>
			<g>
				<g>
					<path fill="#FFFFFF" d="M-31.957,23.793c-2.226,0-4.342,0.874-4.342,2.626c0,1.754,2.115,2.629,4.342,2.629
						c2.228,0,4.341-0.875,4.341-2.629C-27.613,24.693-29.764,23.793-31.957,23.793z M-31.957,27.81
						c-1.27,0-2.505-0.522-2.505-1.391c0-0.867,1.236-1.387,2.505-1.387c1.269,0,2.507,0.52,2.507,1.387
						C-29.45,27.287-30.686,27.81-31.957,27.81z"/>
					<path fill="#FFFFFF" d="M-25.468,22.066h-12.99c-0.053,0.175-0.014,0.402,0.055,0.6c0.098,0.267,0.301,0.552,0.493,0.613
						h11.879c0.193-0.063,0.431-0.365,0.52-0.637C-25.423,22.368-25.393,22.188-25.468,22.066z"/>
					<path fill="#FFFFFF" d="M-36.473,18.004h1.419c-0.334,0.313-0.539,0.698-0.539,1.155c0,1.562,1.603,2.399,3.636,2.399
						c2.034,0,3.639-0.835,3.639-2.399c0-0.457-0.213-0.842-0.56-1.155h1.405c0.191-0.064,0.433-0.363,0.521-0.638
						c0.093-0.278,0.119-0.448,0.043-0.574H-37.02c-0.055,0.175-0.012,0.404,0.056,0.599
						C-36.867,17.658-36.662,17.945-36.473,18.004z M-30.081,19.159c0,0.678-0.796,1.16-1.875,1.16c-1.077,0-1.875-0.484-1.875-1.16
						c0-0.674,0.798-1.155,1.875-1.155C-30.877,18.004-30.081,18.485-30.081,19.159z"/>
					<path fill="#FFFFFF" d="M-33.88,16.239h3.816c0.195-0.066,0.433-0.365,0.522-0.64c0.088-0.278,0.118-0.448,0.042-0.572h-4.927
						c-0.054,0.175-0.016,0.402,0.057,0.6C-34.274,15.884-34.069,16.177-33.88,16.239z"/>
				</g>
				<path fill="#FFFFFF" d="M-13.667,15.35h-0.003h-1.913c-0.066,0-0.118,0.064-0.118,0.145c0,0.085,0.055,0.124,0.118,0.154
					c0.005,0,0.023,0.007,0.045,0.014c0.113,0.039,0.353,0.117,0.353,0.508l0,0c0.007,0.06,0.007,12.034,0.007,12.034
					s0.162,0.021,0.267,0.021c0.863,0,1.467-0.326,1.59-0.774V15.722C-13.323,15.502-13.45,15.369-13.667,15.35"/>
				<g>
					<path fill="#FFFFFF" d="M-2.586,15.649c0.012,0,0.026,0.007,0.048,0.014c0.115,0.039,0.356,0.117,0.356,0.508
						c0.007,0.06,0,8.281,0,8.281s0.171,0.019,0.27,0.019c0.863,0,1.47-0.327,1.592-0.774v-7.973c0-0.221-0.126-0.354-0.342-0.37
						h-0.007h-1.913c-0.068,0-0.12,0.064-0.12,0.144C-2.701,15.58-2.646,15.619-2.586,15.649z"/>
					<path fill="#FFFFFF" d="M-4.354,23.125c0.131,0.126,0.237,0.151,0.419-0.032c0.184-0.182,0.775-0.769,0.775-0.769
						c0.078-0.078,0.111-0.149,0.11-0.228c-0.01-0.078-0.054-0.145-0.138-0.209c-0.577-0.469-1.795-1.211-2.995-1.837
						c1.17-1.251,1.717-2.661,1.818-3.148c0.082-0.443,0-0.672-0.469-0.672h-5.615c-0.058,0.171-0.014,0.406,0.054,0.599
						c0.098,0.262,0.303,0.547,0.496,0.613l0,0h3.338c-0.355,1.5-2.236,3.573-4.55,4.733c-0.245,0.117-0.21,0.261,0.036,0.449
						l0.426,0.381c0.073,0.071,0.157,0.127,0.346,0.056c0.978-0.365,2.123-1.145,3.311-2.226
						C-5.937,21.622-4.466,23.024-4.354,23.125z"/>
					<path fill="#FFFFFF" d="M-0.188,27.269h-6.27v-2.946c0-0.229-0.127-0.36-0.346-0.374l-0.003-0.006H-8.72
						c-0.066,0-0.117,0.065-0.117,0.144c0,0.085,0.058,0.121,0.117,0.156c0.007,0.007,0.022,0.007,0.045,0.021
						c0.113,0.032,0.358,0.11,0.358,0.503c0.003,0.056,0,2.912,0,2.933l0,0c0,0.436,0.299,0.78,0.775,0.78h0.194h0.031h6.56
						c0.192-0.056,0.432-0.364,0.522-0.63C-0.142,27.568-0.116,27.391-0.188,27.269z"/>
				</g>
				<g>
					<path fill="#FFFFFF" d="M10.275,15.649c0.013,0,0.026,0.007,0.048,0.014c0.114,0.039,0.356,0.117,0.356,0.508
						c0.007,0.06,0,8.281,0,8.281s0.167,0.019,0.275,0.019c0.862,0,1.467-0.327,1.589-0.774v-7.973c0-0.221-0.127-0.354-0.346-0.37
						h-0.002h-1.911c-0.066,0-0.12,0.064-0.12,0.144C10.162,15.58,10.216,15.619,10.275,15.649z"/>
					<path fill="#FFFFFF" d="M8.508,23.125c0.127,0.126,0.235,0.151,0.418-0.032c0.184-0.182,0.775-0.769,0.775-0.769
						c0.078-0.078,0.11-0.149,0.104-0.228c-0.007-0.078-0.045-0.145-0.131-0.209c-0.581-0.469-1.801-1.211-3.004-1.837
						c1.174-1.251,1.724-2.661,1.824-3.148c0.078-0.443,0-0.672-0.473-0.672H2.408c-0.053,0.171-0.013,0.406,0.057,0.599
						c0.098,0.262,0.302,0.547,0.491,0.613l0,0h3.343c-0.358,1.5-2.236,3.573-4.554,4.733c-0.243,0.117-0.205,0.261,0.037,0.449
						l0.428,0.381c0.071,0.071,0.159,0.127,0.345,0.056c0.976-0.365,2.123-1.145,3.312-2.226
						C6.917,21.622,8.396,23.024,8.508,23.125z"/>
					<path fill="#FFFFFF" d="M12.676,27.269H6.405v-2.946c0-0.229-0.131-0.36-0.354-0.374v-0.006h-1.91
						c-0.069,0-0.121,0.065-0.121,0.144c0,0.085,0.056,0.121,0.118,0.156c0.009,0.007,0.021,0.007,0.046,0.021
						c0.113,0.032,0.356,0.11,0.356,0.503c0.005,0.056,0,2.912,0,2.933l0,0c0,0.436,0.302,0.78,0.779,0.78h0.199h0.025h6.566
						c0.191-0.056,0.431-0.364,0.521-0.63C12.721,27.568,12.748,27.391,12.676,27.269z"/>
				</g>
				<path fill="#FFFFFF" d="M-17.868,16.232h-6.172c-0.068,0-0.121,0.06-0.121,0.145c0,0.084,0.056,0.124,0.115,0.147
					c0.013,0.007,0.026,0.012,0.049,0.019c0.113,0.041,0.355,0.119,0.355,0.511c0.007,0.053,0,6.948,0,6.948
					c0,0.437,0.3,0.781,0.775,0.781h5.772v-7.768C-17.094,16.576-17.395,16.232-17.868,16.232z M-18.955,23.569h-2.822v-6.125h2.822
					V23.569z"/>
			</g>
			<g>
				<g>
					<path fill="#FFFFFF" d="M12.09,41.759c0.031,0.063,0.083,0.09,0.169,0.09c0.033,0,0.073-0.005,0.111-0.012
						c0.528-0.117,3.644-0.947,6.499-2.542c1.622,0.547,3.723,1.625,5.131,2.285c0.228,0.117,0.448,0.218,0.657,0.323
						c0.085,0.032,0.164,0.056,0.231,0.049c0.134-0.007,0.252-0.099,0.336-0.26l0.808-1.414c0.073-0.145,0.093-0.258,0.052-0.358
						c-0.037-0.101-0.123-0.184-0.264-0.236c-1.025-0.45-3.288-1.124-5.143-1.554c2.196-1.633,3.343-3.374,3.439-3.603
						c0.118-0.267,0.098-0.48,0-0.644c-0.127-0.209-0.332-0.294-0.756-0.294H12.625c-0.078,0.246-0.02,0.579,0.08,0.853
						c0.138,0.377,0.431,0.788,0.701,0.881l0,0l7.125,0.005c-1.24,1.819-5.463,3.985-9.101,5.008c-0.183,0.053-0.263,0.2-0.13,0.377
						C11.435,40.885,12.09,41.759,12.09,41.759z"/>
					<path fill="#FFFFFF" d="M27.978,42.945H9.402c-0.073,0.247-0.021,0.582,0.085,0.854c0.138,0.379,0.43,0.791,0.699,0.882h7.15
						v7.092c0,0,0.234,0.034,0.383,0.034c1.241-0.007,2.097-0.464,2.27-1.108V44.68h7.181c0.278-0.091,0.616-0.521,0.743-0.912
						C28.043,43.368,28.083,43.119,27.978,42.945z"/>
				</g>
				<g>
					<path fill="#FFFFFF" d="M-1.089,44.041c-3.179,0-6.019,1.479-6.019,4.26c0,2.787,2.84,4.266,6.019,4.266
						c3.186,0,6.027-1.48,6.027-4.266C4.938,45.559,2.046,44.041-1.089,44.041z M-1.089,50.794c-1.813,0-3.401-0.979-3.401-2.493
						c0-1.508,1.587-2.489,3.401-2.489s3.399,0.98,3.399,2.489C2.31,49.816,0.724,50.794-1.089,50.794z"/>
					<path fill="#FFFFFF" d="M8.378,41.364H4.218c0.354-1.05,0.98-3.602,0.98-5.542v-1.404c0-0.581-0.259-0.827-0.887-0.827H-7.324
						c-0.078,0.246-0.023,0.579,0.078,0.853c0.141,0.377,0.43,0.788,0.705,0.881h8.683c0.353,0,0.353,0,0.353,0.338v0.559
						c0,1.461-0.486,4.544-0.572,5.14h-2.877v-3.718c0-0.293-0.164-0.457-0.458-0.457h-2.776c-0.091,0-0.164,0.087-0.164,0.209
						c0,0.117,0.073,0.177,0.164,0.222c0.012,0,0.038,0.014,0.065,0.021c0.166,0.052,0.511,0.163,0.511,0.729h0.004v2.995h-6.584
						c-0.075,0.245-0.021,0.579,0.083,0.857c0.138,0.372,0.431,0.79,0.703,0.873H7.571c0.28-0.09,0.619-0.52,0.746-0.91
						C8.446,41.782,8.49,41.536,8.378,41.364z"/>
				</g>
			</g>
		</g>
		<g>
			<path fill="#FFFFFF" d="M44.313,9.263c0.652,0.669,1.2,1.435,1.629,2.267l6.917-3.445c-0.799-1.579-1.829-3.012-3.061-4.271
				L44.313,9.263z"/>
			<path fill="#FFFFFF" d="M30.71-1.441l3.408,8.486c0.343-0.139,0.688-0.248,1.024-0.339l-2.237-8.865
				C32.18-1.976,31.444-1.735,30.71-1.441z"/>
			<path fill="#FFFFFF" d="M43.442,8.474l5.791-7.079c-0.738-0.601-1.538-1.155-2.378-1.644l-4.543,7.939
				C42.709,7.927,43.087,8.187,43.442,8.474z"/>
			<path fill="#FFFFFF" d="M46.415,12.605c0.144,0.406,0.264,0.813,0.354,1.238l8.253-1.694c-0.177-0.848-0.417-1.689-0.721-2.503
				L46.415,12.605z"/>
			<path fill="#FFFFFF" d="M22.549,7.49l6.776,3.722c0.445-0.796,1.007-1.52,1.666-2.158l-5.31-5.614
				C24.436,4.635,23.383,5.994,22.549,7.49z"/>
			<path fill="#FFFFFF" d="M20.043,15.836c0,0.898,0.067,1.812,0.207,2.717l7.97-1.299c-0.068-0.468-0.104-0.944-0.104-1.417
				c0-1.233,0.233-2.435,0.696-3.576l-7.44-3.136C20.487,11.255,20.043,13.513,20.043,15.836z"/>
			<path fill="#FFFFFF" d="M26.756,1.609l5.127,6.683c0.373-0.28,0.762-0.536,1.17-0.755l-3.932-7.447
				C28.299,0.527,27.503,1.043,26.756,1.609z"/>
			<path fill="#FFFFFF" d="M43.845,22.854l5.563,6.323c1.878-1.669,3.41-3.756,4.435-6.045l-7.71-3.404
				C45.594,20.925,44.824,21.971,43.845,22.854z"/>
			<path fill="#FFFFFF" d="M32.053,32.092l2.429-7.342c-2.19-0.75-4.021-2.275-5.162-4.304l-6.784,3.711
				C24.618,27.906,27.994,30.722,32.053,32.092z"/>
			<path fill="#FFFFFF" d="M19.638,20.794c0.202,0.735,0.449,1.446,0.731,2.133l8.44-3.535c-0.131-0.319-0.244-0.652-0.338-0.99
				L19.638,20.794z"/>
			<path fill="#FFFFFF" d="M46.978,15.931l9.143,0.188c0-0.036,0.003-0.059,0.003-0.084c0.004-0.065,0.004-0.138,0.004-0.201
				c0-0.563-0.026-1.143-0.083-1.73l-9.102,0.9c0.026,0.287,0.037,0.563,0.037,0.832c0,0.03,0,0.054,0,0.082v0.013H46.978z"/>
			<path fill="#FFFFFF" d="M37.545,6.401c1.286,0,2.539,0.256,3.719,0.762l3.123-7.074c-2.168-0.938-4.471-1.419-6.842-1.419
				c-0.768,0-1.561,0.061-2.356,0.17l1.105,7.647C36.718,6.426,37.139,6.401,37.545,6.401z"/>
			<path fill="#FFFFFF" d="M53.914,21.01c0.299-0.946,0.52-1.943,0.65-2.957l-7.67-0.949c-0.073,0.52-0.186,1.043-0.339,1.532
				L53.914,21.01z"/>
			<path fill="#FFFFFF" d="M35.648,34.322l0.887-9.105c-0.305-0.036-0.614-0.085-0.924-0.151l-1.963,8.937
				C34.32,34.144,34.991,34.249,35.648,34.322z"/>
			<path fill="#FFFFFF" d="M37.705,25.26l0.054,8.077c1.877-0.022,3.719-0.338,5.482-0.946l-2.674-7.618
				C39.647,25.076,38.686,25.246,37.705,25.26z"/>
			<path fill="#FFFFFF" d="M41.654,24.329l3.91,8.27c0.911-0.436,1.81-0.963,2.659-1.561l-5.3-7.46
				C42.52,23.865,42.092,24.112,41.654,24.329z"/>
			<path fill="#FFFFFF" d="M37.545,8.365c-4.118,0-7.466,3.349-7.466,7.471c0,4.119,3.35,7.468,7.466,7.468
				c4.12,0,7.471-3.349,7.471-7.468C45.017,11.712,41.666,8.365,37.545,8.365z M37.545,21.086c-2.898,0-5.254-2.352-5.254-5.25
				c0-2.897,2.356-5.255,5.254-5.255s5.254,2.358,5.254,5.255C42.8,18.735,40.444,21.086,37.545,21.086z"/>
		</g>
		<g>
			<path fill="#FFFFFF" d="M8.651,7.195l0.76-5.196c-1.56-0.273-2.882-1.284-3.549-2.718L1.044,1.373
				C2.441,4.477,5.281,6.657,8.651,7.195z"/>
			<path fill="#FFFFFF" d="M6.723-12.243c-0.239,0.092-0.486,0.195-0.75,0.319l2.29,4.727c0.094-0.046,0.193-0.092,0.293-0.125
				c0.333-0.123,0.689-0.212,1.066-0.26l-0.536-5.23C8.281-12.72,7.486-12.53,6.723-12.243z"/>
			<path fill="#FFFFFF" d="M13.977-5.888c0.218,0.26,0.403,0.54,0.561,0.827l5.258-2.613c-0.392-0.754-0.868-1.465-1.42-2.105
				L13.977-5.888z"/>
			<path fill="#FFFFFF" d="M4.259-11.924c-0.657,0.431-1.271,0.932-1.815,1.493l4.396,4.202c0.216-0.208,0.447-0.396,0.69-0.567
				L4.259-11.924z"/>
			<path fill="#FFFFFF" d="M11.953,1.774c-0.536,0.193-1.104,0.299-1.683,0.299h-0.02l-0.163,5.247
				c1.261,0.019,2.512-0.187,3.698-0.632c0.563-0.207,1.122-0.474,1.645-0.796l-2.754-4.464C12.427,1.572,12.188,1.68,11.953,1.774z
				"/>
			<path fill="#FFFFFF" d="M13.388-6.487l3.505-3.904c-1.769-1.542-4.025-2.423-6.371-2.486l-0.066,5.255
				C11.528-7.582,12.565-7.178,13.388-6.487z"/>
			<path fill="#FFFFFF" d="M-0.418-1.748c0.061,0.652,0.188,1.304,0.374,1.949L5.57-1.502c-0.063-0.24-0.111-0.487-0.138-0.737
				L-0.418-1.748z"/>
			<path fill="#FFFFFF" d="M19.805-6.071l-4.941,1.786c0.424,1.289,0.286,2.703-0.383,3.894l4.491,2.71
				C20.462-0.23,20.767-3.281,19.805-6.071z"/>
			<path fill="#FFFFFF" d="M5.405-3.076c0.061-0.908,0.366-1.774,0.89-2.513L2.106-8.756C0.928-7.137,0.25-5.236,0.158-3.247
				L5.405-3.076z"/>
			<path fill="#FFFFFF" d="M13.363,0.945l3.771,4.778c0.626-0.509,1.189-1.077,1.682-1.701l-4.81-3.724
				C13.811,0.532,13.596,0.746,13.363,0.945z"/>
		</g>
	</g>
	<g>
		<g>
			<path fill="#FFFFFF" d="M84.938,22.02v1.921h-8.094v3.908h-2.381v-3.908h-8.466V22.02H84.938z M70.694,30.045h12.139v1.942H68.31
				V25.95h2.383L70.694,30.045L70.694,30.045z M82.487,19.962H68.404v-7.539h14.083V19.962z M80.15,14.318h-9.41v3.746h9.41V14.318z
				"/>
			<path fill="#FFFFFF" d="M94.824,26.508c1.779-0.096,3.563-0.211,5.227-0.464l0.184,1.758c-4.461,0.784-9.295,0.832-12.879,0.832
				l-0.324-1.969c1.592,0,3.467,0,5.409-0.067v-2.036c-2.313-0.392-3.817-1.803-3.817-3.793c0-2.357,2.038-3.909,5.02-3.909
				c2.961,0,4.995,1.55,4.995,3.909c0,1.99-1.501,3.425-3.813,3.793V26.508z M99.821,15.823h-12.42v-1.92h5.041v-2.335h2.382v2.335
				h4.996L99.821,15.823L99.821,15.823z M93.646,22.83c1.64,0,2.75-0.786,2.75-2.06c0-1.296-1.11-2.081-2.75-2.081
				c-1.641,0-2.774,0.786-2.774,2.081C90.872,22.042,92.003,22.83,93.646,22.83z M106.572,22.181h-2.959v10.198h-2.381V11.472h2.381
				v8.743h2.959V22.181z"/>
			<path fill="#FFFFFF" d="M121.479,23.222c-4.349,0.761-9.274,0.88-12.905,0.88l-0.254-1.942c1.249,0,2.683,0,4.165-0.048v-4.277
				h2.358v4.209c2.173-0.094,4.418-0.231,6.473-0.556L121.479,23.222z M117.248,20.193c0.414-2.245,0.482-3.887,0.506-5.181h-8.162
				v-1.941h10.5v1.202c0,1.413,0,3.471-0.509,6.174L117.248,20.193z M113.871,30.045h11.792v1.942h-14.198v-6.198h2.406V30.045z
				 M127.768,18.112v1.964h-2.774v7.101h-2.408V11.496h2.408v6.616H127.768z"/>
			<path fill="#FFFFFF" d="M142.744,22.389c-4.35,0.718-9.182,0.833-12.904,0.833l-0.255-1.942c1.271,0,2.705,0,4.162-0.021v-3.957
				h2.358v3.885c2.174-0.094,4.418-0.231,6.477-0.508L142.744,22.389z M138.509,19.359c0.395-1.988,0.466-3.491,0.485-4.717h-8.14
				v-1.946h10.475v1.251c0,1.34,0,3.214-0.509,5.617L138.509,19.359z M146.418,28.492c0,2.43-2.706,3.863-7.077,3.863
				c-4.323,0-7.029-1.432-7.029-3.863c0-2.426,2.706-3.861,7.029-3.861C143.713,24.633,146.418,26.067,146.418,28.492z
				 M143.991,28.492c0-1.292-1.71-1.986-4.649-1.986c-2.89,0-4.6,0.692-4.6,1.986c0,1.296,1.71,1.992,4.6,1.992
				C142.279,30.485,143.991,29.788,143.991,28.492z M149.032,16.955v1.965h-2.774v5.479h-2.406V11.472h2.406v5.482H149.032z"/>
		</g>
	</g>
</g>
</svg>
