<?xml version="1.0" encoding="utf-8"?>
<!-- Generator: Adobe Illustrator 16.0.0, SVG Export Plug-In . SVG Version: 6.00 Build 0)  -->
<!DOCTYPE svg PUBLIC "-//W3C//DTD SVG 1.1//EN" "http://www.w3.org/Graphics/SVG/1.1/DTD/svg11.dtd">
<svg version="1.1" id="Capa_1" xmlns="http://www.w3.org/2000/svg" xmlns:xlink="http://www.w3.org/1999/xlink" x="0px" y="0px"
	 width="39.689px" height="39.689px" viewBox="35.43 0 39.689 39.689" enable-background="new 35.43 0 39.689 39.689"
	 xml:space="preserve">
<g>
	<g>
		<path fill="#FFFFFF" d="M55.275,0C44.462,0,35.43,9.002,35.43,19.845c0,5.23,2.083,10.194,5.867,13.978
			c3.783,3.784,8.748,5.867,13.978,5.867c10.855,0,19.845-9.044,19.845-19.845C75.12,9.032,66.117,0,55.275,0z M67.609,32.178
			c-3.346,3.345-7.725,5.187-12.334,5.187c-4.609,0-8.989-1.842-12.333-5.187c-3.345-3.344-5.187-7.724-5.187-12.333
			c0-9.545,7.982-17.52,17.52-17.52c4.609,0,8.988,1.842,12.334,5.187C74.524,14.428,74.524,25.262,67.609,32.178z"/>
	</g>
</g>
<g>
	<g>
		<path fill="#FFFFFF" d="M68.642,23.487l-8.139-4.651c-0.36-0.205-0.803-0.204-1.161,0.004s-0.579,0.592-0.579,1.006v1.163h-2.326
			v-4.651h3.489c0.957,0,1.503-1.097,0.931-1.86l-6.978-9.303c-0.465-0.62-1.396-0.619-1.86,0l-6.977,9.303
			c-0.575,0.766-0.025,1.86,0.93,1.86h3.488v15.116c0,0.643,0.521,1.163,1.163,1.163h4.651c0.643,0,1.162-0.521,1.162-1.163v-3.488
			h2.326v1.163c0,0.89,0.965,1.452,1.74,1.009l8.139-4.65C69.422,25.06,69.423,23.933,68.642,23.487z M61.089,27.144v-0.322
			c0-0.642-0.521-1.162-1.163-1.162h-4.651c-0.642,0-1.163,0.521-1.163,1.162v3.488h-2.326V15.194c0-0.642-0.521-1.162-1.163-1.162
			h-2.325l4.651-6.202l4.652,6.202h-2.326c-0.642,0-1.163,0.521-1.163,1.162v6.977c0,0.643,0.521,1.163,1.163,1.163h4.651
			c0.642,0,1.163-0.521,1.163-1.163v-0.321l4.633,2.647L61.089,27.144z"/>
	</g>
</g>
</svg>
