<?xml version="1.0" encoding="utf-8"?>
<!-- Generator: Adobe Illustrator 16.0.0, SVG Export Plug-In . SVG Version: 6.00 Build 0)  -->
<!DOCTYPE svg PUBLIC "-//W3C//DTD SVG 1.1//EN" "http://www.w3.org/Graphics/SVG/1.1/DTD/svg11.dtd">
<svg version="1.1" id="Capa_1" xmlns="http://www.w3.org/2000/svg" xmlns:xlink="http://www.w3.org/1999/xlink" x="0px" y="0px"
	 width="39.69px" height="39.689px" viewBox="35.43 0 39.69 39.689" enable-background="new 35.43 0 39.69 39.689"
	 xml:space="preserve">
<g>
	<path fill="#FFFFFF" d="M73.977,29.753l-5.736-5.738c-0.771-0.767-1.802-1.189-2.904-1.189c-1.147,0-2.23,0.452-3.05,1.271
		l-2.232,2.232c-1.735-0.964-4.041-2.291-6.436-4.686c-2.392-2.392-3.718-4.691-4.688-6.437l2.235-2.233
		c1.662-1.665,1.696-4.336,0.076-5.955l-5.735-5.735c-0.768-0.771-1.8-1.194-2.905-1.194c-1.122,0-2.182,0.432-2.997,1.218
		c-0.493,0.396-2.964,2.579-3.886,7.079c-1.29,6.299,1.674,12.359,10.229,20.918c9.557,9.555,17.716,10.297,19.99,10.297
		c0.474,0,0.759-0.028,0.835-0.038c4.457-0.522,6.053-2.502,7.219-3.947C75.501,33.742,75.496,31.278,73.977,29.753z M72.074,34.07
		c-1.096,1.359-2.13,2.642-5.588,3.047c-0.002,0.001-0.19,0.021-0.548,0.021c-2.034,0-9.36-0.69-18.248-9.575
		C39.8,19.669,37.031,14.256,38.131,8.88c0.804-3.926,2.937-5.594,3.02-5.657l0.074-0.055l0.064-0.064
		c0.356-0.355,0.822-0.552,1.312-0.552c0.446,0,0.858,0.167,1.163,0.472L49.5,8.761c0.66,0.659,0.625,1.769-0.078,2.473
		l-2.528,2.525l-0.042,0.044c-0.659,0.726-0.581,1.706-0.218,2.345c1.047,1.89,2.481,4.477,5.241,7.237
		c2.75,2.751,5.334,4.184,7.219,5.229c0.188,0.106,0.578,0.284,1.065,0.284c0.575,0,1.104-0.244,1.495-0.688l2.373-2.371
		c0.354-0.354,0.818-0.55,1.307-0.55c0.447,0,0.862,0.168,1.166,0.47l5.732,5.735C72.962,32.224,72.662,33.341,72.074,34.07z"/>
	<path fill="#FFFFFF" d="M59.475,6.123c2.116,0.243,4.607,1.525,6.347,3.265c1.757,1.757,3.041,4.273,3.273,6.412
		c0.068,0.631,0.602,1.099,1.223,1.099c0.045,0,0.09-0.003,0.135-0.008c0.676-0.073,1.164-0.681,1.091-1.356
		c-0.294-2.704-1.818-5.727-3.979-7.888c-2.141-2.141-5.133-3.662-7.807-3.97c-0.676-0.079-1.287,0.406-1.365,1.082
		C58.315,5.435,58.799,6.045,59.475,6.123z"/>
	<path fill="#FFFFFF" d="M58.325,11.281c1.145,0.132,2.728,0.981,3.766,2.019c1.046,1.047,1.897,2.646,2.022,3.802
		c0.068,0.632,0.602,1.1,1.223,1.1c0.045,0,0.089-0.003,0.135-0.008c0.676-0.073,1.164-0.681,1.091-1.356
		c-0.214-1.976-1.524-4.074-2.729-5.278c-1.193-1.194-3.271-2.499-5.225-2.724c-0.677-0.079-1.287,0.406-1.365,1.082
		C57.165,10.593,57.649,11.204,58.325,11.281z"/>
</g>
</svg>
