<?xml version="1.0" encoding="utf-8"?>
<!-- Generator: Adobe Illustrator 16.0.0, SVG Export Plug-In . SVG Version: 6.00 Build 0)  -->
<!DOCTYPE svg PUBLIC "-//W3C//DTD SVG 1.1//EN" "http://www.w3.org/Graphics/SVG/1.1/DTD/svg11.dtd">
<svg version="1.1" id="레이어_1" xmlns="http://www.w3.org/2000/svg" xmlns:xlink="http://www.w3.org/1999/xlink" x="0px"
	 y="0px" width="389.996px" height="512px" viewBox="0 0 389.996 512" enable-background="new 0 0 389.996 512"
	 xml:space="preserve">
<path fill="#FFFFFF" d="M334.996,0H55C24.672,0,0,24.672,0,55v321.996c0,28.918,22.438,52.68,50.816,54.828l-29.234,58.465
	c-3.703,7.41-0.699,16.422,6.707,20.125c2.156,1.074,4.445,1.586,6.699,1.586c5.5,0,10.797-3.039,13.426-8.297l5.855-11.707h281.457
	l5.855,11.707c2.629,5.258,7.926,8.297,13.43,8.297c2.254,0,4.543-0.512,6.695-1.586c7.41-3.703,10.41-12.715,6.707-20.125
	l-29.234-58.465c28.379-2.148,50.816-25.906,50.816-54.828V55C389.996,24.672,365.324,0,334.996,0z M55,30h279.996
	c13.785,0,25,11.215,25,25v65H30V55C30,41.215,41.215,30,55,30z M359.996,282H30V150h329.996V282z M69.269,461.996l15-30h221.457
	l15,30H69.269z M334.996,401.996H55c-13.785,0-25-11.215-25-25V312h329.996v64.996C359.996,390.781,348.785,401.996,334.996,401.996
	z"/>
<path fill="#FFFFFF" d="M135,90h120c8.281,0,15-6.715,15-15s-6.719-15-15-15H135c-8.285,0-15,6.715-15,15S126.715,90,135,90z"/>
<path fill="#FFFFFF" d="M315,341.996h-40c-8.285,0-15,6.719-15,15c0,8.285,6.715,15,15,15h40c8.281,0,15-6.715,15-15
	C330,348.715,323.281,341.996,315,341.996z"/>
<path fill="#FFFFFF" d="M115,341.996H75c-8.285,0-15,6.719-15,15c0,8.285,6.715,15,15,15h40c8.285,0,15-6.715,15-15
	C130,348.715,123.285,341.996,115,341.996z"/>
</svg>
