<?xml version="1.0" encoding="utf-8"?>
<!-- Generator: Adobe Illustrator 16.0.0, SVG Export Plug-In . SVG Version: 6.00 Build 0)  -->
<!DOCTYPE svg PUBLIC "-//W3C//DTD SVG 1.1//EN" "http://www.w3.org/Graphics/SVG/1.1/DTD/svg11.dtd">
<svg version="1.1" id="레이어_1" xmlns="http://www.w3.org/2000/svg" xmlns:xlink="http://www.w3.org/1999/xlink" x="0px"
	 y="0px" width="100px" height="100px" viewBox="0 0 100 100" enable-background="new 0 0 100 100" xml:space="preserve">
<g>
	<g>
		<g>
			<path fill="#A58879" d="M73.349,30.7c-6.398,1.451-16.439,5.584-17.235,13.25c-0.818,7.874,8.465,9.233,14.138,7.808
				c4.05-1.021,8.234-2.625,11.576-5.174c2.416-1.843,5.4-4.888,4.941-8.238c-0.875-6.413-9.854-8.982-15.118-7.527
				c-0.34,0.094-0.196,0.603,0.146,0.527c3.109-0.68,6.229-0.47,9.096,0.995c3.709,1.897,6.822,5.695,4.282,9.887
				c-3.045,5.022-9.695,7.564-15.105,8.873c-3.422,0.829-7.245,1.153-10.313-0.928c-3.263-2.209-3.795-6.202-1.883-9.543
				c2.989-5.231,10.005-8.255,15.549-9.669C73.587,30.914,73.517,30.663,73.349,30.7L73.349,30.7z"/>
		</g>
		<g>
			<path fill="#A58879" d="M72.479,30.405c-1.48,0.556-2.985,1.074-4.409,1.768c-0.142,0.07-0.042,0.308,0.108,0.258
				c1.501-0.501,2.939-1.188,4.384-1.825C72.675,30.556,72.596,30.361,72.479,30.405L72.479,30.405z"/>
		</g>
		<g>
			<path fill="#A58879" d="M56.161,44.015c-0.45,2.473,2.35,2.219,2.158,4.4c-0.013,0.129,0.078,0.239,0.177,0.31
				c0.126,0.085,0.249,0.17,0.374,0.256c0.304,0.21,0.689-0.2,0.499-0.499c-2.418-3.831,12.09-9.423,14.114-9.485
				c1.297-0.041,1.964,0.348,3.183-0.206c1.012-0.46,1.856-1.221,2.879-1.696c0.79-0.367,6.095-2.144,5.966-0.12
				c-0.035,0.56,0.892,0.567,0.877,0c-0.056-2.092-2.704-1.849-4.196-1.595c-2.108,0.357-3.324,1.33-5.151,2.276
				c-1.551,0.803-3.058,0.25-4.663,0.7c-3.99,1.12-8.186,3.378-11.578,5.706c-1.707,1.173-3.322,2.701-2.062,4.789
				c0.168-0.165,0.334-0.333,0.501-0.501c-0.025-0.015,0.166-1.383,0.187-1.576c0.013-0.118-0.073-0.225-0.164-0.284
				c-0.925-0.622-2.765-1.436-2.854-2.438C56.395,43.919,56.188,43.865,56.161,44.015L56.161,44.015z"/>
		</g>
		<g>
			<path fill="#A58879" d="M83.203,35.358c0.034,0.024,0.069,0.048,0.104,0.072c0.098,0.066,0.245,0.059,0.345,0
				c0.815-0.486,0.946-1.565,0.455-2.341c-0.479-0.757-1.852-1.433-2.642-0.821c-0.252,0.193-0.118,0.565,0.091,0.712
				c0.32,0.225,0.738,0.151,1.099,0.276c0.338,0.114,0.654,0.335,0.763,0.689c0.11,0.357-0.031,0.641-0.181,0.947
				C83.181,35.014,83.041,35.25,83.203,35.358L83.203,35.358z"/>
		</g>
		<g>
			<path fill="#A58879" d="M78.308,37.461c-2.467,1.405-4.377,1.716-7.156,1.63c-1.655-0.051-2.759,0.055-4.183,0.932
				c-1.639,1.009-3.004,1.871-4.719,2.751c-0.79,0.405-1.144,0.595-1.396,1.494c-0.095,0.333,0.32,0.547,0.563,0.326
				c1.007-0.917,2.619-1.094,3.784-1.807c1.918-1.173,2.958-2.409,5.445-2.536c1.41-0.074,2.663,0.166,4.037-0.298
				c1.383-0.472,2.573-1.435,3.765-2.249C78.599,37.603,78.468,37.371,78.308,37.461L78.308,37.461z"/>
		</g>
		<g>
			<path fill="#A58879" d="M56.732,46.75c1.195,0.682,1.158,2.236,1.957,3.266c0.621,0.8,1.544,1.352,2.446,1.773
				c2.606,1.217,5.731,1.539,8.564,1.225c6.284-0.698,11.742-5.073,15.484-9.961c0.269-0.352-0.282-0.696-0.578-0.446
				c-4.752,4.027-8.477,8.648-15.122,9.341c-3.427,0.358-8.338-0.006-10.469-3.164c-0.72-1.064-0.83-2.021-2.079-2.52
				C56.652,46.151,56.476,46.606,56.732,46.75L56.732,46.75z"/>
		</g>
		<g>
			<path fill="#A58879" d="M84.592,44.116c-2.229,4.837-7.02,7.122-12.05,7.97c-5.818,0.983-13.609,1.613-15.406-5.509
				c-0.087-0.339-0.582-0.256-0.596,0.081c-0.04,1.072,0.172,1.669,1.083,2.229c0.174,0.105,0.326-0.162,0.159-0.271
				c-1.507-0.981-1.242-1.295-0.779-0.061c0.212,0.56,0.576,1.132,0.941,1.615c0.732,0.965,1.711,1.779,2.817,2.28
				c2.98,1.353,7.028,0.798,10.15,0.432c5.719-0.669,11.42-3.131,13.766-8.729C84.698,44.103,84.613,44.068,84.592,44.116
				L84.592,44.116z"/>
		</g>
		<g>
			<path fill="#A58879" d="M82.657,32.404c0.575-0.013,1.122,0.247,1.395,0.768c0.295,0.563,0.042,1.017-0.112,1.567
				c-0.063,0.223,0.112,0.455,0.345,0.453c0.231-0.002,0.389,0.009,0.587-0.102c0.063-0.033,0.083-0.122,0.048-0.182
				c-0.115-0.197-0.256-0.264-0.454-0.383c0.023,0.186,0.049,0.374,0.073,0.562c0.601-0.549,0.488-1.658,0.027-2.262
				c-0.453-0.601-1.223-0.836-1.942-0.684C82.476,32.173,82.509,32.407,82.657,32.404L82.657,32.404z"/>
		</g>
		<g>
			<path fill="#A58879" d="M72.353,30.621c2.407-0.11,11.316,0.533,11.614,4.098c0.031,0.379,0.534,0.369,0.58,0
				c0.253-2.054-1.593-2.844-3.272-3.359c-2.916-0.897-5.914-1.363-8.944-0.906C72.234,30.466,72.257,30.626,72.353,30.621
				L72.353,30.621z"/>
		</g>
		<g>
			<path fill="#A58879" d="M61.021,46.963c-0.258-1.304,0.183-2.395,1.146-3.268c0.206-0.191-0.108-0.51-0.311-0.311
				c-0.925,0.916-1.253,2.367-0.925,3.604C60.946,47.048,61.032,47.022,61.021,46.963L61.021,46.963z"/>
		</g>
		<g>
			<path fill="#A58879" d="M70.402,42.786c0.595-0.895,0.884-2.603-0.191-3.304c-0.378-0.247-0.968-0.103-1.161,0.32
				c-0.138,0.298,0.024,0.601,0.002,0.906c-0.044,0.606-0.713,0.954-1.162,1.291c-0.144,0.109,0.015,0.315,0.153,0.197
				c0.348-0.3,0.778-0.571,1.071-0.93c0.218-0.263,0.166-0.398,0.227-0.698c-0.013-0.39,0.164-0.582,0.532-0.578
				c0.133,0.052,0.268,0.103,0.4,0.155c0.215,0.188,0.306,0.576,0.357,0.847c0.117,0.611,0.003,1.216-0.27,1.77
				C70.349,42.79,70.386,42.812,70.402,42.786L70.402,42.786z"/>
		</g>
		<g>
			<path fill="#A58879" d="M76.97,34.458c-0.688,0.32-0.732,0.971-0.886,1.641c-0.142,0.624-0.468,1.136-1.006,1.501
				c-0.435,0.294-0.919,0.361-1.252,0.79c-0.451,0.577,0.094,1.411,0.805,1.044c0.688-0.354,1.162-1.363,1.472-2.05
				c0.35-0.775,0.208-2.296,0.978-2.735C77.204,34.575,77.096,34.398,76.97,34.458L76.97,34.458z"/>
		</g>
		<g>
			<path fill="#A58879" d="M59.29,40.303c1.26-2.059,3.093-3.639,5.296-4.621c0.175-0.077,0.023-0.333-0.149-0.256
				c-2.258,1.005-4.049,2.66-5.268,4.805C59.123,40.311,59.242,40.381,59.29,40.303L59.29,40.303z"/>
		</g>
		<g>
			<path fill="#A58879" d="M61.184,39.073c0.256-0.298,0.534-0.571,0.844-0.812s0.665-0.411,0.977-0.646
				c0.063-0.052,0.031-0.175-0.062-0.144c-0.724,0.239-1.391,0.928-1.86,1.503C61.027,39.042,61.123,39.141,61.184,39.073
				L61.184,39.073z"/>
		</g>
		<g>
			<path fill="#A58879" d="M61.77,39.57c0.302-0.151,0.569-0.343,0.813-0.58c0.079-0.078-0.045-0.201-0.122-0.122
				c-0.229,0.23-0.482,0.416-0.77,0.565C61.6,39.482,61.679,39.614,61.77,39.57L61.77,39.57z"/>
		</g>
		<g>
			<path fill="#A58879" d="M78.942,42.519c0.384-0.274,0.759-0.558,1.129-0.849c0.4-0.313,0.86-0.626,1.188-1.013
				c0.068-0.083-0.022-0.232-0.124-0.162c-0.383,0.271-0.707,0.639-1.057,0.953c-0.385,0.346-0.781,0.683-1.183,1.011
				C78.861,42.484,78.907,42.545,78.942,42.519L78.942,42.519z"/>
		</g>
		<g>
			<path fill="#A58879" d="M80.709,42.149c0.116-0.111,0.232-0.221,0.348-0.332c0.153-0.147-0.081-0.379-0.233-0.232
				c-0.114,0.11-0.23,0.221-0.347,0.332C80.324,42.064,80.556,42.296,80.709,42.149L80.709,42.149z"/>
		</g>
		<g>
			<path fill="#A58879" d="M81.729,42.237c0.044-0.007,0.086-0.015,0.131-0.022c0.167-0.032,0.098-0.288-0.07-0.258
				c-0.044,0.007-0.088,0.015-0.133,0.024C81.49,42.013,81.562,42.269,81.729,42.237L81.729,42.237z"/>
		</g>
		<g>
			<path fill="#A58879" d="M65.089,50.098c2.133,0.514,4.324,0.573,6.464,0.057c0.137-0.032,0.08-0.239-0.059-0.211
				c-2.153,0.462-4.216,0.514-6.373,0.034C65.044,49.96,65.011,50.078,65.089,50.098L65.089,50.098z"/>
		</g>
		<g>
			<path fill="#A58879" d="M72.741,49.292c0.152,0,0.152-0.234,0-0.234C72.592,49.057,72.59,49.292,72.741,49.292L72.741,49.292z"/>
		</g>
		<g>
			<path fill="#A58879" d="M74.141,33.105c0.229-0.048,0.455-0.096,0.682-0.142c0.177-0.037,0.102-0.326-0.073-0.271
				c-0.223,0.066-0.444,0.133-0.665,0.201C73.947,32.936,74.005,33.135,74.141,33.105L74.141,33.105z"/>
		</g>
		<g>
			<path fill="#A58879" d="M75.544,33.658c0.19-0.052,0.388-0.085,0.557-0.188c0.085-0.052,0.052-0.191-0.052-0.19
				c-0.198,0.002-0.381,0.08-0.572,0.138C75.323,33.466,75.386,33.702,75.544,33.658L75.544,33.658z"/>
		</g>
		<g>
			<path fill="#A58879" d="M70.284,37.228c-0.352,0.843-0.77,1.571-1.536,2.104c-0.541,0.379-1.208,0.639-1.674,1.108
				c-0.166,0.169,0.042,0.395,0.237,0.31c0.694-0.31,1.462-0.995,2.017-1.521c0.565-0.538,0.848-1.238,1.091-1.963
				C70.45,37.176,70.317,37.146,70.284,37.228L70.284,37.228z"/>
		</g>
		<g>
			<path fill="#A58879" d="M70.457,36.408c-0.027,0.094-0.055,0.19-0.083,0.286c-0.02,0.068,0.087,0.096,0.105,0.029
				c0.027-0.096,0.055-0.191,0.085-0.287C70.584,36.369,70.478,36.34,70.457,36.408L70.457,36.408z"/>
		</g>
		<g>
			<path fill="#A58879" d="M85.807,42.007c-3.073,4.522-7.212,8.937-12.585,10.495c-5.137,1.492-11.753,1.971-15.593-2.524
				c-0.177-0.208-0.545,0.07-0.381,0.293c3.225,4.43,9.894,4.27,14.672,3.176c5.689-1.303,11.72-5.873,14.063-11.339
				C86.033,41.99,85.883,41.896,85.807,42.007L85.807,42.007z"/>
		</g>
		<g>
			<path fill="#A58879" d="M58.712,46.348c4.001-2.413,8.589-4.354,13.108-5.54c1.657-0.438,3.525-0.56,5.097-1.29
				c1.884-0.873,2.989-2.755,5.089-3.238c0.265-0.061,0.152-0.468-0.112-0.409c-1.945,0.453-2.721,1.842-4.36,2.856
				c-1.996,1.236-4.621,1.321-6.825,1.982c-4.197,1.258-8.417,3.085-12.083,5.488C58.531,46.26,58.616,46.406,58.712,46.348
				L58.712,46.348z"/>
		</g>
	</g>
	<g>
		<g>
			<path fill="#A58879" d="M81.65,59.634c-6.646-0.975-18.305-0.731-21.24,6.899c-2.694,6.999,5.43,10.999,10.997,11.633
				c4.143,0.472,8.589,0.501,12.611-0.726c2.875-0.873,6.596-2.626,7.362-5.855c1.499-6.312-5.974-11.914-11.407-12.463
				c-0.304-0.031-0.377,0.489-0.071,0.537c5.282,0.822,14.809,7.607,9.754,13.938c-3.674,4.603-11.966,4.492-17.239,3.991
				c-3.133-0.298-6.504-0.917-8.968-3.035c-3.37-2.896-3.752-7.529-0.512-10.687c4.545-4.424,12.81-4.673,18.678-3.971
				C81.763,59.912,81.798,59.656,81.65,59.634L81.65,59.634z"/>
		</g>
		<g>
			<path fill="#A58879" d="M80.911,59.037c-1.568-0.015-3.149-0.079-4.715,0.052c-0.179,0.015-0.183,0.272,0,0.281
				c1.569,0.078,3.147-0.042,4.715-0.112C81.054,59.251,81.056,59.041,80.911,59.037L80.911,59.037z"/>
		</g>
		<g>
			<path fill="#A58879" d="M60.778,65.833c-1.442,2.026,1.393,2.914,0.453,4.818c-0.055,0.11-0.075,0.251,0,0.361
				c0.085,0.125,0.17,0.25,0.253,0.376c0.18,0.265,0.732,0.206,0.683-0.187c-0.599-4.61,13.985-4.728,16.617-3.781
				c1.468,0.528,1.864,1.002,3.442,0.894c0.518-0.035,9.797-1.306,8.498,1.501c-0.265,0.573,0.586,0.936,0.802,0.335
				c0.687-1.915-1.866-2.655-3.28-2.95c-1.417-0.295-2.866-0.313-4.294-0.081c-1.505,0.243-2.409,0.526-3.934-0.004
				c-0.954-0.331-0.405-0.397-1.389-0.655c-3.473-0.91-8.356,0.163-11.847,0.766c-2.421,0.42-5.683,0.84-5.349,3.977
				c0.228-0.061,0.454-0.123,0.683-0.186c-0.044-0.056,0.586-1.193,0.691-1.396c0.051-0.1,0.069-0.235,0-0.333
				c-0.775-1.112-2.455-1.291-1.802-3.358C61.053,65.785,60.855,65.723,60.778,65.833L60.778,65.833z"/>
		</g>
		<g>
			<path fill="#A58879" d="M89.119,67.521c0.676,0.908,1.678-0.682,1.709-1.312c0.052-1.027-1.022-2.437-2.139-2.204
				c-0.368,0.075-0.394,0.514-0.2,0.757c0.396,0.501,1.158,0.545,1.331,1.271c0.16,0.672-0.455,0.881-0.701,1.37
				C89.101,67.438,89.093,67.487,89.119,67.521L89.119,67.521z"/>
		</g>
		<g>
			<path fill="#A58879" d="M83.788,67.729c-3.201,0.468-5.256-0.562-8.222-1.518c-1.23-0.396-2.349-0.389-3.617-0.121
				c-1.796,0.381-3.725,0.392-5.455,0.771c-0.875,0.191-0.939,0.256-1.444,0.925c-0.172,0.228,0.116,0.597,0.379,0.495
				c1.17-0.455,2.382-0.108,3.592-0.234c2.193-0.223,3.958-1.326,6.224-0.668c1.391,0.403,2.49,1.225,3.98,1.352
				c1.567,0.135,3.139-0.385,4.64-0.731C84.045,67.959,83.964,67.703,83.788,67.729L83.788,67.729z"/>
		</g>
		<g>
			<path fill="#A58879" d="M60.307,68.547c0.779,1.069,0.326,2.72,0.725,3.946c0.39,1.201,1.326,2.185,2.245,2.999
				c2.025,1.798,4.563,3.058,7.187,3.702c6.021,1.477,12.51-0.63,17.686-3.739c0.344-0.21,0.121-0.814-0.284-0.674
				c-5.752,2.029-10.804,4.936-17.119,3.389c-2.642-0.645-5.526-2.012-7.439-4.012c-1.733-1.809-0.989-4.286-2.581-5.935
				C60.521,68.014,60.127,68.298,60.307,68.547L60.307,68.547z"/>
		</g>
		<g>
			<path fill="#A58879" d="M87.251,76.207c-4.268,4.125-10.327,4.114-15.74,2.67c-5.444-1.451-11.585-3.551-10.741-10.347
				c0.036-0.291-0.448-0.422-0.565-0.153c-0.432,0.996-0.507,1.604,0.171,2.496c0.12,0.154,0.389,0.007,0.271-0.159
				c-0.759-1.053-0.697-2.216-0.722-0.412c-0.006,0.472,0.087,0.958,0.188,1.418c0.236,1.077,0.68,2.102,1.356,2.98
				c1.902,2.468,5.389,3.393,8.23,4.266c5.984,1.838,12.954,2.147,17.619-2.693C87.358,76.229,87.294,76.166,87.251,76.207
				L87.251,76.207z"/>
		</g>
		<g>
			<path fill="#A58879" d="M89.702,64.588c0.579,0.216,1.016,0.723,1.016,1.357c0,0.575-0.386,0.887-0.7,1.313
				c-0.149,0.203,0.021,0.453,0.214,0.525c0.195,0.073,0.32,0.134,0.528,0.108c0.09-0.011,0.144-0.075,0.127-0.17
				c-0.037-0.223-0.171-0.36-0.308-0.537c-0.053,0.198-0.104,0.397-0.158,0.599c0.75-0.301,1.092-1.255,0.919-2.019
				c-0.173-0.761-0.813-1.303-1.567-1.434C89.604,64.305,89.54,64.529,89.702,64.588L89.702,64.588z"/>
		</g>
		<g>
			<path fill="#A58879" d="M80.736,59.195c1.823,0.593,3.479,1.511,5.047,2.608c1.696,1.186,5.028,2.902,4.278,5.44
				c-0.09,0.313,0.374,0.516,0.53,0.225c1.066-1.981-0.605-3.444-2.104-4.575c-2.341-1.765-4.814-3.247-7.707-3.864
				C80.674,59.008,80.63,59.162,80.736,59.195L80.736,59.195z"/>
		</g>
		<g>
			<path fill="#A58879" d="M64.248,70.337c0.22-1.284,1.026-2.178,2.222-2.632c0.295-0.111,0.127-0.525-0.168-0.398
				c-1.182,0.505-2.011,1.761-2.146,3.018C64.151,70.375,64.239,70.389,64.248,70.337L64.248,70.337z"/>
		</g>
		<g>
			<path fill="#A58879" d="M74.504,69.83c0.886-0.624,1.786-2.137,1-3.179c-0.271-0.361-0.886-0.401-1.197-0.072
				c-0.262,0.274-0.162,0.646-0.385,0.945c-0.328,0.438-0.977,0.522-1.486,0.667c-0.155,0.042-0.083,0.294,0.066,0.239
				c0.639-0.225,1.472-0.317,1.792-0.98c0.162-0.333,0.399-0.645,0.829-0.364c0.387,0.25,0.308,0.858,0.231,1.221
				c-0.125,0.59-0.44,1.081-0.878,1.486C74.456,69.812,74.483,69.845,74.504,69.83L74.504,69.83z"/>
		</g>
		<g>
			<path fill="#A58879" d="M83.659,64.441c-0.768,0.049-1.057,0.645-1.447,1.227c-0.389,0.58-0.932,0.913-1.613,1.05
				c-0.511,0.1-0.912-0.004-1.378,0.287c-0.521,0.324-0.355,1.297,0.337,1.237c0.814-0.067,1.527-0.757,2.12-1.293
				c0.274-0.246,0.53-0.545,0.729-0.859c0.361-0.565,0.493-1.317,1.282-1.436C83.811,64.636,83.783,64.432,83.659,64.441
				L83.659,64.441z"/>
		</g>
		<g>
			<path fill="#A58879" d="M65.039,63.498c1.934-1.459,4.173-2.266,6.594-2.395c0.189-0.011,0.191-0.31,0-0.298
				c-2.492,0.134-4.739,1.013-6.679,2.582C64.892,63.436,64.975,63.546,65.039,63.498L65.039,63.498z"/>
		</g>
		<g>
			<path fill="#A58879" d="M67.264,63.026c0.368-0.193,0.748-0.355,1.147-0.472c0.355-0.1,0.724-0.131,1.077-0.229
				c0.087-0.023,0.068-0.15-0.021-0.154c-0.773-0.022-1.611,0.361-2.276,0.733C67.112,62.949,67.183,63.067,67.264,63.026
				L67.264,63.026z"/>
		</g>
		<g>
			<path fill="#A58879" d="M67.609,63.708c0.347-0.033,0.671-0.118,0.989-0.252c0.102-0.043,0.015-0.194-0.086-0.149
				c-0.291,0.129-0.586,0.21-0.903,0.245C67.513,63.561,67.511,63.717,67.609,63.708L67.609,63.708z"/>
		</g>
		<g>
			<path fill="#A58879" d="M82.571,72.67c0.936-0.244,1.971-0.468,2.838-0.904c0.105-0.051,0.031-0.215-0.077-0.186
				c-0.941,0.269-1.85,0.709-2.783,1.013C82.503,72.607,82.521,72.682,82.571,72.67L82.571,72.67z"/>
		</g>
		<g>
			<path fill="#A58879" d="M84.324,72.973c0.147-0.063,0.295-0.122,0.444-0.185c0.191-0.079,0.106-0.397-0.089-0.316
				c-0.147,0.063-0.296,0.123-0.443,0.184C84.045,72.736,84.129,73.054,84.324,72.973L84.324,72.973z"/>
		</g>
		<g>
			<path fill="#A58879" d="M85.243,73.412c0.043,0.01,0.087,0.017,0.131,0.024c0.168,0.033,0.239-0.223,0.07-0.256
				c-0.044-0.008-0.087-0.017-0.131-0.024C85.146,73.123,85.076,73.379,85.243,73.412L85.243,73.412z"/>
		</g>
		<g>
			<path fill="#A58879" d="M66.914,74.726c1.795,1.253,3.829,2.107,6.01,2.387c0.121,0.019,0.152-0.191,0.029-0.213
				c-2.174-0.351-4.141-1.05-5.977-2.28C66.91,74.571,66.848,74.682,66.914,74.726L66.914,74.726z"/>
		</g>
		<g>
			<path fill="#A58879" d="M74.377,76.748c0.15,0,0.15-0.235,0-0.235C74.226,76.513,74.226,76.748,74.377,76.748L74.377,76.748z"/>
		</g>
		<g>
			<path fill="#A58879" d="M81.479,62.153c0.227,0.039,0.453,0.075,0.682,0.114c0.201,0.033,0.241-0.262,0.037-0.276
				c-0.23-0.019-0.461-0.037-0.689-0.054C81.387,61.929,81.355,62.133,81.479,62.153L81.479,62.153z"/>
		</g>
		<g>
			<path fill="#A58879" d="M82.615,63.182c0.199,0.021,0.391,0.059,0.588,0.021c0.106-0.019,0.083-0.164,0-0.195
				c-0.188-0.069-0.391-0.063-0.588-0.077C82.453,62.92,82.459,63.165,82.615,63.182L82.615,63.182z"/>
		</g>
		<g>
			<path fill="#A58879" d="M76.414,64.596c-0.588,0.611-1.181,1.12-2.012,1.363c-0.694,0.202-1.449,0.202-2.122,0.47
				c-0.188,0.073-0.188,0.405,0.052,0.385c1.642-0.146,3.135-0.866,4.182-2.118C76.57,64.629,76.479,64.529,76.414,64.596
				L76.414,64.596z"/>
		</g>
		<g>
			<path fill="#A58879" d="M76.863,63.907c-0.061,0.079-0.12,0.158-0.181,0.237c-0.042,0.055,0.052,0.11,0.094,0.055
				c0.061-0.079,0.122-0.156,0.183-0.237C77.001,63.907,76.905,63.852,76.863,63.907L76.863,63.907z"/>
		</g>
		<g>
			<path fill="#A58879" d="M89.163,74.667c-4.295,2.962-9.585,5.606-14.908,5.297c-5.411-0.316-12.261-2.354-14.246-8.021
				c-0.102-0.291-0.549-0.177-0.468,0.129c1.394,5.27,7.673,7.528,12.458,8.235c5.763,0.854,13.121-1.223,17.285-5.478
				C89.363,74.748,89.261,74.601,89.163,74.667L89.163,74.667z"/>
		</g>
		<g>
			<path fill="#A58879" d="M62.329,68.917c4.349-0.758,9.061-0.899,13.457-0.501c1.895,0.169,3.829,0.792,5.742,0.732
				c2.126-0.066,3.937-1.51,6.115-1.193c0.265,0.041,0.381-0.368,0.112-0.407c-1.518-0.217-2.426,0.23-3.879,0.689
				c-2.746,0.869-5.338,0.025-8.091-0.216c-4.454-0.393-9.127-0.204-13.503,0.729C62.175,68.773,62.221,68.935,62.329,68.917
				L62.329,68.917z"/>
		</g>
	</g>
	<g>
		<g>
			<path fill="#A58879" d="M9.521,44.527c0.569-4.413,7.327-1.925,9.992-2.345c2.593-0.405,4.581-1.702,7.356-1.724
				c2.529-0.019,4.708,0.179,7.126-0.663c1.383-0.479,7.167-3.072,6.669,0.878c-0.046,0.363,0.53,0.363,0.571,0
				c0.241-2.155-0.768-2.729-2.774-2.691c-1.028,0.019-1.978,0.247-2.952,0.557c-1.921,0.611-3.43,1.37-5.511,1.447
				c-1.042,0.039-2.089-0.092-3.129-0.096c-1.617-0.007-3.035,0.144-4.561,0.722c-3.044,1.149-5.179,0.814-8.259,0.755
				c-2.205-0.042-4.672,0.641-4.875,3.159C9.156,44.753,9.493,44.742,9.521,44.527L9.521,44.527z"/>
		</g>
		<g>
			<path fill="#A58879" d="M9.443,43.703c-3.429,7.287,12.421,8.394,16.374,8.033c4.444-0.407,8.349-2.889,11.834-5.515
				c2.311-1.741,4.523-4.194,3.302-7.253c-0.125-0.311-0.625-0.195-0.518,0.142c1.818,5.813-9.036,11.075-13.502,11.859
				C23.25,51.618,6.66,50.667,9.668,43.834C9.734,43.685,9.515,43.55,9.443,43.703L9.443,43.703z"/>
		</g>
		<g>
			<path fill="#A58879" d="M10.988,42.274c-1.543,1.066-0.472,2.476,0.728,3.367c3.352,2.497,7.966,3.413,12.059,3.23
				c4.082-0.181,8.021-1.478,11.583-3.44c1.962-1.08,6.384-3.275,5.675-6.152c-0.063-0.25-0.446-0.144-0.385,0.105
				c0.709,2.849-4.743,5.417-6.824,6.419c-2.405,1.152-4.934,1.981-7.575,2.376c-2.65,0.401-5.301,0.35-7.929-0.216
				c-1.357-0.293-9.824-2.93-7.228-5.553C11.16,42.344,11.071,42.219,10.988,42.274L10.988,42.274z"/>
		</g>
		<g>
			<path fill="#A58879" d="M40.192,38.609c-0.987-3.146-2.291-5.566-5.513-6.782c-3.776-1.422-8.691-1.263-12.618-0.77
				c-3.774,0.474-15.886,5.176-11.539,10.71c0.294,0.377,0.818-0.153,0.525-0.525c-2.586-3.29,2.989-6.426,5.375-7.684
				c2.982-1.577,6.111-1.947,9.439-1.984c2.446-0.027,4.995-0.084,7.393,0.459c3.724,0.847,5.485,3.216,6.771,6.621
				C40.065,38.758,40.228,38.716,40.192,38.609L40.192,38.609z"/>
		</g>
		<g>
			<path fill="#A58879" d="M39.62,38.248c-1.684-0.961-3.337-1.127-5.262-1.082c-3.269,0.076-6.572,0.308-9.826,0.613
				c-2.057,0.195-3.943,0.608-5.842,1.437c-2.531,1.108-5.251,1.083-7.725,2.429c-0.333,0.182-0.037,0.691,0.296,0.51
				c2.187-1.193,4.362-1.057,6.609-1.862c2.341-0.838,4.089-1.633,6.662-1.876c2.35-0.221,4.715-0.321,7.069-0.518
				c2.676-0.225,5.369-0.646,7.896,0.558C39.636,38.524,39.756,38.325,39.62,38.248L39.62,38.248z"/>
		</g>
		<g>
			<path fill="#A58879" d="M11.996,35.713c-2.589,1.908-4.866,5.121-2.886,8.289c0.206,0.328,0.733,0.022,0.523-0.306
				c-1.87-2.934,0.205-5.919,2.508-7.791C12.248,35.818,12.106,35.632,11.996,35.713L11.996,35.713z"/>
		</g>
		<g>
			<path fill="#A58879" d="M25.237,38.093c1.129-0.269,2.252-0.952,3.044-1.805c0.044-0.048-0.013-0.131-0.074-0.092
				c-1.017,0.626-1.821,1.452-2.987,1.831C25.176,38.042,25.194,38.104,25.237,38.093L25.237,38.093z"/>
		</g>
		<g>
			<path fill="#A58879" d="M29.033,35.629c0.061-0.059,0.124-0.118,0.184-0.175c0.035-0.035-0.024-0.086-0.053-0.042
				c-0.048,0.07-0.096,0.136-0.146,0.206C29.013,35.625,29.025,35.634,29.033,35.629L29.033,35.629z"/>
		</g>
		<g>
			<path fill="#A58879" d="M19.621,41.847c1.457-0.294,2.492-0.155,3.833,0.379c0.442,0.177,1.28,0.402,1.636,0.674
				c0.475,0.365,0.67,1.037,0.967,1.542c0.046,0.076,0.162,0.024,0.142-0.061c-0.359-1.503-0.757-1.802-2.177-2.334
				c-1.626-0.609-2.763-0.783-4.44-0.352C19.483,41.722,19.523,41.867,19.621,41.847L19.621,41.847z"/>
		</g>
		<g>
			<path fill="#A58879" d="M36.052,40.334c-0.841-0.551-1.762-0.838-2.75-1.009c-0.426-0.074-0.448,0.584-0.074,0.543
				c0.972-0.105,1.897,0.133,2.763,0.571C36.061,40.475,36.118,40.377,36.052,40.334L36.052,40.334z"/>
		</g>
		<g>
			<path fill="#A58879" d="M16.593,35.769c0.921-0.48,1.867-0.895,2.844-1.245c0.138-0.049,0.073-0.272-0.059-0.217
				c-0.975,0.398-1.917,0.858-2.827,1.387C16.501,35.721,16.543,35.794,16.593,35.769L16.593,35.769z"/>
		</g>
		<g>
			<path fill="#A58879" d="M18.114,35.776c0.451-0.221,0.901-0.318,1.389-0.42c0.104-0.022,0.083-0.197-0.025-0.188
				c-0.501,0.048-0.991,0.258-1.424,0.504C17.983,35.711,18.044,35.813,18.114,35.776L18.114,35.776z"/>
		</g>
		<g>
			<path fill="#A58879" d="M19.105,36.657c0.261-0.105,0.523-0.21,0.786-0.313c0.16-0.066,0.066-0.298-0.094-0.223
				c-0.256,0.12-0.51,0.241-0.766,0.363C18.936,36.527,19.004,36.697,19.105,36.657L19.105,36.657z"/>
		</g>
		<g>
			<path fill="#A58879" d="M32.821,43.121c0.345-0.042,0.689-0.084,1.035-0.129c0.225-0.027,0.179-0.357-0.042-0.306
				c-0.34,0.078-0.68,0.155-1.02,0.232C32.682,42.944,32.704,43.138,32.821,43.121L32.821,43.121z"/>
		</g>
		<g>
			<path fill="#A58879" d="M33.312,43.582c0.164-0.015,0.328-0.029,0.492-0.044c0.051-0.005,0.051-0.088,0-0.081
				c-0.164,0.019-0.328,0.037-0.492,0.055C33.267,43.516,33.267,43.585,33.312,43.582L33.312,43.582z"/>
		</g>
		<g>
			<path fill="#A58879" d="M10.215,43.199c-1.221,2.711,1.902,4.306,3.914,5.205c3.205,1.431,6.702,2.444,10.242,2.289
				c3.514-0.15,6.588-1.69,9.583-3.409c2.667-1.53,5.216-3.212,6.758-5.953c0.02-0.039-0.041-0.074-0.061-0.035
				c-1.326,2.54-3.719,4.146-6.146,5.53c-2.452,1.396-4.988,2.823-7.776,3.397c-2.984,0.613-6.071,0.23-8.962-0.645
				c-2.505-0.759-8.953-2.648-7.467-6.345C10.318,43.186,10.237,43.151,10.215,43.199L10.215,43.199z"/>
		</g>
		<g>
			<path fill="#A58879" d="M11.228,45.084c3.921,3.326,9.038,4.864,14.14,4.115c2.884-0.42,5.632-1.47,8.281-2.654
				c2.54-1.137,5.365-2.223,7.159-4.444c0.044-0.055-0.031-0.133-0.078-0.079c-1.667,1.98-4.089,2.985-6.391,4.035
				c-2.545,1.16-5.164,2.232-7.92,2.773c-5.383,1.063-10.896-0.32-15.145-3.79C11.243,45.015,11.196,45.059,11.228,45.084
				L11.228,45.084z"/>
		</g>
		<g>
			<path fill="#A58879" d="M10.559,42.709c-1.462,1.175-1.059,3.254-0.033,4.543c1.468,1.846,3.444,3.197,5.87,3.161
				c0.157-0.004,0.157-0.247,0-0.243c-1.88,0.033-3.468-0.765-4.796-2.056c-1.389-1.351-2.748-3.688-0.974-5.34
				C10.67,42.733,10.605,42.672,10.559,42.709L10.559,42.709z"/>
		</g>
		<g>
			<path fill="#A58879" d="M9.625,39.043c-0.442,1.19-0.088,2.818,1.079,3.481c0.12,0.068,0.258-0.098,0.149-0.195
				c-0.954-0.862-1.492-1.948-1.105-3.252C9.773,39,9.655,38.97,9.625,39.043L9.625,39.043z"/>
		</g>
		<g>
			<path fill="#A58879" d="M9.349,39.331c-0.536,1.285-0.262,2.77,0.737,3.757c0.108,0.106,0.272-0.059,0.167-0.169
				c-0.941-0.965-1.265-2.28-0.838-3.568C9.43,39.307,9.366,39.292,9.349,39.331L9.349,39.331z"/>
		</g>
		<g>
			<path fill="#A58879" d="M14.167,41.217c1.28,0.118,2.586,0.225,3.794-0.302c1.538-0.67,2.943-1.525,4.547-2.096
				c0.118-0.041,0.066-0.23-0.053-0.188c-1.177,0.417-2.33,0.844-3.42,1.46c-1.625,0.923-3.009,1.144-4.868,1.063
				C14.127,41.15,14.127,41.213,14.167,41.217L14.167,41.217z"/>
		</g>
		<g>
			<path fill="#A58879" d="M16.795,41.195c1.166,0.184,2.196-0.059,3.273-0.538c1.967-0.875,3.568-1.897,5.806-1.952
				c1.991-0.048,3.958,0.114,5.955-0.026c1.985-0.136,3.977-0.354,5.944-0.652c0.094-0.015,0.072-0.175-0.022-0.166
				c-1.974,0.207-3.938,0.498-5.921,0.641c-1.995,0.146-3.962,0.021-5.955,0.048c-1.354,0.019-2.557,0.345-3.769,0.932
				c-1.704,0.829-3.324,1.925-5.302,1.661C16.773,41.14,16.766,41.189,16.795,41.195L16.795,41.195z"/>
		</g>
		<g>
			<path fill="#A58879" d="M38.177,37.824c-1.453-0.169-2.656,0.328-4.006,0.799c-1.897,0.667-3.801,0.687-5.787,0.63
				c-2.606-0.077-5.306-0.029-7.351,1.803c-0.101,0.09,0.046,0.234,0.147,0.146c2.503-2.221,5.846-1.702,8.923-1.724
				c1.242-0.009,2.432-0.134,3.619-0.508c1.503-0.475,2.824-1.19,4.454-1.046C38.242,37.927,38.238,37.832,38.177,37.824
				L38.177,37.824z"/>
		</g>
		<g>
			<path fill="#A58879" d="M27.961,37.493c2.731,1.238,5.509,0.628,8.38,0.276c0.12-0.015,0.12-0.207,0-0.191
				c-2.833,0.364-5.618,1.003-8.354-0.147C27.952,37.414,27.924,37.474,27.961,37.493L27.961,37.493z"/>
		</g>
		<g>
			<path fill="#A58879" d="M13.175,41.313c3.462,0.367,6.141-0.429,9.485-1.068c3.921-0.748,7.953-0.768,11.898-1.337
				c1.17-0.169,2.901-0.708,0.625-0.549c-2.29,0.158-4.432,0.751-6.758,0.773c-3.144,0.03-6,0.873-9.06,1.634
				c-0.542,0.134-0.311,0.978,0.229,0.834c3.185-0.84,6.109-1.729,9.419-1.698c2.886,0.026,5.709-0.959,8.537-1.474
				c0.288-0.051,0.223-0.53-0.07-0.512c-3.91,0.25-7.815,0.486-11.707,1.002c-4.341,0.571-8.163,2.144-12.598,2.256
				C13.083,41.176,13.086,41.303,13.175,41.313L13.175,41.313z"/>
		</g>
		<g>
			<path fill="#A58879" d="M9.445,41.173c-0.328,0.571-0.409,1.21-0.239,1.845c0.042,0.159,0.227,0.225,0.368,0.147
				c0.536-0.291,0.951-0.696,1.256-1.223c0.182-0.313-0.217-0.571-0.472-0.365c-0.486,0.391-0.882,0.862-1.191,1.404
				c-0.173,0.302,0.261,0.668,0.495,0.383c0.308-0.377,0.593-0.773,0.838-1.193c0.164-0.284,0.462-0.714,0.239-1.048
				c-0.56-0.846-1.472,0.961-1.658,1.315c0.212,0.09,0.424,0.179,0.635,0.269c0.146-0.44,0.288-0.88,0.424-1.323
				c0.11-0.359-0.332-0.543-0.582-0.337c-0.252,0.207-0.554,0.398-0.729,0.678c-0.131,0.208,0.088,0.52,0.332,0.431
				c0.339-0.12,0.61-0.398,0.89-0.619c-0.193-0.112-0.387-0.225-0.58-0.339c-0.147,0.44-0.286,0.88-0.424,1.323
				c-0.116,0.372,0.457,0.624,0.636,0.269c0.122-0.239,0.252-0.475,0.398-0.7c0.061-0.1,0.18-0.227,0.226-0.333
				c0.118-0.084,0.105-0.156-0.041-0.215c-0.09-0.151-0.147-0.147-0.177,0.007c-0.158,0.146-0.271,0.499-0.389,0.685
				c-0.151,0.238-0.313,0.464-0.486,0.686c0.166,0.127,0.332,0.254,0.495,0.383c0.278-0.504,0.632-0.932,1.074-1.298
				c-0.158-0.122-0.315-0.243-0.471-0.365c-0.245,0.437-0.579,0.812-0.993,1.096c0.123,0.05,0.247,0.1,0.368,0.149
				C9.497,42.37,9.5,41.843,9.729,41.338C9.813,41.15,9.552,40.987,9.445,41.173L9.445,41.173z"/>
		</g>
		<g>
			<path fill="#A58879" d="M10.082,43.545c-0.471,0.997-0.562,1.658-0.427,2.748c0.033,0.27,0.3,0.384,0.512,0.214
				c0.648-0.524,0.582-0.447,0.674-1.289c0.042-0.405-0.536-0.416-0.659-0.088c-0.431,1.129-0.241,1.882,0.634,2.713
				c0.283,0.269,0.764,0.002,0.659-0.386c-0.23-0.854-0.521-1.554-0.95-2.32c-0.199-0.354-0.844-0.219-0.803,0.217
				c0.542,5.697,9.738,6.456,14.108,6.188c6.062-0.376,11.462-3.266,15.464-7.736c0.157-0.175-0.103-0.433-0.256-0.258
				c-3.163,3.608-7.666,5.818-12.384,6.487c-3.973,0.563-15.286,0.755-16.087-4.794c-0.261,0.111-0.523,0.221-0.786,0.332
				c0.429,0.641,0.74,1.341,0.934,2.096c0.219-0.129,0.44-0.256,0.659-0.383c-0.18-0.659-0.363-1.318-0.545-1.978
				c-0.219-0.029-0.44-0.059-0.659-0.088c0.035-0.53,0.07-1.063,0.103-1.593C10.298,43.516,10.136,43.435,10.082,43.545
				L10.082,43.545z"/>
		</g>
		<g>
			<path fill="#A58879" d="M10.349,43.889c0.402,3.299,3.94,4.868,6.743,5.808c4.369,1.462,9.123,1.52,13.506,0.104
				c0.424-0.138,0.25-0.764-0.184-0.668c-6.08,1.339-16.632,1.287-19.888-5.292C10.485,43.759,10.336,43.795,10.349,43.889
				L10.349,43.889z"/>
		</g>
	</g>
	<g>
		<g>
			<path fill="#A58879" d="M40.61,39.301c0.289-0.125,0.58-0.239,0.864-0.342c1.168-0.424,2.452-0.678,3.559-1.262
				c1.335-0.706,2.122-1.807,3.185-2.803c1.085-1.017,2.379-1.656,3.741-2.232c2.183-0.926,4.203-1.65,5.945-3.304
				c1.278-1.214,2.179-2.341,3.804-3.096c1.829-0.851,2.913-0.562,3.559,1.426c0.114,0.35-0.442,0.501-0.551,0.151
				c-0.214-0.689-2.673-1.021-3.259-0.827c-0.672,0.223-1.391,0.886-1.89,1.35c-0.904,0.84-1.603,1.838-2.615,2.571
				c-1.781,1.288-3.979,1.801-5.924,2.763c-2.142,1.057-3.294,3.085-5.31,4.244c-1.158,0.667-3.245,1.109-5.002,1.842
				C40.699,39.614,40.662,39.456,40.61,39.301z"/>
		</g>
		<g>
			<path fill="#A58879" d="M55.844,43.858c-0.061-0.033-0.112-0.074-0.179-0.103c-0.179-0.077-0.352-0.142-0.526-0.208
				c0.569-0.286,1.033-0.551,1.361-0.773c3.748-2.573,11.433-11.782,7.408-16.214c-0.232-0.258,0.123-0.615,0.379-0.379
				c2.413,2.21,1.317,5.5-0.059,7.964c-2.063,3.691-4.554,7.467-8.277,9.651C55.918,43.817,55.879,43.838,55.844,43.858z"/>
		</g>
		<g>
			<path fill="#A58879" d="M51.354,42.75c-0.328-0.03-0.668-0.056-1.013-0.08c1.482-0.547,2.908-1.247,4.243-2.094
				c2.253-1.425,4.255-3.238,5.976-5.268c1.42-1.676,5.453-6.26,3.648-8.59c-0.175-0.225,0.137-0.469,0.313-0.239
				c1.882,2.437-1.555,6.415-3.022,8.279c-2.507,3.184-5.649,5.931-9.344,7.649C51.892,42.53,51.621,42.639,51.354,42.75z"/>
			<path fill="#A58879" d="M41.754,44.3c-0.179-0.017-0.359-0.024-0.54-0.048c-0.374-0.048-0.82-0.127-1.262-0.247
				c0.013-0.088,0.024-0.162,0.024-0.164c0.011-0.05,0.013-0.098,0.022-0.146c0.678,0.173,1.49,0.25,2.326,0.269
				C42.137,44.075,41.948,44.189,41.754,44.3z"/>
		</g>
		<g>
			<path fill="#A58879" d="M48.792,24.038c2.002-0.842,4.081-1.494,6.064-1.751c3.8-0.499,6.182,1.124,8.602,3.886
				c0.074,0.081-0.042,0.203-0.121,0.122c-2.698-2.746-5.521-4.1-9.352-3.234c-1.591,0.361-3.167,0.956-4.7,1.628
				C49.155,24.443,48.989,24.224,48.792,24.038z"/>
		</g>
		<g>
			<path fill="#A58879" d="M40.238,38.646c1.028-0.744,2.102-1.411,3.076-2.367c1.68-1.65,2.934-3.066,5.013-4.278
				c2.714-1.577,5.56-2.995,8.38-4.371c2.024-0.985,3.783-1.755,6.072-1.553c0.153,0.015,0.158,0.247,0,0.243
				c-2.992-0.046-5.442,1.584-7.977,2.958c-2.041,1.107-4.141,2.118-6.155,3.273c-1.993,1.14-3.315,2.599-4.905,4.157
				c-0.986,0.969-2.122,1.636-3.2,2.415C40.469,38.952,40.366,38.793,40.238,38.646z"/>
		</g>
		<g>
			<path fill="#A58879" d="M49.529,31.691c0.917-0.818,1.308-1.901,1.993-2.88c0.036-0.052,0.134-0.022,0.11,0.048
				c-0.372,1.101-1.138,2.188-2.063,2.888C49.538,31.77,49.499,31.719,49.529,31.691L49.529,31.691z"/>
		</g>
		<g>
			<path fill="#A58879" d="M52.035,27.948c0.017-0.083,0.033-0.166,0.048-0.25c0.009-0.044,0.085-0.022,0.066,0.019
				c-0.031,0.081-0.064,0.158-0.098,0.238C52.046,27.963,52.031,27.959,52.035,27.948L52.035,27.948z"/>
		</g>
		<g>
			<path fill="#A58879" d="M45.847,37.327c1.278-1.006,2.369-1.354,3.988-1.461c1.652-0.108,2.155-0.072,3.164,1.251
				c0.046,0.063-0.046,0.151-0.106,0.106c-0.58-0.418-1.046-0.897-1.803-1.026c-0.464-0.079-1.039,0.031-1.505,0.05
				c-1.407,0.052-2.483,0.383-3.643,1.203C45.869,37.5,45.777,37.382,45.847,37.327L45.847,37.327z"/>
		</g>
		<g>
			<path fill="#A58879" d="M60.366,29.549c-0.956-0.05-1.899,0.094-2.735,0.58c-0.352,0.203-0.604-0.411-0.214-0.508
				c0.985-0.243,1.958-0.357,2.966-0.191C60.45,29.44,60.435,29.551,60.366,29.549L60.366,29.549z"/>
		</g>
		<g>
			<path fill="#A58879" d="M58.448,33.098c0.282-0.21,0.563-0.42,0.846-0.63c0.16-0.118,0.333,0.166,0.158,0.269
				c-0.3,0.18-0.601,0.361-0.898,0.542C58.436,33.349,58.344,33.175,58.448,33.098L58.448,33.098z"/>
		</g>
		<g>
			<path fill="#A58879" d="M59.143,33.442c0.144-0.083,0.286-0.166,0.428-0.249c0.046-0.026,0.087,0.044,0.04,0.07
				c-0.144,0.08-0.287,0.159-0.433,0.24C59.14,33.525,59.106,33.466,59.143,33.442L59.143,33.442z"/>
		</g>
		<g>
			<path fill="#A58879" d="M54.185,43.243c0.217-0.116,0.437-0.228,0.648-0.354c2.628-1.565,4.513-3.945,6.332-6.351
				c1.816-2.402,3.59-4.984,3.804-8.082c0.004-0.046,0.073-0.044,0.07,0c-0.341,3.393-2.242,6.135-4.24,8.797
				c-1.809,2.405-3.767,4.59-6.362,6.054C54.353,43.28,54.27,43.265,54.185,43.243z"/>
		</g>
		<g>
			<path fill="#A58879" d="M52.302,42.853c-0.117-0.015-0.243-0.03-0.362-0.042c1.07-0.477,2.105-1.057,3.087-1.748
				c2.112-1.484,3.941-3.326,5.667-5.238c1.818-2.012,3.859-4.071,4.64-6.734c0.019-0.07,0.124-0.041,0.105,0.027
				c-0.669,2.478-2.453,4.362-4.111,6.238c-1.886,2.137-3.875,4.214-6.209,5.865C54.222,41.856,53.276,42.399,52.302,42.853z"/>
			<path fill="#A58879" d="M41.774,44.289c-0.604-0.1-1.206-0.229-1.805-0.391c0.003-0.033,0.007-0.055,0.007-0.057
				c0.001-0.005,0.001-0.009,0.001-0.015c0.643,0.164,1.288,0.289,1.936,0.381C41.869,44.237,41.82,44.263,41.774,44.289z"/>
		</g>
		<g>
			<path fill="#A58879" d="M40.686,39.008c1.773-0.687,2.873-1.405,4.015-2.926c0.751-1,1.628-1.864,2.538-2.719
				c0.092-0.086,0.23,0.052,0.138,0.138c-1.242,1.173-2.179,2.534-3.332,3.77c-0.897,0.965-2.125,1.393-3.343,1.798
				C40.662,39.084,40.649,39.023,40.686,39.008L40.686,39.008z"/>
		</g>
		<g>
			<path fill="#A58879" d="M43.089,37.935c3.067-0.858,4.165-4.557,7.01-5.919c1.799-0.866,3.684-1.514,5.457-2.446
				c1.829-0.96,3.569-2.063,5.363-3.085c0.095-0.053,0.176,0.087,0.085,0.146c-1.814,1.157-3.694,2.236-5.61,3.22
				c-1.838,0.945-3.866,1.543-5.674,2.525c-2.604,1.413-3.625,4.854-6.616,5.612C43.071,37.994,43.058,37.946,43.089,37.935
				L43.089,37.935z"/>
		</g>
		<g>
			<path fill="#A58879" d="M61.339,26.364c-1.479,0.486-2.436,1.646-3.544,2.66c-1.015,0.925-2.185,1.573-3.439,2.122
				c-2.751,1.204-5.901,2.129-7.245,5.094c-0.057,0.122-0.234,0.015-0.181-0.105c1.185-2.643,3.862-3.726,6.382-4.759
				c1.908-0.783,3.498-1.641,4.991-3.083c0.903-0.872,1.783-1.66,3.008-2.021C61.371,26.254,61.397,26.346,61.339,26.364
				L61.339,26.364z"/>
		</g>
		<g>
			<path fill="#A58879" d="M51.827,30.024c2.946-0.05,5.257-1.763,7.688-3.229c0.105-0.064,0.201,0.1,0.096,0.162
				c-2.489,1.484-4.781,3.166-7.783,3.135C51.781,30.092,51.781,30.026,51.827,30.024L51.827,30.024z"/>
		</g>
		<g>
			<path fill="#A58879" d="M40.601,39.279c-0.025-0.076-0.051-0.153-0.086-0.227c3.148-1.639,5.568-3.907,8.517-5.899
				c3.678-2.488,7.718-4.459,11.646-6.501c0.299-0.155,0.54,0.263,0.264,0.451c-2.199,1.49-4.256,3.464-6.683,4.584
				c-3.179,1.466-5.654,3.323-8.4,5.513c-0.335,0.267-0.773-0.042-0.755-0.354C43.707,37.8,42.289,38.646,40.601,39.279z"/>
		</g>
		<g>
			<path fill="#A58879" d="M55.124,43.542c0.002-0.004,0.004-0.008,0.005-0.011c-0.225-0.094-0.449-0.16-0.674-0.217
				c-0.219-0.068-0.435-0.114-0.651-0.168c0.532-0.269,1-0.521,1.366-0.735c4.271-2.482,7.751-6.476,9.224-11.229
				c0.07-0.223,0.424-0.127,0.353,0.098c-1.663,5.098-4.861,9.504-9.358,12.366C55.301,43.611,55.21,43.574,55.124,43.542z"/>
		</g>
		<g>
			<path fill="#A58879" d="M54.455,43.313c-0.441-0.136-0.878-0.238-1.316-0.321c2.156-0.961,4.129-2.14,5.671-3.271
				c0.316-0.23,0.711,0.284,0.42,0.545c-1.389,1.245-2.931,2.274-4.571,3.104C54.592,43.35,54.523,43.33,54.455,43.313z"/>
		</g>
	</g>
	<g>
		<g>
			<path fill="#A58879" d="M31.291,62.415c0.545-1.079,1.09-2.159,1.635-3.238c0.542-0.233,1.081-0.468,1.623-0.701
				c0.61-0.207,1.252-0.324,1.877-0.478c0.951-0.23,1.928-0.412,2.836-0.788c2.686-1.114,4.266-3.4,7.141-4.376
				c1.971-0.667,4.019-1.111,5.728-2.358c1.179-0.862,6.384-6.239,7.29-1.977c0.077,0.359,0.634,0.208,0.551-0.151
				c-0.48-2.118-1.573-2.361-3.494-1.653c-1.287,0.475-2.258,1.263-3.301,2.121c-2.186,1.804-4.284,2.6-6.925,3.469
				c-1.389,0.46-2.708,0.998-3.862,1.921c-1.429,1.142-2.391,2.214-4.234,2.813c-0.919,0.296-1.886,0.433-2.816,0.688
				c-2.345,0.648-5.04,1.952-4.384,4.8C31.007,62.729,31.33,62.632,31.291,62.415L31.291,62.415z"/>
		</g>
		<g>
			<path fill="#A58879" d="M30.941,61.679c-0.847,8.06,14.839,3.765,18.483,1.996c3.888-1.89,6.66-5.448,9.016-8.97
				c1.576-2.357,2.894-5.539,0.669-7.929c-0.203-0.22-0.61,0.081-0.422,0.324c3.648,4.728-4.445,13.007-8.252,15.359
				c-3.365,2.078-19.842,6.843-19.234-0.78C31.213,61.509,30.958,61.515,30.941,61.679L30.941,61.679z"/>
		</g>
		<g>
			<path fill="#A58879" d="M31.922,59.807c-1.438,1.971,1.354,2.868,2.846,3.172c3.966,0.811,8.108,0.239,11.817-1.324
				c3.772-1.59,7.048-4.188,9.725-7.263c1.497-1.718,4.562-4.923,3.013-7.299c-0.138-0.214-0.484-0.015-0.343,0.201
				c2.513,3.842-7.222,11.091-9.816,12.591c-2.135,1.235-4.454,2.144-6.875,2.622c-1.38,0.272-12.023,1.166-10.217-2.611
				C32.12,59.794,31.987,59.719,31.922,59.807L31.922,59.807z"/>
		</g>
		<g>
			<path fill="#A58879" d="M58.307,46.729c-2.056-2.76-4.185-4.617-7.783-4.595c-3.83,0.025-7.981,1.639-11.397,3.227
				c-3.435,1.595-13.898,10.207-7.828,14.096c0.405,0.258,0.779-0.387,0.375-0.643c-3.772-2.413,1.352-7.933,3.172-9.714
				c2.288-2.24,5.129-3.426,8.1-4.479c2.413-0.854,4.992-1.834,7.578-1.906c3.393-0.094,5.59,1.659,7.647,4.12
				C58.233,46.908,58.365,46.809,58.307,46.729L58.307,46.729z"/>
		</g>
		<g>
			<path fill="#A58879" d="M57.651,46.573c-4.616-0.788-9.904,2.49-14.007,4.342c-2.214,0.999-3.897,2.155-5.702,3.724
				c-2.002,1.735-4.412,2.557-6.224,4.553c-0.254,0.28,0.16,0.7,0.416,0.417c1.593-1.756,3.278-2.181,5.083-3.489
				c1.855-1.344,3.245-2.979,5.376-4.022c2.05-1.002,4.196-1.818,6.284-2.735c2.801-1.234,5.581-2.855,8.742-2.552
				C57.754,46.824,57.787,46.595,57.651,46.573L57.651,46.573z"/>
		</g>
		<g>
			<path fill="#A58879" d="M30.71,53.287c-1.797,2.638-2.899,6.415-0.001,8.741c0.302,0.241,0.733-0.188,0.429-0.43
				c-2.731-2.152-1.781-5.645-0.218-8.19C31.003,53.274,30.797,53.158,30.71,53.287L30.71,53.287z"/>
		</g>
		<g>
			<path fill="#A58879" d="M44.009,51.161c0.969-0.619,1.833-1.645,2.28-2.704c0.024-0.058-0.046-0.131-0.094-0.074
				c-0.328,0.389-0.56,0.856-0.862,1.268c-0.4,0.537-0.822,1.042-1.359,1.45C43.94,51.126,43.972,51.186,44.009,51.161
				L44.009,51.161z"/>
		</g>
		<g>
			<path fill="#A58879" d="M46.784,47.583c0.037-0.076,0.078-0.151,0.114-0.225c0.024-0.045-0.05-0.076-0.063-0.028
				c-0.022,0.083-0.046,0.164-0.068,0.245C46.766,47.583,46.779,47.589,46.784,47.583L46.784,47.583z"/>
		</g>
		<g>
			<path fill="#A58879" d="M39.938,56.555c1.144-0.678,2.146-0.973,3.487-0.918c0.492,0.021,1.021-0.011,1.505,0.07
				c0.851,0.142,1.32,0.645,1.939,1.172c0.063,0.055,0.173-0.016,0.122-0.095c-0.827-1.291-1.286-1.457-2.814-1.493
				c-1.742-0.041-2.857,0.158-4.317,1.127C39.776,56.474,39.852,56.605,39.938,56.555L39.938,56.555z"/>
		</g>
		<g>
			<path fill="#A58879" d="M54.966,49.717c-0.997-0.247-1.98-0.207-2.989-0.041c-0.365,0.059-0.179,0.692,0.213,0.507
				c0.866-0.411,1.82-0.472,2.762-0.349C55.019,49.844,55.032,49.732,54.966,49.717L54.966,49.717z"/>
		</g>
		<g>
			<path fill="#A58879" d="M35.082,51.81c0.714-0.763,1.48-1.472,2.293-2.127c0.112-0.091-0.048-0.256-0.159-0.16
				c-0.785,0.692-1.516,1.433-2.195,2.225C34.984,51.789,35.042,51.851,35.082,51.81L35.082,51.81z"/>
		</g>
		<g>
			<path fill="#A58879" d="M36.52,51.319c0.35-0.357,0.746-0.6,1.17-0.857c0.107-0.064,0.013-0.215-0.096-0.163
				c-0.448,0.202-0.84,0.567-1.161,0.934C36.383,51.29,36.463,51.375,36.52,51.319L36.52,51.319z"/>
		</g>
		<g>
			<path fill="#A58879" d="M37.761,51.81c0.213-0.188,0.427-0.374,0.643-0.56c0.116-0.104-0.059-0.283-0.171-0.174
				c-0.203,0.199-0.405,0.398-0.606,0.598C37.537,51.76,37.669,51.887,37.761,51.81L37.761,51.81z"/>
		</g>
		<g>
			<path fill="#A58879" d="M52.846,53.404c0.314-0.158,0.63-0.313,0.942-0.468c0.181-0.088,0.016-0.377-0.156-0.269
				c-0.297,0.185-0.595,0.37-0.892,0.557C52.626,53.294,52.726,53.464,52.846,53.404L52.846,53.404z"/>
		</g>
		<g>
			<path fill="#A58879" d="M53.446,53.681c0.15-0.067,0.3-0.136,0.451-0.204c0.048-0.021,0.007-0.094-0.041-0.07
				c-0.147,0.072-0.296,0.143-0.445,0.214C53.372,53.641,53.407,53.699,53.446,53.681L53.446,53.681z"/>
		</g>
		<g>
			<path fill="#A58879" d="M31.504,60.931c-0.26,2.934,3.168,3.426,5.353,3.613c3.417,0.295,6.964,0.125,10.202-1.094
				c3.236-1.216,5.629-3.54,7.872-6.097c2.135-2.431,4.168-4.962,4.758-8.228c0.007-0.044-0.062-0.063-0.066-0.019
				c-0.446,2.99-2.332,5.377-4.279,7.578c-1.936,2.188-3.936,4.39-6.545,5.782c-2.575,1.374-5.498,1.923-8.393,2.008
				c-2.638,0.073-8.99,0.356-8.808-3.544C31.6,60.871,31.51,60.871,31.504,60.931L31.504,60.931z"/>
		</g>
		<g>
			<path fill="#A58879" d="M33.088,62.373c5.29,2.035,11.083,1.486,15.919-1.457c2.292-1.396,4.315-3.187,6.248-5.039
				c1.864-1.787,3.89-3.577,4.781-6.068c0.024-0.068-0.081-0.096-0.104-0.029c-0.964,2.52-3.065,4.351-4.979,6.163
				c-1.869,1.772-3.827,3.478-6.037,4.815c-4.794,2.9-10.542,3.466-15.81,1.554C33.066,62.297,33.052,62.357,33.088,62.373
				L33.088,62.373z"/>
		</g>
		<g>
			<path fill="#A58879" d="M31.672,60.343c-0.976,1.656,0.056,3.424,1.509,4.336c1.985,1.243,4.269,1.851,6.527,1.023
				c0.146-0.053,0.083-0.287-0.064-0.233c-1.496,0.553-3.028,0.488-4.513-0.063c-1.963-0.729-4.612-2.529-3.379-5.018
				C31.777,60.337,31.702,60.291,31.672,60.343L31.672,60.343z"/>
		</g>
		<g>
			<path fill="#A58879" d="M29.582,57.188c-0.031,1.253,0.838,2.708,2.155,2.937c0.127,0.021,0.236-0.17,0.096-0.229
				c-1.185-0.503-2.065-1.341-2.124-2.708C29.707,57.106,29.585,57.106,29.582,57.188L29.582,57.188z"/>
		</g>
		<g>
			<path fill="#A58879" d="M29.414,57.553c-0.088,1.381,0.663,2.711,1.925,3.304c0.136,0.063,0.256-0.138,0.118-0.206
				c-1.201-0.595-1.958-1.746-1.973-3.098C29.484,57.509,29.417,57.51,29.414,57.553L29.414,57.553z"/>
		</g>
		<g>
			<path fill="#A58879" d="M34.584,57.751c1.247-0.309,2.509-0.637,3.479-1.528c1.247-1.146,2.286-2.416,3.623-3.492
				c0.1-0.079-0.041-0.217-0.138-0.14c-1.098,0.877-2.102,1.77-3.015,2.836c-1.083,1.262-2.398,1.796-3.965,2.262
				C34.529,57.7,34.543,57.761,34.584,57.751L34.584,57.751z"/>
		</g>
		<g>
			<path fill="#A58879" d="M37.065,56.863c1.249-0.217,2.194-0.888,3.091-1.757c1.482-1.438,2.63-2.848,4.652-3.577
				c3.787-1.359,7.441-2.662,11.012-4.557c0.098-0.051,0.013-0.189-0.083-0.146c-2.033,0.951-4.016,1.997-6.091,2.857
				c-1.755,0.724-3.606,1.16-5.358,1.878c-2.836,1.159-4.173,4.642-7.238,5.25C37.017,56.819,37.032,56.867,37.065,56.863
				L37.065,56.863z"/>
		</g>
		<g>
			<path fill="#A58879" d="M56.146,46.645c-1.293,0.278-2.229,1.031-3.24,1.842c-1.652,1.322-3.394,2.052-5.398,2.686
				c-2.518,0.795-5.145,1.709-6.489,4.158c-0.063,0.118,0.116,0.223,0.18,0.105c1.621-2.923,4.964-3.535,7.859-4.57
				c1.144-0.409,2.23-0.914,3.209-1.642c1.268-0.943,2.315-2.096,3.903-2.486C56.232,46.724,56.207,46.632,56.146,46.645
				L56.146,46.645z"/>
		</g>
		<g>
			<path fill="#A58879" d="M46.392,49.695c2.991,0.269,5.418-1.229,8.013-2.507c0.11-0.052,0.013-0.217-0.096-0.162
				c-2.545,1.27-4.971,2.787-7.917,2.599C46.346,49.622,46.348,49.691,46.392,49.695L46.392,49.695z"/>
		</g>
		<g>
			<path fill="#A58879" d="M33.674,58.17c2.952-0.686,5.083-1.933,7.625-3.535c3.387-2.133,7.207-3.567,10.806-5.297
				c0.394-0.189,2.538-1.037,2.582-1.372c0.127-0.954-1.337,0.243-1.676,0.435c-1.658,0.927-3.248,1.941-5.056,2.532
				c-3.214,1.047-5.752,2.811-8.584,4.665c-0.464,0.306-0.024,1.061,0.438,0.748c1.297-0.873,2.59-1.754,3.89-2.623
				c1.634-1.094,3.192-1.529,5.014-2.251c2.497-0.992,4.688-2.721,7.017-4.036c0.251-0.144,0.078-0.595-0.2-0.479
				c-3.774,1.594-7.572,3.148-11.213,5.045c-3.732,1.943-6.681,4.535-10.679,6.034C33.556,58.066,33.586,58.189,33.674,58.17
				L33.674,58.17z"/>
		</g>
		<g>
			<path fill="#A58879" d="M30.114,59.251c-0.12,0.645,0,1.271,0.369,1.815c0.084,0.127,0.278,0.179,0.394,0.052
				c0.409-0.457,0.674-0.959,0.792-1.562c0.064-0.328-0.363-0.534-0.549-0.232c-0.33,0.53-0.555,1.102-0.67,1.717
				c-0.076,0.397,0.47,0.549,0.608,0.166c0.184-0.505,0.328-1.021,0.414-1.553c0.048-0.297,0.118-0.717-0.201-0.899
				c-0.807-0.462-1.017,1.38-1.079,1.796c0.228,0.031,0.457,0.063,0.683,0.093c-0.007-0.463-0.019-0.925-0.035-1.388
				c-0.013-0.342-0.466-0.477-0.648-0.175c-0.171,0.284-0.385,0.563-0.474,0.884c-0.083,0.295,0.278,0.476,0.492,0.288
				c0.247-0.222,0.405-0.546,0.582-0.821c-0.215-0.06-0.431-0.116-0.648-0.176c0.005,0.463,0.02,0.927,0.035,1.388
				c0.013,0.372,0.63,0.499,0.684,0.092c0.037-0.268,0.083-0.534,0.147-0.798c0.032-0.136,0.109-0.586,0.192-0.622
				c-0.085,0.011-0.171,0.021-0.256,0.035c-0.075-0.126-0.105-0.128-0.09-0.012c-0.009,0.072-0.019,0.144-0.03,0.218
				c-0.027,0.177-0.061,0.352-0.099,0.526c-0.074,0.324-0.168,0.642-0.276,0.958c0.203,0.056,0.405,0.11,0.608,0.166
				c0.097-0.567,0.285-1.085,0.58-1.581c-0.183-0.077-0.367-0.154-0.549-0.231c-0.092,0.521-0.293,0.994-0.606,1.42
				c0.13-0.017,0.261-0.035,0.394-0.052c-0.348-0.42-0.486-0.927-0.44-1.468C30.453,59.112,30.149,59.07,30.114,59.251
				L30.114,59.251z"/>
		</g>
		<g>
			<path fill="#A58879" d="M31.492,61.312c-0.118,1.116,0.035,1.771,0.527,2.771c0.103,0.212,0.407,0.179,0.519,0
				c0.44-0.707,0.422-0.611,0.23-1.438c-0.088-0.378-0.65-0.282-0.661,0.088c-0.033,1.201,0.366,1.868,1.466,2.361
				c0.322,0.147,0.787-0.177,0.54-0.538c-0.495-0.727-0.987-1.293-1.652-1.882c-0.289-0.254-0.897-0.013-0.72,0.42
				c2.179,5.338,11.51,2.854,15.401,1.208c5.604-2.374,9.718-6.854,12.034-12.406c0.091-0.214-0.263-0.313-0.352-0.096
				c-1.788,4.468-5.434,8.128-9.712,10.267c-3.431,1.713-14.306,5.628-16.585,0.696c-0.225,0.173-0.45,0.346-0.676,0.521
				c0.617,0.466,1.144,1.022,1.581,1.671c0.147-0.193,0.296-0.387,0.446-0.58c-0.367-0.547-0.731-1.093-1.098-1.642
				c-0.221,0.03-0.44,0.06-0.659,0.091c-0.14-0.503-0.28-1.008-0.42-1.511C31.687,61.178,31.506,61.179,31.492,61.312L31.492,61.312
				z"/>
		</g>
		<g>
			<path fill="#A58879" d="M31.865,61.546c1.527,3.11,5.719,3.347,8.76,3.23c4.452-0.17,8.721-1.623,12.277-4.313
				c0.347-0.262,0.041-0.838-0.35-0.597c-5.288,3.256-15.281,6.719-20.536,1.565C31.936,61.354,31.819,61.453,31.865,61.546
				L31.865,61.546z"/>
		</g>
	</g>
	<g>
		<g>
			<path fill="#A58879" d="M47.339,23.267c1.05,0.383,3.438,1.392,3.136,2.873c-0.359,1.755-3.409,1.813-4.755,1.847
				c-2.057,0.054-4.094-0.169-6.155-0.005c-2.383,0.188-4.728,0.685-7.104,0.932c-2.963,0.308-6.881,0.431-9.473-1.381
				c-4.982-3.487,6.188-5.297,7.918-5.489c4.188-0.464,8.441-0.236,12.626,0.175c2.389,0.234,4.943,0.403,6.21,2.709
				c0.21,0.383-0.375,0.726-0.585,0.343c-1.393-2.531-4.935-2.328-7.347-2.523c-2.107-0.173-4.22-0.295-6.334-0.284
				c-2.442,0.011-4.896,0.177-7.294,0.665c-0.841,0.171-1.987,0.274-2.755,0.702c-1.044,0.033-1.565,0.599-1.565,1.698
				c-0.978,1.326-0.528,2.039,1.348,2.14c4.264,1.453,8.83,0.451,13.171,0.044c1.927-0.18,3.792-0.154,5.721-0.088
				c0.882,0.03,3.634,0.288,4.198-0.25c0.365-0.917,0.731-1.834,1.096-2.751c-0.604-0.587-1.298-1.021-2.079-1.302
				C47.285,23.307,47.307,23.255,47.339,23.267L47.339,23.267z"/>
		</g>
		<g>
			<path fill="#A58879" d="M45.313,22.874c-3.801-2.177-8.122-2.68-12.439-2.731c-1.862-0.022-3.739,0.015-5.596,0.167
				c-1.751,0.146-4.187,0.107-5.008,2.208c-0.455,1.166-0.16,2.61,0.122,3.763c0.044,0.173-0.186,0.266-0.282,0.12
				c-0.884-1.348-0.993-3.901,0.103-5.198c1.385-1.639,4.619-1.474,6.529-1.567c5.127-0.256,12.539-0.505,16.739,3.022
				C45.602,22.76,45.445,22.95,45.313,22.874L45.313,22.874z"/>
		</g>
		<g>
			<path fill="#A58879" d="M24.157,31.111c-1.477-1.47-2.446-3.398-2.401-5.531c0.013-0.624,0.969-0.626,0.969,0
				c0,2.56,1.092,4.257,2.72,5.382C25.003,31.002,24.574,31.052,24.157,31.111z"/>
			<path fill="#A58879" d="M36.695,33.234c5.151,0.048,12.736-0.532,13.04-6.992c0.007-0.138,0.201-0.134,0.214,0
				c0.265,2.704-1.814,4.874-3.927,6.277c-2.277,1.511-5.487,1.588-8.38,1.52C37.347,33.747,37.03,33.479,36.695,33.234z"/>
		</g>
		<g>
			<path fill="#A58879" d="M44.819,22.762c-1.843-0.269-3.606,0.417-5.422,0.449c-1.608,0.033-3.153-0.291-4.779-0.173
				c-1.903,0.14-3.665,0.811-5.52,1.009c-1.801,0.191-2.901-0.31-4.731,0.494c-0.09,0.041-0.161-0.078-0.078-0.133
				c1.192-0.825,1.897-1.079,3.286-1.42c1.899-0.462,4.011-1.122,6.004-1.284c1.985-0.164,3.531,0.254,5.462,0.549
				c1.951,0.295,3.868-0.068,5.789,0.47C44.854,22.73,44.843,22.766,44.819,22.762L44.819,22.762z"/>
		</g>
		<g>
			<path fill="#A58879" d="M23.517,24.821c-0.037,0.042-0.074,0.087-0.111,0.129c-0.024,0.03-0.064-0.011-0.041-0.041
				c0.037-0.044,0.074-0.088,0.111-0.131C23.5,24.749,23.541,24.792,23.517,24.821L23.517,24.821z"/>
		</g>
		<g>
			<path fill="#A58879" d="M49.753,26.744c-1.374,1.411-3.327,1.564-5.187,1.834c-2.608,0.379-5.22,0.542-7.852,0.68
				c-2.711,0.142-5.457,0.403-8.172,0.274c-1.873-0.092-4.231-0.138-5.631-1.558c-0.059-0.059,0.033-0.151,0.09-0.09
				c1.654,1.696,4.798,1.538,7.006,1.486c2.234-0.051,4.474-0.229,6.706-0.346c2.207-0.118,4.411-0.229,6.603-0.514
				c2.104-0.273,4.717-0.333,6.362-1.838C49.729,26.626,49.799,26.696,49.753,26.744L49.753,26.744z"/>
		</g>
		<g>
			<path fill="#A58879" d="M49.597,26.56c-0.171,4.943-7.71,4.553-11.038,4.664c-5.494,0.184-10.602,0.05-15.237-3.292
				c-0.193-0.138-0.007-0.464,0.189-0.322c4.002,2.844,8.224,3.518,13.037,3.411c3.936-0.086,11.97,0.742,12.924-4.478
				C49.484,26.471,49.601,26.488,49.597,26.56L49.597,26.56z"/>
		</g>
		<g>
			<path fill="#A58879" d="M25.268,30.976c-0.999-0.54-1.755-1.363-2.354-2.781c-0.129-0.306,0.313-0.575,0.453-0.266
				c0.66,1.478,1.995,2.376,3.61,2.941C26.395,30.888,25.822,30.925,25.268,30.976z"/>
			<path fill="#A58879" d="M34.035,31.838c0.882,0.026,1.708,0.037,2.418,0.07c4.102,0.191,12.32,0.315,12.812-5.516
				c0.024-0.274,0.409-0.278,0.427,0c0.391,5.656-6.951,6.54-10.94,6.581c-0.84,0.007-1.678-0.013-2.516-0.059
				C35.56,32.479,34.818,32.122,34.035,31.838z"/>
		</g>
		<g>
			<path fill="#A58879" d="M48.573,27.184c-0.332,1.869-1.825,3.792-3.796,4.083c-0.107,0.015-0.149-0.123-0.046-0.162
				c1.877-0.698,3.327-1.897,3.75-3.947C48.492,27.097,48.584,27.123,48.573,27.184L48.573,27.184z"/>
		</g>
		<g>
			<path fill="#A58879" d="M46.856,28.129c-0.457,1.658-1.893,2.973-3.376,3.761c-0.096,0.052-0.213-0.081-0.122-0.158
				c1.337-1.102,2.836-1.864,3.422-3.625C46.797,28.061,46.869,28.081,46.856,28.129L46.856,28.129z"/>
		</g>
		<g>
			<path fill="#A58879" d="M45.412,28.56c-0.685,1.274-1.787,3.345-3.417,3.536c-0.061,0.007-0.125-0.061-0.12-0.12
				c0.037-0.381,0.272-0.654,0.49-0.963c0.343-0.486,0.696-0.963,1.061-1.433c0.053-0.07,0.309-0.591,0.405-0.306
				c0.029,0.085-0.516,0.608-0.591,0.692c-0.429,0.481-0.862,0.982-1.35,1.404c-0.057,0.051-0.129-0.024-0.083-0.081
				c0.658-0.803,1.446-1.496,2.096-2.31c0.046-0.059,0.151,0.02,0.105,0.081c-0.407,0.538-0.801,1.083-1.181,1.639
				c-0.076,0.11-0.593,0.728-0.556,0.841c0.118,0.378,0.53-0.016,0.678-0.12c1.048-0.733,1.74-1.831,2.369-2.917
				C45.353,28.442,45.447,28.497,45.412,28.56L45.412,28.56z"/>
		</g>
		<g>
			<path fill="#A58879" d="M42.758,29.013c-0.265,0.581-0.646,1.105-1.158,1.488c-0.1,0.074-0.23-0.096-0.135-0.173
				c0.483-0.393,0.896-0.822,1.199-1.371C42.699,28.895,42.788,28.95,42.758,29.013L42.758,29.013z"/>
		</g>
		<g>
			<path fill="#A58879" d="M41.588,29.498c-0.225,0.221-0.442,0.453-0.685,0.654c-0.057,0.048-0.133-0.024-0.083-0.081
				c0.208-0.238,0.446-0.45,0.672-0.669C41.555,29.341,41.651,29.437,41.588,29.498L41.588,29.498z"/>
		</g>
		<g>
			<path fill="#A58879" d="M37.792,30.131c-0.35,0.219-0.704,0.433-1.044,0.661c-0.074,0.052-0.147-0.075-0.07-0.116
				c0.367-0.19,0.722-0.4,1.081-0.603C37.796,30.054,37.828,30.109,37.792,30.131L37.792,30.131z"/>
		</g>
		<g>
			<path fill="#A58879" d="M36.109,30.475c-0.164,0.072-0.328,0.144-0.492,0.214c-0.09,0.041-0.144-0.084-0.051-0.124
				c0.164-0.068,0.33-0.138,0.493-0.208C36.127,30.33,36.177,30.446,36.109,30.475L36.109,30.475z"/>
		</g>
		<g>
			<path fill="#A58879" d="M33.639,30.696c-0.033,0-0.033-0.051,0-0.051S33.672,30.696,33.639,30.696L33.639,30.696z"/>
		</g>
		<g>
			<path fill="#A58879" d="M34.118,27.665c-2.369,0.186-4.711,0.1-7.06-0.252c-0.079-0.013-0.096-0.142-0.022-0.175
				c0.083-0.041,0.169-0.077,0.254-0.118c0.096-0.044,0.18,0.092,0.084,0.146c0.271-0.153,1.523,0.221,1.862,0.256
				c0.54,0.053,1.083,0.09,1.625,0.114c1.086,0.046,2.169,0.019,3.256-0.048C34.168,27.583,34.166,27.661,34.118,27.665
				L34.118,27.665z"/>
		</g>
		<g>
			<path fill="#A58879" d="M29.961,27.035c-0.692-0.096-1.4-0.084-2.087-0.189c-0.077-0.013-0.051-0.124,0.017-0.127
				c0.684-0.049,1.424,0.102,2.098,0.218C30.055,26.946,30.025,27.044,29.961,27.035L29.961,27.035z"/>
		</g>
		<g>
			<path fill="#A58879" d="M27.981,26.145c-0.239-0.035-0.477-0.068-0.716-0.101c-0.107-0.017-0.063-0.181,0.044-0.162
				c0.238,0.037,0.476,0.076,0.715,0.114C28.121,26.011,28.079,26.158,27.981,26.145L27.981,26.145z"/>
		</g>
		<g>
			<path fill="#A58879" d="M27.064,25.425c-0.096,0-0.193,0-0.291,0.002c-0.1,0.002-0.1-0.156,0-0.155
				c0.098,0.002,0.195,0.002,0.291,0.002C27.162,25.276,27.162,25.421,27.064,25.425L27.064,25.425z"/>
		</g>
		<g>
			<path fill="#A58879" d="M41.99,21.419c-0.453,0.227-0.908,0.507-1.385,0.678c-0.033,0.013-0.05-0.035-0.022-0.053
				c0.427-0.265,0.926-0.449,1.385-0.663C41.994,21.368,42.018,21.406,41.99,21.419L41.99,21.419z"/>
		</g>
		<g>
			<path fill="#A58879" d="M41.463,21.257c-0.346,0.16-0.689,0.326-1.026,0.507c-0.298,0.158-0.586,0.363-0.906,0.471
				c-0.068,0.022-0.131-0.077-0.072-0.125c0.54-0.431,1.337-0.663,1.98-0.906C41.471,21.192,41.493,21.242,41.463,21.257
				L41.463,21.257z"/>
		</g>
		<g>
			<path fill="#A58879" d="M40.559,20.898c-0.625,0.276-1.207,0.615-1.809,0.932c-0.073,0.039-0.136-0.066-0.066-0.112
				c0.575-0.363,1.217-0.633,1.847-0.884C40.568,20.819,40.596,20.881,40.559,20.898L40.559,20.898z"/>
		</g>
		<g>
			<path fill="#A58879" d="M38.649,20.725c-0.654,0.346-1.335,0.691-2.041,0.919c-0.083,0.026-0.111-0.094-0.035-0.123
				c0.683-0.284,1.37-0.538,2.033-0.868C38.656,20.629,38.699,20.699,38.649,20.725L38.649,20.725z"/>
		</g>
		<g>
			<path fill="#A58879" d="M36.84,20.717c-0.383,0.129-0.698,0.339-1.056,0.518c-0.061,0.031-0.136-0.05-0.077-0.101
				c0.304-0.262,0.722-0.409,1.105-0.516C36.877,20.6,36.903,20.695,36.84,20.717L36.84,20.717z"/>
		</g>
		<g>
			<path fill="#A58879" d="M35.286,20.877c-0.007,0-0.007-0.013,0-0.013C35.295,20.865,35.295,20.877,35.286,20.877L35.286,20.877z"
				/>
		</g>
		<g>
			<path fill="#A58879" d="M43.255,21.767c-0.672,0.236-1.372,0.61-2.066,0.748c-0.114,0.024-0.205-0.144-0.085-0.199
				c0.648-0.309,1.437-0.435,2.124-0.648C43.292,21.646,43.318,21.745,43.255,21.767L43.255,21.767z"/>
		</g>
		<g>
			<path fill="#A58879" d="M43.566,22.209c-0.821-0.379-1.654-0.742-2.534-0.958c-0.919-0.225-1.75-0.175-2.672-0.171
				c-0.125,0.002-0.147-0.179-0.03-0.215c1.779-0.551,3.743,0.455,5.275,1.278C43.649,22.168,43.611,22.231,43.566,22.209
				L43.566,22.209z"/>
		</g>
		<g>
			<path fill="#A58879" d="M42.771,22.189c-1.84-0.435-3.771-0.908-5.667-0.949c-0.142-0.001-0.188-0.235-0.035-0.26
				c0.807-0.127,1.621,0.113,2.411,0.276c1.118,0.23,2.225,0.503,3.327,0.807C42.885,22.086,42.852,22.209,42.771,22.189
				L42.771,22.189z"/>
		</g>
		<g>
			<path fill="#A58879" d="M40.229,21.966c-0.762-0.162-1.528-0.254-2.304-0.328c-0.078-0.007-0.081-0.127,0-0.122
				c0.783,0.048,1.562,0.184,2.328,0.361C40.31,21.891,40.286,21.977,40.229,21.966L40.229,21.966z"/>
		</g>
		<g>
			<path fill="#A58879" d="M27.589,22.113c-1.929,0.508-3.781,1.068-5.065,2.691c-0.094,0.122-0.262-0.05-0.168-0.169
				c1.273-1.619,3.295-2.149,5.21-2.603C27.618,22.018,27.642,22.099,27.589,22.113L27.589,22.113z"/>
		</g>
		<g>
			<path fill="#A58879" d="M26.215,21.483c-1.641,0.751-3.293,1.684-4.159,3.337c-0.07,0.133-0.28,0.011-0.202-0.118
				c1.011-1.636,2.563-2.579,4.286-3.349C26.226,21.318,26.301,21.443,26.215,21.483L26.215,21.483z"/>
		</g>
		<g>
			<path fill="#A58879" d="M24.732,21.535c-0.587,0.272-1.142,0.599-1.667,0.98c-0.083,0.059-0.166-0.081-0.081-0.14
				c0.532-0.37,1.092-0.685,1.685-0.947C24.741,21.397,24.804,21.502,24.732,21.535L24.732,21.535z"/>
		</g>
		<g>
			<path fill="#A58879" d="M25.537,23.403c-0.321-0.291-0.663-0.556-1.042-0.77c-0.345-0.191-0.722-0.31-1.068-0.492
				c-0.09-0.048-0.026-0.181,0.068-0.16c0.783,0.177,1.553,0.797,2.125,1.341C25.673,23.373,25.592,23.454,25.537,23.403
				L25.537,23.403z"/>
		</g>
		<g>
			<path fill="#A58879" d="M24.146,23.922c-0.44-0.501-0.949-0.779-1.52-1.101c-0.105-0.059-0.035-0.243,0.086-0.201
				c0.601,0.21,1.144,0.712,1.543,1.193C24.319,23.889,24.213,24,24.146,23.922L24.146,23.922z"/>
		</g>
		<g>
			<path fill="#A58879" d="M22.859,24.064c-0.167-0.066-0.337-0.131-0.504-0.197c-0.124-0.05-0.068-0.25,0.055-0.201
				c0.167,0.068,0.335,0.136,0.502,0.205C23.03,23.918,22.979,24.112,22.859,24.064L22.859,24.064z"/>
		</g>
		<g>
			<path fill="#A58879" d="M48.254,25.643c-0.676-0.864-1.516-1.529-2.455-2.098c-1.011-0.613-1.993-0.672-3.122-0.849
				c-0.083-0.015-0.065-0.151,0.02-0.147c1.184,0.075,2.157,0.235,3.172,0.875c0.941,0.591,1.779,1.28,2.451,2.17
				C48.348,25.631,48.284,25.681,48.254,25.643L48.254,25.643z"/>
		</g>
		<g>
			<path fill="#A58879" d="M47.867,27.377c0.129-1.728-1.936-2.906-3.267-3.466c-0.109-0.044-0.072-0.207,0.049-0.181
				c1.455,0.321,3.525,1.989,3.268,3.654C47.913,27.414,47.864,27.407,47.867,27.377L47.867,27.377z"/>
		</g>
		<g>
			<path fill="#A58879" d="M45.808,25.657c-0.389-0.25-0.775-0.499-1.164-0.748c-0.055-0.037-0.002-0.127,0.053-0.088
				c0.385,0.254,0.768,0.508,1.153,0.763C45.895,25.613,45.854,25.687,45.808,25.657L45.808,25.657z"/>
		</g>
	</g>
</g>
</svg>
