<?xml version="1.0" encoding="utf-8"?>
<!-- Generator: Adobe Illustrator 16.0.0, SVG Export Plug-In . SVG Version: 6.00 Build 0)  -->
<!DOCTYPE svg PUBLIC "-//W3C//DTD SVG 1.1//EN" "http://www.w3.org/Graphics/SVG/1.1/DTD/svg11.dtd">
<svg version="1.1" id="레이어_1" xmlns="http://www.w3.org/2000/svg" xmlns:xlink="http://www.w3.org/1999/xlink" x="0px"
	 y="0px" width="500px" height="500px" viewBox="0 0 500 500" enable-background="new 0 0 500 500" xml:space="preserve">
<g>
	<g>
		<path fill="#C85912" d="M378.715,203.234c6.115,4.014,11.576,8.896,16.25,14.528l46.787-37.947
			c-8.742-10.63-19.002-19.803-30.51-27.279L378.715,203.234z"/>
		<path fill="#EF7E00" d="M257.156,144.793l40.277,58.827c2.393-1.611,4.82-3.048,7.217-4.289l-32.02-63.702
			C267.434,138.268,262.232,141.352,257.156,144.793z"/>
		<path fill="#82A9DA" d="M370.775,198.696l32.076-63.667c-6.629-3.304-13.654-6.135-20.879-8.43l-21.125,68.093
			C364.258,195.791,367.596,197.136,370.775,198.696z"/>
		<path fill="#EF7E00" d="M400.371,225.148c1.787,2.802,3.391,5.755,4.789,8.788l59.939-26.849
			c-2.775-6.122-6.051-12.114-9.73-17.827L400.371,225.148z"/>
		<path fill="#EF7E00" d="M210.167,226.552l57.844,16.85c2.057-6.795,5.102-13.254,9.029-19.22l-49.884-33.737
			C219.693,201.627,213.981,213.768,210.167,226.552z"/>
		<path fill="#82A9DA" d="M205.195,294.28c1.52,6.854,3.605,13.683,6.196,20.307l58.44-23.346
			c-1.336-3.445-2.412-7.019-3.211-10.616c-2.084-9.38-2.324-18.907-0.717-28.334l-61.923-11.279
			C200.856,258.706,201.267,276.624,205.195,294.28z"/>
		<path fill="#C85912" d="M232.238,174.688l50.29,42.189c2.352-2.755,4.922-5.345,7.635-7.711l-42.507-50.037
			C242.143,163.879,236.956,169.108,232.238,174.688z"/>
		<path fill="#82A9DA" d="M398.162,307.417l53.025,38.704c11.445-15.872,19.568-34.343,23.512-53.459l-64.4-12.837
			C408.191,289.819,404.105,299.098,398.162,307.417z"/>
		<path fill="#EF7E00" d="M324.07,397.658l6.08-59.941c-17.961-2.015-34.473-10.535-46.566-24.032l-45.33,39.688
			C260.451,378.378,290.895,394.092,324.07,397.658z"/>
		<path fill="#F6AB00" d="M210.538,332.706c2.773,5.226,5.853,10.264,9.154,14.978l58.232-41.175
			c-1.531-2.202-2.961-4.548-4.266-6.971L210.538,332.706z"/>
		<path fill="#F6AB00" d="M410.281,249.472l69.877-14.041c-0.041-0.215-0.084-0.437-0.123-0.654
			c-0.094-0.511-0.186-1.018-0.299-1.527c-0.945-4.25-2.141-8.627-3.551-13.023l-67.744,22.247c0.684,2.149,1.232,4.197,1.691,6.247
			c0.047,0.224,0.092,0.445,0.129,0.668L410.281,249.472z"/>
		<path fill="#F6AB00" d="M322.42,192.916c9.793-2.179,19.74-2.343,29.566-0.49l11.801-59.067
			c-18.088-3.509-36.398-3.252-54.438,0.758c-5.859,1.302-11.797,3.062-17.652,5.237l21.34,56.323
			C316.156,194.531,319.314,193.606,322.42,192.916z"/>
		<path fill="#C85912" d="M471.633,276.386c0.672-7.731,0.654-15.653-0.061-23.561l-59.959,5.7
			c0.352,4.119,0.363,8.233,0.025,12.251L471.633,276.386z"/>
		<path fill="#F6AB00" d="M355.197,408.504l-8.66-70.774c-2.354,0.266-4.789,0.415-7.26,0.447l0.178,71.302
			C344.781,409.442,350.074,409.113,355.197,408.504z"/>
		<path fill="#C85912" d="M355.529,336.135l14.074,61.328c14.229-3.344,27.717-8.884,40.102-16.484l-33.225-53.451
			C369.994,331.465,362.953,334.353,355.529,336.135z"/>
		<path fill="#EF7E00" d="M384,322.326l43.713,56.34c6.211-4.886,12.131-10.393,17.586-16.385l-52.906-47.769
			C389.766,317.358,386.945,319.987,384,322.326z"/>
		<path fill="#F6AB00" d="M325.742,207.856c-31.33,6.966-51.158,38.116-44.189,69.447c6.963,31.328,38.117,51.15,69.449,44.186
			c31.334-6.964,51.158-38.118,44.195-69.445C388.23,220.709,357.076,200.891,325.742,207.856z M347.258,304.646
			c-22.045,4.902-43.959-9.043-48.859-31.083c-4.898-22.043,9.045-43.957,31.088-48.857c22.041-4.898,43.955,9.046,48.855,31.086
			C383.238,277.832,369.299,299.749,347.258,304.646z"/>
	</g>
	<g>
		<path fill="#EF7E00" d="M103.991,247.821l-3.021-40.82c-12.322,0.543-24.084-4.915-31.589-14.667L36.263,216.39
			C52.143,237.666,77.415,249.389,103.991,247.821z"/>
		<path fill="#C85912" d="M56.432,103.197c-1.664,1.086-3.366,2.29-5.175,3.687l25.43,32.069c0.642-0.489,1.314-0.989,2.013-1.439
			c2.319-1.512,4.888-2.784,7.649-3.783L73.462,94.86C67.482,96.939,61.753,99.743,56.432,103.197z"/>
		<path fill="#EF7E00" d="M122.328,139.285c2.094,1.616,3.995,3.417,5.669,5.371l35.561-28.768
			c-4.224-5.106-9.054-9.697-14.349-13.645L122.328,139.285z"/>
		<path fill="#82A9DA" d="M38.238,109.79c-4.296,4.417-8.103,9.261-11.302,14.41l40.575,24.576c1.267-1.962,2.708-3.804,4.299-5.488
			L38.238,109.79z"/>
		<path fill="#C85912" d="M119.868,200.964c-3.729,2.429-7.856,4.155-12.272,5.14l-0.159,0.04l7.657,40.212
			c9.614-1.991,18.772-5.713,27.041-11.074c3.938-2.561,7.703-5.523,11.188-8.811l-28.505-29.363
			C123.156,198.629,121.54,199.892,119.868,200.964z"/>
		<path fill="#F6AB00" d="M116.847,135.741l20.046-35.671c-16.049-8.712-34.7-11.588-52.621-8.108l8.372,40.056
			C100.865,130.554,109.431,131.869,116.847,135.741z"/>
		<path fill="#C85912" d="M19.841,195.104c1.591,4.856,3.656,9.624,6.148,14.185l39.846-22.434
			c-0.894-1.712-1.669-3.516-2.298-5.371L19.841,195.104z"/>
		<path fill="#82A9DA" d="M166.359,128.068l-34.577,21.905c5.419,9.136,6.76,20.117,3.688,30.258l38.768,13.034
			C181.248,171.36,178.386,147.646,166.359,128.068z"/>
		<path fill="#F6AB00" d="M61.928,175.156c-1.099-6.979-0.231-14.095,2.514-20.616l-37.203-17
			c-6.276,14.291-8.193,29.907-5.526,45.205L61.928,175.156z"/>
		<path fill="#F6AB00" d="M129.226,192.303l36.762,29.963c3.904-4.901,7.241-10.205,9.943-15.764l-42.921-20.22
			C131.935,188.408,130.674,190.431,129.226,192.303z"/>
	</g>
</g>
</svg>
