<?xml version="1.0" encoding="utf-8"?>
<!-- Generator: Adobe Illustrator 16.0.0, SVG Export Plug-In . SVG Version: 6.00 Build 0)  -->
<!DOCTYPE svg PUBLIC "-//W3C//DTD SVG 1.1//EN" "http://www.w3.org/Graphics/SVG/1.1/DTD/svg11.dtd">
<svg version="1.1" id="레이어_1" xmlns="http://www.w3.org/2000/svg" xmlns:xlink="http://www.w3.org/1999/xlink" x="0px"
	 y="0px" width="500px" height="500px" viewBox="0 0 500 500" enable-background="new 0 0 500 500" xml:space="preserve">
<g>
	<g>
		<path d="M162.074,265.252c-9.441,12.772-8.924,30.027-0.76,43.344c4.01,7.153,9.865,12.049,16.854,16.1
			c6.989,4.05,15.111,7.255,20.895,12.646c3.103,2.979,5.639,6.38,7.041,10.627c1.897,4.318,2.732,8.988,5.763,12.462
			c5.072,6.803,13.761,9.585,21.894,9.254c18.739-0.3,34.189-12.701,49.135-21.639c8.286-4.855,16.996-9.145,26.901-11.237
			c9.905-2.094,20.513-2.063,30.759,0.44c2.474,0.361,4.875,1.217,7.276,2.071c1.413,0.712,1.773-1.763,0.361-2.474
			c-18.792-6.275-39.727-4.779-57.146,3.798c-16.285,7.731-29.829,20.916-47.661,25.391c-7.854,1.887-16.977,2.073-24.388-2.544
			c-3.669-2.557-6.206-5.957-8.175-9.781c-1.896-4.319-2.804-8.493-5.268-12.39c-8.587-13.884-27.038-15.563-37.965-27.261
			c-10.009-11.06-13.989-28.819-6.95-42.446c0.783-1.907,1.989-3.247,2.7-4.659C164.548,265.612,162.713,264.335,162.074,265.252
			L162.074,265.252z"/>
	</g>
	<g>
		<path d="M343.639,347.298c-4.709,14.978-20.005,22.854-34.157,26.349c-18.821,4.331-38.685,1.941-57.372,8.817
			c-8.565,3.299-16.357,8.227-24.572,12.588c-8.287,4.855-17.419,8.577-27.253,10.176c-9.833,1.598-19.945,1.64-29.984,1.188
			c-2.546,0.134-3.958-0.577-5.154-2.772c-0.773-1.629-0.907-4.175-1.186-5.731c-0.413-4.103-0.825-8.205-0.743-12.235
			s0.659-7.988,2.648-11.235c2.061-3.741,4.896-5.854,7.802-8.463c2.834-2.113,6.164-4.154,7.658-7.474
			c2.062-3.742,1.298-8.906,3.359-12.647c0.783-1.907,2.484-3.175,4.535-3.382c1.484,0.217,1.35-2.329-0.134-2.546
			c-4.03-0.082-6.658,4.083-7.658,7.474c-0.361,2.474-0.721,4.948-1.082,7.422c-0.783,1.907-1.566,3.813-3.339,5.576
			c-2.906,2.608-6.236,4.649-9.214,7.752c-2.906,2.608-4.968,6.351-6.04,10.236s-1.226,8.411-0.813,12.514s0.825,8.205,1.733,12.379
			c0.206,2.052,1.474,3.752,2.814,4.958c1.835,1.278,4.381,1.144,6.432,0.938c5.02,0.227,10.606,0.03,15.699-0.238
			c10.184-0.536,20.512-2.063,30.211-6.207c9.132-3.722,17.069-9.639,25.778-13.928c4.391-2.392,9.205-4.216,13.946-5.546
			c5.236-1.259,10.473-2.517,15.564-2.784c10.256-1.032,20.935-1.496,31.263-3.022c14.998-2.362,31.706-9.527,38.817-23.648
			c0.783-1.907,1.494-3.319,2.277-5.227C346.329,346.175,343.855,345.813,343.639,347.298L343.639,347.298z"/>
	</g>
	<g>
		<path d="M261.986,117.114c-11.308-2.153-22.616-4.307-33.923-6.46c-5.937-0.865-11.308-2.153-17.245-3.019
			c-5.443-0.793-10.813-2.082-15.761-2.803s-10.04-0.453-14.781,0.877c-4.247,1.402-7.648,3.938-10.626,7.041
			c-5.535,6.772-7.822,15.534-8.554,24.018c-1.02,10.462-0.627,21.636-4.121,31.737c-3.35,9.112-9.028,16.875-14.708,24.636
			c-5.679,7.762-11.853,15.452-16.119,23.925c-4.267,8.473-7.688,18.08-6.585,27.841c0.753,8.7,4.691,16.348,11.536,21.387
			c6.35,4.969,13.978,8.102,22.11,7.771c2.051-0.206,4.103-0.412,5.659-0.69c1.557-0.278,0.928-2.896-0.701-2.124
			c-15.708,3.774-32.294-7.233-36.068-22.942c-2.166-9.411,0.761-19.09,4.461-27.14c3.772-8.545,9.945-16.235,15.552-23.502
			c5.607-7.268,11.214-14.535,14.986-23.08c2.133-4.236,3.277-8.617,4.421-12.998c1.216-4.875,1.515-10.39,1.741-15.41
			c0.309-9.05,1.184-18.523,5.379-26.501c2.061-3.742,4.545-6.917,7.875-8.958c3.896-2.463,8.637-3.793,13.657-3.567
			c5.02,0.227,9.968,0.948,14.916,1.669c5.442,0.793,10.813,2.082,16.255,2.875c10.813,2.081,21.626,4.163,32.933,6.316
			c2.475,0.361,5.443,0.793,7.845,1.649C263.109,119.804,263.965,117.402,261.986,117.114L261.986,117.114z"/>
	</g>
	<g>
		<g>
			<path d="M290.741,224.889c-2.329-1.35-3.525-3.546-4.721-5.741c-1.619-2.762-3.237-5.524-4.361-8.215
				c-1.618-2.762-5.134-9.843-9.452-7.946c-1.629,0.773-2.835,2.113-3.546,3.525c-1.772,1.763-3.051,3.598-4.823,5.36
				c-3.051,3.598-6.174,7.69-10.07,10.153c-6.235,4.649-13.595,6.608-20.81,7.578c-7.71,0.897-15.843,1.228-23.481,1.63
				c-7.143,0.475-14.358,1.444-20.945,5.032c-6.514,3.093-13.533,9.649-13.13,17.287c0.34,4.598,3.515,7.081,7.329,8.647
				c4.804,1.711,9.679,2.927,14.978,4.71c20.348,5.997,42.468,10.232,63.135,3.645c14.863-4.908,27.695-16.68,32.899-31.585
				c2.566-7.206,3.153-14.699,1.194-22.059s-7.176-13.173-12.464-18.491c-5.854-4.896-11.782-9.296-17.564-14.687
				c-2.681-2.412-5.289-5.318-7.402-8.153c-0.772-1.628-2.041-3.329-2.319-4.886c-0.423-0.567-0.278-1.556-0.629-2.618
				c-0.351-1.062-1.907-0.783-2.896-0.927c-8.483-0.731-14.378,8.515-14.965,16.009c-0.453,10.04,5.248,19.46,4.795,29.5
				c-0.082,4.03-1.154,7.917-3.638,11.091c-3.051,3.598-8.215,4.361-12.812,4.701c-9.761,1.104-21.007,1.991-28.553-5.172
				c-3.103-2.979-5.072-6.803-4.989-10.833c-0.072,0.495-0.639,0.917-0.639,0.917c6.803-5.072,15.636-3.279,22.914-1.208
				s13.916,5.06,21.904,5.719c6.504,0.443,13.441-2.083,17.347-8.083c1.989-3.247,2.566-7.205,2.154-11.308
				c0.01-3.536-0.897-7.71-1.877-11.39c-0.557-3.113-2.031-6.865-5.422-7.865c-2.825-1.422-6.01-0.371-8.349,1.815
				c-2.834,2.113-4.329,5.433-5.329,8.824s-1.432,6.36-2.432,9.751c-0.928,2.896-2.845,5.649-6.452,6.134
				c-3.113,0.557-5.298-1.783-6.917-4.545c-3.443-7.576,3.009-13.709,8.678-17.936c7.937-5.917,16.295-11.268,24.16-16.69
				c3.329-2.041,6.73-4.577,8.72-7.824s2.989-6.638,2.01-10.318c-2.382-7.926-10.505-11.131-18.143-10.729
				c-7.143,0.475-14.224,3.99-19.893,8.217c-10.699,7.535-18.439,19.039-25.118,30.192c-7.317,12.071-13.15,24.358-21.808,35.223
				c-4.896,5.855-10.637,10.576-15.11,16.998c-1.989,3.247-3.979,6.494-4.061,10.524c-0.577,3.958,0.402,7.638,1.949,10.895
				c3.093,6.515,7.886,11.761,14.669,13.76c6.288,1.927,13.287,2.442,19.719,3.38c2.969,0.433,5.442,0.793,8.411,1.226
				c1.484,0.217,2.34-2.186,0.36-2.474c-7.772-2.144-15.905-1.813-23.254-3.39c-3.463-0.505-6.855-1.505-10.102-3.494
				c-4.092-3.122-7.051-7.091-8.875-11.904s-1.104-9.761,1.03-13.998c2.133-4.237,5.679-7.762,9.225-11.288
				c5.957-6.206,10.997-13.05,15.542-19.967c9.09-13.833,15.923-29.512,26.92-42.562c4.896-5.855,11.204-10.999,18.285-14.515
				c8.143-3.866,21.161-6.516,26.79,3.4c2.392,4.391,0.682,9.194-2.792,12.225c-1.773,1.763-3.969,2.958-6.236,4.649
				c-2.763,1.619-5.102,3.804-7.865,5.422c-5.03,3.309-10.132,7.113-15.162,10.422c-3.968,2.958-7.937,5.917-9.998,9.659
				c-2.062,3.742-2.638,7.7-1.164,11.452c1.052,3.185,4.082,6.658,7.618,6.668c8.978,0.803,11.132-10.504,12.564-16.864
				c1.072-3.886,3.277-8.617,7.029-10.092c4.742-1.33,7.061,3.556,8.041,7.235c1.814,8.349,3.548,20.729-5.729,25.44
				c-7.648,3.938-17.822,0.939-25.522-1.699c-8.617-3.277-19.708-6.915-28.068-1.564c-0.567,0.422-2.195,1.196-2.268,1.69
				c-0.639,0.917-0.36,2.474-0.01,3.536c0.206,2.051,1.402,4.247,2.175,5.875c2.464,3.896,6.556,7.019,10.865,8.658
				c5.298,1.783,10.813,2.082,16.399,1.885c3.041-0.062,5.659-0.691,8.7-0.753c2.546-0.134,5.164-0.763,7.36-1.959
				c8.143-3.866,10.08-13.689,8.76-21.966c-1.526-10.328-7.928-21.873-1.961-31.613c2.556-3.67,6.524-6.628,10.905-5.485
				c-0.494-0.072-0.422-0.567-0.917-0.639c6.866,22.223,36.408,27.539,41.08,50.958c2.443,10.967-2.328,22.904-9.141,31.511
				c-3.69,4.515-8.298,8.391-13.327,11.7c-5.525,3.236-11.895,5.34-18.192,6.948c-16.06,2.712-32.315-0.162-47.931-3.955
				c-3.886-1.071-7.772-2.143-11.658-3.215c-3.391-0.999-7.277-2.071-10.597-3.565c-7.061-3.556-3.361-11.606,0.824-16.049
				c7.73-7.968,19.542-9.278,29.727-9.815c11.246-0.887,22.841-0.713,33.53-4.713c5.875-2.175,10.41-5.557,14.667-10.494
				c2.412-2.68,4.329-5.433,6.74-8.113c1.206-1.34,1.917-2.752,3.051-3.598c0.567-0.422,1.278-1.834,2.268-1.69
				c0.495,0.072,1.907,0.783,2.33,1.35c1.34,1.206,2.536,3.401,3.31,5.03c2.463,3.896,4.36,8.215,6.896,11.616
				c1.268,1.701,2.113,2.834,4.02,3.618C291.37,227.507,292.154,225.6,290.741,224.889L290.741,224.889z"/>
		</g>
		<g>
			<path d="M290.745,273.396c-5.112,7.339-12.904,12.267-18.934,18.967c-5.958,6.206-10.08,13.689-14.697,21.102
				c-4.051,6.988-9.019,13.338-16.171,17.349c-3.33,2.041-7.432,2.454-11.534,2.866s-8.133,0.33-11.885,1.805
				c-1.628,0.773-3.257,1.546-5.236,1.258c-2.051,0.206-3.536-0.01-5.443-0.793c-3.391-1-6.071-3.412-5.494-7.37
				c-0.072,0.495-0.639,0.918-0.711,1.412c17.251-4.73,34.025-9.321,50.455-13.362c15.214-3.846,30.428-7.691,44.662-15.217
				c11.544-6.402,21.964-15.494,27.798-27.781c2.988-6.639,4.987-13.421,5.574-20.914c0.165-8.061,0.329-16.122,2.473-23.894
				c2.144-7.772,2.73-15.266,2.895-23.327c0.236-8.555-1.742-16.928-4.124-24.854c-3.99-14.224-8.806-28.569-17.114-40.896
				c-7.464-11.194-18.823-19.924-32.11-22.366c-6.432-0.938-13.008-0.885-18.461,1.857c-4.885,2.319-8.647,7.329-7.956,12.988
				c0.835,4.669,4.36,8.215,7.886,11.76s7.618,6.668,9.443,11.482c2.175,5.875-0.813,12.514-0.195,18.667
				c0.063,3.041,1.681,5.803,3.938,7.648c2.752,1.917,6.216,2.422,9.112,3.349c12.081,3.782,21.101,14.697,25.451,26.448
				c4.558,13.801,2.249,29.634-3.656,42.416c-1.494,3.319-3.483,6.566-5.473,9.813c-1.917,2.752-3.906,5.999-7.163,7.546
				c-3.329,2.041-7.287,1.464-10.823,1.454c-3.958-0.577-7.421-1.082-11.523-0.67c-7.216,0.97-13.802,4.558-19.398,8.289
				c-6.164,4.154-12.255,7.814-19.192,10.34c-13.874,5.052-28.655,5.929-42.859,2.849c-7.349-1.577-13.493-4.494-20.131-7.482
				c-6.638-2.988-13.276-5.978-20.698-7.06c-3.463-0.505-6.504-0.442-10.112,0.042c-2.051,0.207-4.174,0.907-5.947,2.671
				c-2.834,2.112-5.246,4.793-7.658,7.473c-2.979,3.104-5.958,6.206-9.008,9.804c-1.206,1.34-3.545,3.525-3.339,5.576
				c0.701,2.124,3.031,3.474,5.01,3.763c3.391,0.999,7.277,2.071,10.741,2.576c8.411,1.226,17.389,2.029,25.873,2.76
				c2.474,0.361,5.02,0.227,7.494,0.588c1.484,0.216,2.339-2.186,0.36-2.475c-6.432-0.938-13.503-0.957-19.935-1.895
				c-4.453-0.649-8.978-0.804-12.936-1.381c-3.463-0.505-7.421-1.081-10.741-2.576c-0.99-0.144-2.402-0.855-2.824-1.422
				c-0.495-0.072-0.423-0.567-0.917-0.639c-0.423-0.567,0,0,0,0l0,0c0.072-0.495,0,0,0.072-0.495l0.639-0.918
				c1.206-1.34,2.412-2.68,3.618-4.02c2.979-3.104,5.958-6.206,8.936-9.309c1.206-1.34,2.412-2.681,4.112-3.948
				c0.639-0.917,1.701-1.268,2.834-2.113c6.442-2.598,12.946-2.155,19.729-0.156c7.277,2.071,13.349,5.483,20.482,8.544
				c12.854,5.41,27.202,7.502,41.138,5.491c6.72-1.042,13.513-2.578,19.955-5.176c6.442-2.599,12.606-6.753,18.698-10.412
				c6.091-3.66,12.605-6.753,19.677-6.732c7.07,0.02,14.771,2.658,21.429-1.424c2.763-1.619,4.68-4.371,6.597-7.123
				c1.989-3.247,3.906-6,5.4-9.318c2.989-6.639,5.483-13.349,6.564-20.771c1.875-12.864-0.702-26.377-8.661-37.643
				c-3.309-5.03-8.246-9.287-13.4-12.059c-2.824-1.422-5.154-2.772-8.123-3.205c-2.896-0.928-6.359-1.432-8.473-4.267
				c-1.69-2.268-1.681-5.803-1.248-8.772s0.938-6.432,0.875-9.473c-0.268-5.092-2.659-9.483-6.68-13.101
				c-3.525-3.545-7.618-6.668-10.082-10.564c-2.887-4.463-1.598-9.833,2.37-12.792c5.102-3.804,12.245-4.279,18.183-3.413
				c6.432,0.938,12.647,3.359,17.657,7.121c11.927,8.307,19.174,20.985,24.298,34.364c2.525,6.937,4.557,13.802,6.516,21.161
				c2.382,7.927,2.941,16.219,3.271,24.352c-0.092,7.566-1.97,15.25-3.547,22.6c-1.648,7.844-2.308,15.833-2.472,23.893
				c-0.58,6.863-2.02,13.854-5.503,20.42c-2.845,5.648-5.896,9.246-10.574,13.617c-10.564,10.081-23.521,15.772-37.251,19.835
				c-15.853,4.763-31.561,8.536-47.342,12.805c-7.854,1.887-15.925,5.259-23.779,7.146c-0.495-0.072-0.783,1.906-0.855,2.401
				c-0.515,6.999,7.536,10.699,13.689,10.08c1.557-0.278,3.608-0.484,5.236-1.258s3.68-0.979,5.731-1.186
				c4.103-0.413,8.7-0.754,12.874-1.661c7.854-1.887,14.378-8.515,19.346-14.865c5.112-7.339,8.813-15.39,14.347-22.162
				c6.813-8.607,16.161-13.813,22.552-22.987C293.219,273.757,291.456,271.984,290.745,273.396L290.745,273.396z"/>
		</g>
		<g>
			<path d="M344.732,211.536c5.608,16.987,24.245,27.788,23.979,46.95c0.124,6.081-1.164,11.451-2.524,17.316
				s-2.153,11.308-3.514,17.173s-2.226,11.803-3.586,17.668c-0.36,2.474-0.793,5.442-1.648,7.844
				c-0.288,1.979-0.37,6.01-1.648,7.845c-1.845,2.257-2.772,5.153-1.648,7.844c1.052,3.185,3.731,5.597,7.123,6.597l0,0
				c1.134-0.846,2.195-1.196,3.752-1.475c-4.453-0.649-8.762-2.287-9.03-7.38c0.145-0.989-0.206-2.051,0.433-2.969
				c0.567-0.422,1.134-0.845,1.701-1.268c0.639-0.917,0.783-1.907,0.927-2.896c0.217-1.484,0.505-3.463,0.722-4.947
				c1.288-5.371,2.153-11.308,3.441-16.679c2.226-11.802,4.874-23.037,6.604-34.912c0.793-5.442,1.587-10.885,0.329-16.121
				c-0.907-4.175-2.382-7.926-4.423-11.256c-4.433-7.72-10.072-14.1-15.071-21.397c-4.928-7.792-6.32-15.574-7.567-24.346
				c-0.897-7.71-1.795-15.42-5.383-22.006c-1.546-3.257-4.227-5.669-6.906-8.081c-1.412-0.711-3.186,1.052-1.773,1.763
				c6.845,5.04,9.227,12.966,10.619,20.749C341.453,195.9,341.783,204.033,344.732,211.536z"/>
		</g>
		<g>
			<path d="M376.551,336.432c12.956-5.69,24.366-14.639,33.023-25.504c1.917-2.752,3.834-5.504,4.834-8.896
				c0.999-3.392,1.01-6.927,0.029-10.606c-0.907-4.175-1.392-7.782-1.805-11.885c-0.412-4.103-0.33-8.133,0.247-12.091
				c0.082-4.03,0.659-7.988,1.73-11.874c0.433-2.969,1.433-6.36,1.37-9.401c0.299-5.515-0.32-11.668-5.402-14.936
				c-4.659-2.7-10.957-1.092-14.997,2.361c-5.174,4.299-7.029,10.092-8.461,16.452c-0.577,3.958-1.154,7.916-2.721,11.73
				c-1.071,3.886-3.061,7.133-5.05,10.38c-3.979,6.494-8.874,12.35-10.945,19.627c-0.711,1.412,1.69,2.268,2.474,0.36
				c1.927-6.288,5.689-11.298,8.956-16.38c3.34-5.576,6.111-10.73,7.544-17.09c1.433-6.36,1.947-13.359,5.286-18.936
				c2.629-4.164,7.73-7.968,13.173-7.175c5.938,0.865,7.546,7.163,7.319,12.183c0.063,3.041-0.793,5.442-1.226,8.411
				c-0.577,3.958-1.577,7.35-1.659,11.38c-1.081,7.421-1.174,14.987,0.291,22.274c0.484,3.607,1.958,7.359,1.948,10.896
				c-0.01,3.535-1.433,6.359-2.927,9.679c-3.906,5.999-9.297,11.782-15.037,16.504c-5.741,4.721-12.399,8.804-18.914,11.896
				C374.293,334.587,374.994,336.71,376.551,336.432L376.551,336.432z"/>
		</g>
		<g>
			<path d="M298.609,118.915c5.606-7.267,12.554-13.329,20.841-18.184c8.215-4.361,17.274-7.587,26.469-8.269
				c4.103-0.413,7.988,0.659,10.524,4.061c1.619,2.762,2.176,5.875,2.732,8.988c0.619,6.154,0.032,13.647,3.269,19.172
				c1.547,3.257,4.299,5.174,7.69,6.174c4.381,1.144,8.978,0.804,13.215,2.937c8.122,3.205,13.545,11.069,17.482,18.717
				c8.227,16.357,11.702,37.581,4.158,54.671c-3.916,9.535-11.008,16.586-16.759,24.843c-5.111,7.339-9.028,16.874-6.791,25.79
				c0.701,2.124,1.402,4.247,2.671,5.948c0.845,1.134,3.04-0.063,2.195-1.196c-5.351-8.359-2.279-19.028,2.904-26.862
				c5.329-8.824,12.986-16.297,17.325-25.265c8.111-17.514,6.12-38.521-1.467-55.795c-3.372-8.071-8.299-15.863-15.639-20.975
				c-3.67-2.556-8.051-3.7-12.504-4.349c-3.958-0.577-8.482-0.731-11.514-4.205c-2.186-2.34-2.67-5.947-3.227-9.06
				c-0.485-3.608-0.475-7.144-1.031-10.256c-0.547-6.648-3.073-13.585-10.351-15.657c-4.381-1.144-9.617,0.114-14.286,0.95
				c-4.669,0.835-8.988,2.732-13.307,4.629c-8.638,3.794-16.007,9.289-22.531,15.917c-1.773,1.763-3.051,3.598-4.329,5.433
				C296.135,118.555,297.898,120.327,298.609,118.915L298.609,118.915z"/>
		</g>
		<g>
			<path d="M131.333,209.232c-12.173,3.784-24.841,7.495-37.014,11.279c-8.988,2.732-18.615,6.381-23.449,15.277
				c-4.194,7.979-5.07,17.451-3.75,25.729c1.454,10.822,6.093,20.594,9.176,30.644c1.753,5.309,2.444,10.967,2.568,17.049
				c-0.226,5.02-0.525,10.534,1.795,15.42c4.36,8.215,15.173,10.296,23.44,12.512c10.741,2.576,21.976,5.225,32.871,3.275
				c2.618-0.629,5.236-1.258,7.854-1.887c2.69-1.124,4.885-2.319,7.576-3.443c2.124-0.701,4.247-1.402,6.154-0.619
				c1.484,0.217,2.401,0.855,3.814,1.566c3.319,1.495,6.638,2.989,10.452,4.556c2.824,1.422,6.216,2.422,9.679,2.927
				c0.989,0.145,2.474,0.36,3.535,0.01c1.557-0.278,0.855-2.401-0.701-2.123c-2.051,0.206-5.443-0.793-7.35-1.576
				c-3.392-1-6.71-2.494-10.03-3.989c-2.896-0.927-5.226-2.277-8.123-3.205c-4.875-1.216-8.844,1.743-13.163,3.64
				c-9.771,4.64-21.295,3.971-31.542,1.466c-5.37-1.287-10.741-2.575-15.616-3.792c-4.381-1.144-8.195-2.71-11.864-5.266
				c-4.092-3.123-5.495-7.37-5.763-12.462c-0.134-2.546,0.227-5.02,0.092-7.565c-0.134-2.546-0.196-5.587-0.825-8.205
				c-1.949-10.896-6.516-21.161-9.032-31.634c-2.31-8.421-2.99-17.615-0.28-25.81c1.071-3.886,3.627-7.556,6.606-10.659
				c3.545-3.525,8.359-5.35,13.172-7.175c6.37-2.104,12.668-3.712,18.543-5.887c6.865-2.031,13.235-4.134,20.1-6.166
				c1.062-0.351,2.123-0.701,3.185-1.051C133.59,211.077,132.395,208.882,131.333,209.232L131.333,209.232z"/>
		</g>
	</g>
</g>
</svg>
